*
*
G04 PADS 9.5 Build Number: 522968 generated Gerber (RS-274-X) file*
G04 PC Version=2.1*
*
%IN "PCB_ESP32-C3-WROOM-02U_"*%
*
%MOIN*%
*
%FSLAX35Y35*%
*
*
*
*
G04 PC Standard Apertures*
*
*
G04 Thermal Relief Aperture macro.*
%AMTER*
1,1,$1,0,0*
1,0,$1-$2,0,0*
21,0,$3,$4,0,0,45*
21,0,$3,$4,0,0,135*
%
*
*
G04 Annular Aperture macro.*
%AMANN*
1,1,$1,0,0*
1,0,$2,0,0*
%
*
*
G04 Odd Aperture macro.*
%AMODD*
1,1,$1,0,0*
1,0,$1-0.005,0,0*
%
*
*
G04 PC Custom Aperture Macros*
*
*
*
*
*
*
G04 PC Aperture Table*
*
%ADD010C,0.001*%
%ADD011R,0.02X0.02*%
%ADD027C,0.00394*%
%ADD028C,0.015*%
%ADD030C,0.01*%
%ADD033C,0.02*%
%ADD037C,0.005*%
%ADD101R,0.03543X0.03543*%
%ADD102C,0.01575*%
%ADD108R,0.01969X0.02362*%
%ADD109R,0.03937X0.04331*%
%ADD110R,0.02756X0.01575*%
%ADD171C,0.0126*%
%ADD177R,0.02756X0.02756*%
%ADD178O,0.024X0.10225*%
%ADD193R,0.0374X0.0374*%
%ADD198R,0.08661X0.0374*%
%ADD199R,0.01181X0.01181*%
%ADD200O,0.01102X0.02559*%
%ADD201O,0.02559X0.01102*%
%ADD202C,0.0063*%
*
*
*
*
G04 PC Circuitry*
G04 Layer Name PCB_ESP32-C3-WROOM-02U_ - circuitry*
%LPD*%
*
*
G04 PC Custom Flashes*
G04 Layer Name PCB_ESP32-C3-WROOM-02U_ - flashes*
%LPD*%
*
*
G04 PC Circuitry*
G04 Layer Name PCB_ESP32-C3-WROOM-02U_ - circuitry*
%LPD*%
*
G54D10*
G01X140399Y141639D02*
X139634Y140875D01*
X140399Y140110*
X141163Y140875*
X140399Y141639*
X140309Y140200D02*
X140488D01*
X140209Y140300D02*
X140588D01*
X140109Y140400D02*
X140688D01*
X140009Y140500D02*
X140788D01*
X139909Y140600D02*
X140888D01*
X139809Y140700D02*
X140988D01*
X139709Y140800D02*
X141088D01*
X139659Y140900D02*
X141138D01*
X139759Y141000D02*
X141038D01*
X139859Y141100D02*
X140938D01*
X139959Y141200D02*
X140838D01*
X140059Y141300D02*
X140738D01*
X140159Y141400D02*
X140638D01*
X140259Y141500D02*
X140538D01*
X140359Y141600D02*
X140438D01*
X139700Y140809D02*
Y140941D01*
X139800Y140709D02*
Y141041D01*
X139900Y140609D02*
Y141141D01*
X140000Y140509D02*
Y141241D01*
X140100Y140409D02*
Y141341D01*
X140200Y140309D02*
Y141441D01*
X140300Y140209D02*
Y141541D01*
X140400Y140112D02*
Y141638D01*
X140500Y140212D02*
Y141538D01*
X140600Y140312D02*
Y141438D01*
X140700Y140412D02*
Y141338D01*
X140800Y140512D02*
Y141238D01*
X140900Y140612D02*
Y141138D01*
X141000Y140712D02*
Y141038D01*
X141100Y140812D02*
Y140938D01*
X141790Y143031D02*
X141026Y142267D01*
X141790Y141502*
X142555Y142267*
X141790Y143031*
X141693Y141600D02*
X141888D01*
X141593Y141700D02*
X141988D01*
X141493Y141800D02*
X142088D01*
X141393Y141900D02*
X142188D01*
X141293Y142000D02*
X142288D01*
X141193Y142100D02*
X142388D01*
X141093Y142200D02*
X142488D01*
X141059Y142300D02*
X142522D01*
X141159Y142400D02*
X142422D01*
X141259Y142500D02*
X142322D01*
X141359Y142600D02*
X142222D01*
X141459Y142700D02*
X142122D01*
X141559Y142800D02*
X142022D01*
X141659Y142900D02*
X141922D01*
X141759Y143000D02*
X141822D01*
X141100Y142193D02*
Y142341D01*
X141200Y142093D02*
Y142441D01*
X141300Y141993D02*
Y142541D01*
X141400Y141893D02*
Y142641D01*
X141500Y141793D02*
Y142741D01*
X141600Y141693D02*
Y142841D01*
X141700Y141593D02*
Y142941D01*
X141800Y141512D02*
Y143022D01*
X141900Y141612D02*
Y142922D01*
X142000Y141712D02*
Y142822D01*
X142100Y141812D02*
Y142722D01*
X142200Y141912D02*
Y142622D01*
X142300Y142012D02*
Y142522D01*
X142400Y142112D02*
Y142422D01*
X142500Y142212D02*
Y142322D01*
X138578Y143104D02*
X137813Y142339D01*
X138578Y141575*
X139342Y142339*
X138578Y143104*
X138553Y141600D02*
X138603D01*
X138453Y141700D02*
X138703D01*
X138353Y141800D02*
X138803D01*
X138253Y141900D02*
X138903D01*
X138153Y142000D02*
X139003D01*
X138053Y142100D02*
X139103D01*
X137953Y142200D02*
X139203D01*
X137853Y142300D02*
X139303D01*
X137874Y142400D02*
X139282D01*
X137974Y142500D02*
X139182D01*
X138074Y142600D02*
X139082D01*
X138174Y142700D02*
X138982D01*
X138274Y142800D02*
X138882D01*
X138374Y142900D02*
X138782D01*
X138474Y143000D02*
X138682D01*
X138574Y143100D02*
X138582D01*
X137900Y142253D02*
Y142426D01*
X138000Y142153D02*
Y142526D01*
X138100Y142053D02*
Y142626D01*
X138200Y141953D02*
Y142726D01*
X138300Y141853D02*
Y142826D01*
X138400Y141753D02*
Y142926D01*
X138500Y141653D02*
Y143026D01*
X138600Y141597D02*
Y143082D01*
X138700Y141697D02*
Y142982D01*
X138800Y141797D02*
Y142882D01*
X138900Y141897D02*
Y142782D01*
X139000Y141997D02*
Y142682D01*
X139100Y142097D02*
Y142582D01*
X139200Y142197D02*
Y142482D01*
X139300Y142297D02*
Y142382D01*
X137186Y144496D02*
X136421Y143731D01*
X137186Y142967*
X137950Y143731*
X137186Y144496*
X137153Y143000D02*
X137219D01*
X137053Y143100D02*
X137319D01*
X136953Y143200D02*
X137419D01*
X136853Y143300D02*
X137519D01*
X136753Y143400D02*
X137619D01*
X136653Y143500D02*
X137719D01*
X136553Y143600D02*
X137819D01*
X136453Y143700D02*
X137919D01*
X136490Y143800D02*
X137882D01*
X136590Y143900D02*
X137782D01*
X136690Y144000D02*
X137682D01*
X136790Y144100D02*
X137582D01*
X136890Y144200D02*
X137482D01*
X136990Y144300D02*
X137382D01*
X137090Y144400D02*
X137282D01*
X136500Y143653D02*
Y143810D01*
X136600Y143553D02*
Y143910D01*
X136700Y143453D02*
Y144010D01*
X136800Y143353D02*
Y144110D01*
X136900Y143253D02*
Y144210D01*
X137000Y143153D02*
Y144310D01*
X137100Y143053D02*
Y144410D01*
X137200Y142981D02*
Y144482D01*
X137300Y143081D02*
Y144382D01*
X137400Y143181D02*
Y144282D01*
X137500Y143281D02*
Y144182D01*
X137600Y143381D02*
Y144082D01*
X137700Y143481D02*
Y143982D01*
X137800Y143581D02*
Y143882D01*
X137900Y143681D02*
Y143782D01*
G54D11*
X130600Y144098D03*
Y147476D03*
G54D27*
X156651Y124005D02*
X157717Y125071D01*
Y127942*
X154174*
Y124005*
X156651*
X154174D02*
Y127942D01*
X154370Y124005D02*
Y127942D01*
X154567Y124005D02*
Y127942D01*
X154764Y124005D02*
Y127942D01*
X154961Y124005D02*
Y127942D01*
X155158Y124005D02*
Y127942D01*
X155355Y124005D02*
Y127942D01*
X155552Y124005D02*
Y127942D01*
X155748Y124005D02*
Y127942D01*
X155945Y124005D02*
Y127942D01*
X156142Y124005D02*
Y127942D01*
X156339Y124005D02*
Y127942D01*
X156536Y124005D02*
Y127942D01*
X156733Y124086D02*
Y127942D01*
X156929Y124283D02*
Y127942D01*
X157126Y124480D02*
Y127942D01*
X157323Y124677D02*
Y127942D01*
X157520Y124874D02*
Y127942D01*
X100000Y156299D02*
X170866D01*
Y100000*
X100000*
Y156299*
G54D28*
X130100Y143787D02*
Y138990D01*
X150080Y133268D02*
X151775D01*
X152781Y132262*
X154831*
X150293Y133268D02*
X150468D01*
X156299Y132262D02*
X154831D01*
X153858*
X156299D02*
X157758D01*
X157760Y132260*
G54D30*
X129810Y107270D02*
Y109359D01*
X130983Y110532*
Y111240*
X131050*
X131214*
X132620Y112646*
Y113740*
X134279Y115399*
Y116831*
X132310Y115750D02*
Y116831D01*
X132475Y118805D02*
G75*
G03X132310Y118559I101J-246D01*
X132146Y118804I-265J-0*
G01X132310Y119040D02*
X132310D01*
Y115750*
X130884Y113898D02*
Y114324D01*
X132310Y115750*
X125193Y107732D02*
G03X125270Y107270I362J-177D01*
X124828Y107327I-258J-258*
G01X124597Y111791D02*
Y107943D01*
X125270Y107270*
X129810*
X130600Y143787D02*
X130803Y143790D01*
X134130*
X131319Y129331D02*
G03X131565Y129496I-0J266D01*
G01X131564Y129166D02*
G03X131319Y129331I-245J-100D01*
G01X129554D02*
X131799D01*
X131800Y129330*
X150080Y133268D02*
X150293D01*
X148747D02*
X150018D01*
X148747Y131299D02*
X149664D01*
X150468Y132103*
Y133268*
X142153Y135925D02*
Y139016D01*
X144121Y137047*
Y135925*
G54D33*
X100670Y151170D02*
G03X101184Y150270I1908J493D01*
X100477Y150181I-319J-319*
G01X100000Y150787D02*
X100667D01*
X105847Y145607*
X109670*
X130100Y143787D02*
X135299Y143791D01*
X134130Y143790*
X109670Y145607D02*
X128286D01*
X130103Y143790*
X134130*
G54D37*
X144659Y125250D02*
Y127506D01*
X142403*
Y125250*
X144659*
X142450D02*
Y127506D01*
X142700Y125250D02*
Y127506D01*
X142950Y125250D02*
Y127506D01*
X143200Y125250D02*
Y127506D01*
X143450Y125250D02*
Y127506D01*
X143700Y125250D02*
Y127506D01*
X143950Y125250D02*
Y127506D01*
X144200Y125250D02*
Y127506D01*
X144450Y125250D02*
Y127506D01*
X144659Y120919D02*
Y123175D01*
X142403*
Y120919*
X144659*
X142450D02*
Y123175D01*
X142700Y120919D02*
Y123175D01*
X142950Y120919D02*
Y123175D01*
X143200Y120919D02*
Y123175D01*
X143450Y120919D02*
Y123175D01*
X143700Y120919D02*
Y123175D01*
X143950Y120919D02*
Y123175D01*
X144200Y120919D02*
Y123175D01*
X144450Y120919D02*
Y123175D01*
X140328Y120919D02*
Y123175D01*
X138072*
Y120919*
X140328*
X138200D02*
Y123175D01*
X138450Y120919D02*
Y123175D01*
X138700Y120919D02*
Y123175D01*
X138950Y120919D02*
Y123175D01*
X139200Y120919D02*
Y123175D01*
X139450Y120919D02*
Y123175D01*
X139700Y120919D02*
Y123175D01*
X139950Y120919D02*
Y123175D01*
X140200Y120919D02*
Y123175D01*
X135997Y120919D02*
Y123175D01*
X133741*
Y120919*
X135997*
X133950D02*
Y123175D01*
X134200Y120919D02*
Y123175D01*
X134450Y120919D02*
Y123175D01*
X134700Y120919D02*
Y123175D01*
X134950Y120919D02*
Y123175D01*
X135200Y120919D02*
Y123175D01*
X135450Y120919D02*
Y123175D01*
X135700Y120919D02*
Y123175D01*
X135950Y120919D02*
Y123175D01*
X135997Y125250D02*
Y127506D01*
X133741*
Y125250*
X135997*
X133950D02*
Y127506D01*
X134200Y125250D02*
Y127506D01*
X134450Y125250D02*
Y127506D01*
X134700Y125250D02*
Y127506D01*
X134950Y125250D02*
Y127506D01*
X135200Y125250D02*
Y127506D01*
X135450Y125250D02*
Y127506D01*
X135700Y125250D02*
Y127506D01*
X135950Y125250D02*
Y127506D01*
X135997Y129581D02*
Y131837D01*
X133741*
Y129581*
X135997*
X133950D02*
Y131837D01*
X134200Y129581D02*
Y131837D01*
X134450Y129581D02*
Y131837D01*
X134700Y129581D02*
Y131837D01*
X134950Y129581D02*
Y131837D01*
X135200Y129581D02*
Y131837D01*
X135450Y129581D02*
Y131837D01*
X135700Y129581D02*
Y131837D01*
X135950Y129581D02*
Y131837D01*
X140328Y129581D02*
Y131837D01*
X138072*
Y129581*
X140328*
X138200D02*
Y131837D01*
X138450Y129581D02*
Y131837D01*
X138700Y129581D02*
Y131837D01*
X138950Y129581D02*
Y131837D01*
X139200Y129581D02*
Y131837D01*
X139450Y129581D02*
Y131837D01*
X139700Y129581D02*
Y131837D01*
X139950Y129581D02*
Y131837D01*
X140200Y129581D02*
Y131837D01*
X144659Y129581D02*
Y131837D01*
X142403*
Y129581*
X144659*
X142450D02*
Y131837D01*
X142700Y129581D02*
Y131837D01*
X142950Y129581D02*
Y131837D01*
X143200Y129581D02*
Y131837D01*
X143450Y129581D02*
Y131837D01*
X143700Y129581D02*
Y131837D01*
X143950Y129581D02*
Y131837D01*
X144200Y129581D02*
Y131837D01*
X144450Y129581D02*
Y131837D01*
X139106Y110066D02*
G03X139145Y110378I-182J182D01*
G01X139547Y110187D02*
G03X139106Y110066I-114J-448D01*
G01X129810Y107270D02*
X131760Y105320D01*
X135670*
X138000Y107650*
Y108960*
X139457Y110417*
Y110516*
X127680Y119801D02*
G03X128150Y119488I470J198D01*
X127700Y119185I0J-485*
G01X128150Y119488D02*
X127787D01*
X128160D02*
G03X128806Y119737I-0J962D01*
G01Y119239D02*
G03X128160Y119488I-646J-712D01*
G01X127250Y119478D02*
X127260Y119488D01*
X129653*
X134052Y110117D02*
G03X134123Y110469I-230J230D01*
G01X134389Y110183D02*
G03X134052Y110117I-120J-282D01*
G01X132800Y108200D02*
Y108490D01*
X132805Y108495*
Y108871*
X134450Y110516*
X134460*
X116940Y118148D02*
G03X117400Y117840I460J189D01*
X116940Y117532I0J-497*
G01X117400Y117840D02*
X117037D01*
X120000Y115482D02*
G03X118360Y117840I-7381J-3383D01*
X120173Y116459I6020J6020*
G01X120086Y115970D02*
X118360Y117840D01*
X116500*
X118360D02*
X119597Y116603D01*
Y111791*
X140000Y108606D02*
G03X140161Y108513I107J-0D01*
G01X139839D02*
G03X140000Y108606I54J93D01*
G01X141507Y110112D02*
G03X141575Y110456I-223J223D01*
G01X141851Y110180D02*
G03X141507Y110112I-122J-290D01*
G01X140000Y108000D02*
Y108606D01*
X141910Y110516*
X136144Y109028D02*
G03X136686Y109136I191J459D01*
G01X136687D02*
G03X136579Y108593I351J-352D01*
G01X136687Y109136D02*
X136430Y108879D01*
X137155Y110237D02*
G03X136960Y109945I120J-292D01*
X136765Y110237I-315J0*
G01X136050Y108499D02*
X136960Y109409D01*
Y110516*
X140433Y115984D02*
G03X140184Y115338I713J-646D01*
X139935Y115984I-961J-0*
G01X140184Y116831D02*
Y114456D01*
X140200Y114440*
X139354Y112809D02*
G03X139790Y112947I84J490D01*
X139763Y112634I173J-173*
G01X140508Y114000D02*
G03X140200Y113540I189J-460D01*
X139892Y114000I-497J0*
G01X140200Y113540D02*
Y113903D01*
X139457Y112484D02*
Y112614D01*
X140200Y113357*
Y114440*
X134534Y112817D02*
G03X134833Y112857I123J216D01*
X134792Y112558I176J-176*
G01X136496Y115984D02*
G03X136247Y115338I713J-646D01*
X135998Y115984I-961J-0*
G01X134460Y112484D02*
X134833Y112857D01*
Y113651*
X136247Y115065*
Y116831*
X136960Y113055D02*
G03X137155Y112763I315J-0D01*
G01X136765D02*
G03X136960Y113055I-120J292D01*
G01X138465Y115984D02*
G03X138216Y115338I712J-646D01*
X137967Y115984I-962J-0*
G01X136960Y112484D02*
Y113559D01*
X138216Y114815*
Y116831*
X130884Y111240D02*
X131050D01*
X116300Y106240D02*
G03X114299Y107188I-2326J-2326D01*
G01X114561Y108999D02*
G03X116300Y106240I6951J2453D01*
X114364Y107640I-5330J-5330*
G01X116300Y106240D02*
X114430Y108093D01*
X114496Y108546D02*
G03X116300Y106240I10349J6239D01*
G01X115664Y106877D02*
G03X116206Y106769I351J351D01*
G01X115771Y106334D02*
G03X115663Y106877I-459J191D01*
G01X115663D02*
X115920Y106620D01*
X114597Y111791D02*
Y107943D01*
X116300Y106240*
X111010Y106230D02*
G03X109243Y107163I-2392J-2392D01*
G01X109457Y108570D02*
G03X111010Y106230I6568J2676D01*
X109314Y107632I-8227J-8226*
G01X109385Y108101D02*
G03X111010Y106230I14098J10602D01*
G01X110374Y106867D02*
G03X110916Y106759I351J351D01*
G01X110481Y106324D02*
G03X110373Y106867I-459J191D01*
G01X110373D02*
X110630Y106610D01*
X109597Y111791D02*
Y107643D01*
X111010Y106230*
X146100Y109100D02*
G03X146408Y108640I497J0D01*
G01X145792D02*
G03X146100Y109100I-189J460D01*
G01Y108737*
X146457Y110112D02*
G03X146525Y110456I-223J223D01*
G01X146801Y110180D02*
G03X146457Y110112I-122J-290D01*
G01X146100Y108200D02*
Y109756D01*
X146860Y110516*
X143100Y107900D02*
G03X143408Y107440I497J0D01*
G01X142792D02*
G03X143100Y107900I-189J460D01*
G01Y107537*
X144007Y110112D02*
G03X144075Y110456I-223J223D01*
G01X144351Y110180D02*
G03X144007Y110112I-122J-290D01*
G01X143100Y107000D02*
Y109206D01*
X144410Y110516*
X148874Y115579D02*
G03X148580Y115180I124J-399D01*
X148286Y115579I-418J-0*
G01X148580Y115180D02*
Y115492D01*
X150100Y113055D02*
G03X150295Y112763I315J-0D01*
G01X149905D02*
G03X150100Y113055I-120J292D01*
G01X148580Y116029D02*
Y115180D01*
X150100Y113660*
Y112484*
X149737Y119638D02*
G03X150079Y119039I1267J327D01*
X148171Y119233I-1072J-1072*
G01X150079Y119039D02*
G03X149346Y119536I-1662J-1661D01*
G01X150079Y119039D02*
G03X148954Y119435I-975J-975D01*
G01X150079Y119039D02*
G03X148563Y119334I-977J-976D01*
G01X154000Y112740D02*
G03X154291Y112352I404J0D01*
G01X153709D02*
G03X154000Y112740I-113J388D01*
G01Y112437*
X148747Y119488D02*
X149630D01*
X150250Y118868*
Y116490*
X154000Y112740*
Y111900*
X146339Y115984D02*
G03X146090Y115338I712J-646D01*
X145841Y115984I-962J-0*
G01X146860Y113055D02*
G03X147055Y112763I315J-0D01*
G01X146665D02*
G03X146860Y113055I-120J292D01*
G01X146090Y116831D02*
Y114777D01*
X146860Y114007*
Y112484*
X144370Y115984D02*
G03X144121Y115338I713J-646D01*
X143872Y115984I-961J-0*
G01X144410Y113055D02*
G03X144605Y112763I315J-0D01*
G01X144215D02*
G03X144410Y113055I-120J292D01*
G01X144121Y116831D02*
Y114740D01*
X144410Y114452*
Y112484*
X141910Y113055D02*
G03X142105Y112763I315J-0D01*
G01X141715D02*
G03X141910Y113055I-120J292D01*
G01X142402Y115984D02*
G03X142153Y115338I712J-646D01*
X141904Y115984I-962J-0*
G01X141910Y112484D02*
Y113724D01*
X142153Y113967*
Y116831*
X150435Y110456D02*
G03X150503Y110112I291J-121D01*
X150159Y110180I-222J-222*
G01X152375Y108250D02*
G03X152999Y108614I0J716D01*
G01X152771Y107950D02*
G03X152375Y108250I-396J-111D01*
G01X152740Y108237*
X150100Y110516D02*
X152366Y108250D01*
X153170*
X153270Y108150*
X161604Y114726D02*
G03X161799Y114435I315J0D01*
G01X161409D02*
G03X161604Y114726I-120J291D01*
G01X161982Y116971D02*
G03X161604Y116109I794J-862D01*
X161188Y116971I-1100J0*
G01X161604Y116109D02*
X161585Y116971D01*
X161604Y114156D02*
Y118640D01*
X161851Y118887*
X140233Y137936D02*
G03X140184Y137766I23J-99D01*
X140015Y137717I-71J-71*
G01X140184Y137418D02*
G03X140433Y136772I962J0D01*
G01X139935D02*
G03X140184Y137418I-712J646D01*
G01X139760Y138190D02*
X140184Y137766D01*
Y135925*
X135308Y139250D02*
G03X135000Y138790I189J-460D01*
X134692Y139250I-497J0*
G01X135000Y138790D02*
Y139153D01*
X136247Y137263D02*
G03X136483Y136802I568J-0D01*
G01X136012D02*
G03X136247Y137263I-332J461D01*
G01X135000Y139690D02*
Y138510D01*
X136247Y137263*
Y135925*
X112440Y123098D02*
G03X112900Y122790I460J189D01*
X112440Y122482I0J-497*
G01X112900Y122790D02*
X112537D01*
X129037Y123503D02*
G03X128296Y123077I422J-1589D01*
X128681Y123603I-1502J1502*
G01X112000Y122790D02*
X128010D01*
X128645Y123425*
X129653*
X113940Y124648D02*
G03X114400Y124340I460J189D01*
X113940Y124032I0J-497*
G01X114400Y124340D02*
X114037D01*
X129058Y125462D02*
G03X128298Y125028I413J-1607D01*
X128678Y125567I-1370J1370*
G01X113500Y124340D02*
X127610D01*
X128664Y125394*
X129653*
X112440Y129298D02*
G03X112900Y128990I460J189D01*
X112440Y128682I0J-497*
G01X112900Y128990D02*
X112537D01*
X129232Y133260D02*
G03X128341Y132781I352J-1721D01*
X128656Y133404I-790J790*
G01X128944Y133332D02*
G03X128341Y132781I5811J-6965D01*
G01X112000Y128990D02*
X124550D01*
X128828Y133268*
X129653*
X112440Y126198D02*
G03X112900Y125890I460J189D01*
X112440Y125582I0J-497*
G01X112900Y125890D02*
X112537D01*
X129034Y127442D02*
G03X128296Y127016I423J-1586D01*
X128682Y127541I-1527J1527*
G01X112000Y125890D02*
X127170D01*
X128642Y127362*
X129653*
X113940Y127748D02*
G03X114400Y127440I460J189D01*
X113940Y127132I0J-497*
G01X114400Y127440D02*
X114037D01*
X129119Y131340D02*
G03X128308Y130888I390J-1654D01*
X128670Y131460I-1093J1092*
G01X113500Y127440D02*
X124860D01*
X128719Y131299*
X129653*
X113940Y121548D02*
G03X114400Y121240I460J189D01*
X113940Y120932I0J-497*
G01X114400Y121240D02*
X114037D01*
X128252D02*
G03X128735Y121625I-0J497D01*
G01X128886Y121158D02*
G03X128252Y121240I-634J-2405D01*
G01X113500D02*
X129436D01*
X129653Y121457*
X128690Y136348D02*
G03X129150Y136040I460J189D01*
X128690Y135732I0J-497*
G01X129150Y136040D02*
X128787D01*
X134527Y135075D02*
G03X134279Y134454I654J-621D01*
X134031Y135075I-903J-0*
G01X128250Y136040D02*
X129515D01*
X131690Y133865*
X133690*
X134279Y134454*
Y135925*
X123094Y132269D02*
G03X123636Y132377I191J459D01*
G01X123637D02*
G03X123529Y131834I351J-352D01*
G01X123637Y132377D02*
X123380Y132120D01*
X125113Y133105D02*
G03X123000Y131740I2119J-5597D01*
X123795Y140921I-5064J5064*
G01X125030Y133594D02*
G03X123000Y131740I19358J-23242D01*
X124948Y134082I-11772J11772*
G01X123000Y131740D02*
G03X124866Y134571I-5955J5955D01*
G01X123000Y131740D02*
G03X124783Y135059I-4622J4622D01*
G01X123000Y131740D02*
G03X124701Y135548I-4128J4128D01*
G01X123000Y131740D02*
G03X124619Y136036I-3936J3936D01*
G01X123000Y131740D02*
G03X124536Y136525I-3887J3887D01*
G01X123000Y131740D02*
G03X124454Y137013I-3917J3917D01*
G01X123000Y131740D02*
G03X124372Y137502I-3995J3995D01*
G01X123000Y131740D02*
G03X124289Y137990I-4105J4105D01*
G01X123000Y131740D02*
G03X124207Y138479I-4236J4236D01*
G01X123000Y131740D02*
G03X124125Y138967I-4383J4383D01*
G01X123000Y131740D02*
G03X124042Y139456I-4542J4542D01*
G01X123000Y131740D02*
G03X123960Y139944I-4709J4709D01*
G01X123000Y131740D02*
G03X123878Y140433I-4884J4884D01*
G01X123000Y131740D02*
X124597Y133337D01*
Y137816*
X132310Y137418D02*
G03X132559Y136772I962J0D01*
G01X132061D02*
G03X132310Y137418I-712J646D01*
G01X132663Y137804D02*
G03X132771Y138346I-351J351D01*
G01X133206Y137911D02*
G03X132664Y137804I-191J-459D01*
G01X132663D02*
X132920Y138060D01*
X132310Y135925D02*
Y137450D01*
X133300Y138440*
X138216Y137418D02*
G03X138465Y136772I961J0D01*
G01X137967D02*
G03X138216Y137418I-713J646D01*
G01Y138791D02*
G03X137888Y139293I-549J-0D01*
G01X138510Y139220D02*
G03X138216Y138791I166J-429D01*
G01Y139154*
Y135925D02*
Y139656D01*
X138250Y139690*
X109510Y145556D02*
X109561Y145607D01*
X109670*
X116200Y131740D02*
G03X114082Y133105I-4213J-4213D01*
G01X114328Y134563D02*
G03X116200Y131740I7903J3208D01*
X114164Y133591I-20455J-20454*
G01X114246Y134077D02*
G03X116200Y131740I14064J9773D01*
G01X115564Y132377D02*
G03X116106Y132269I351J351D01*
G01X115671Y131834D02*
G03X115563Y132377I-459J191D01*
G01X115563D02*
X115820Y132120D01*
X114597Y137816D02*
Y133343D01*
X116200Y131740*
X120356Y133465D02*
G03X119597Y131843I1354J-1622D01*
X118838Y133465I-2113J0*
G01X119850D02*
G03X119597Y131843I5075J-1622D01*
X119344Y133465I-5328J0*
G01X119597Y132640D02*
G03X119904Y132184I493J0D01*
G01X119288Y132178D02*
G03X119597Y132640I-192J462D01*
G01Y132278*
Y137816D02*
Y131843D01*
X119600Y131740*
X150018Y133268D02*
X150080D01*
X146887Y123771D02*
G03X147521Y123425I634J408D01*
X147135Y123114I0J-396*
G01X147521Y123425D02*
G03X147158Y123401I0J-2757D01*
G01X147254Y123425D02*
G03X147900Y123674I0J962D01*
G01Y123176D02*
G03X147254Y123425I-646J-712D01*
G01X146630Y123299D02*
X146756Y123425D01*
X148747*
X147040Y125701D02*
G03X147500Y125393I460J189D01*
X147040Y125085I0J-497*
G01X147500Y125393D02*
X147137D01*
X146600D02*
X148120D01*
Y125394*
X148747*
X149594Y129580D02*
G03X150240Y129331I646J712D01*
X149594Y129082I0J-962*
G01X151243Y129331D02*
G03X151656Y129528I0J531D01*
G01X151477Y129120D02*
G03X151243Y129331I-234J-25D01*
G01X148747D02*
X151693D01*
X151803Y129220*
X149767Y127438D02*
G03X149942Y126767I660J-186D01*
X148153Y127102I-1138J-1138*
G01X149942Y126767D02*
X149364Y127354D01*
X149942Y126767D02*
G03X148960Y127270I-1269J-1269D01*
G01X149942Y126767D02*
G03X148557Y127186I-1083J-1083D01*
G01X159523Y121323D02*
G03X160132Y120802I3616J3615D01*
G01Y120543D02*
G03X159523Y121323I-3491J-2102D01*
G01X148747Y127362D02*
X149347D01*
X153839Y122870*
X157975*
X161851Y118995*
Y118887*
X149747Y121587D02*
G03X150050Y120957I1050J117D01*
X148165Y121200I-1100J-1100*
G01X150050Y120957D02*
G03X149352Y121490I-2346J-2346D01*
G01X150050Y120957D02*
G03X148956Y121394I-1056J-1056D01*
G01X150050Y120957D02*
G03X148561Y121297I-1015J-1016D01*
G01X155737Y112423D02*
G03X156365Y112068I956J957D01*
G01X155676Y111931D02*
G03X155737Y112423I-162J270D01*
G01X155908Y112102D02*
G03X155737Y112423I-614J-121D01*
G01X148747Y121457D02*
X149550D01*
X151250Y119757*
Y116910*
X156100Y112060*
Y111600*
X152082Y127447D02*
G03X152373Y127252I291J120D01*
X152082Y127057I0J-315*
G01X154915Y127003D02*
G03X155211Y126874I311J311D01*
G01Y126601D02*
G03X154915Y127003I-1477J-779D01*
G01X151803Y127252D02*
X154666D01*
X155944Y125973*
X155945*
X146641Y146490D02*
Y146577D01*
X146644Y146580*
X156679Y126876D02*
G03X156976Y127021I-62J504D01*
X156679Y126620I1189J-1190*
G01X160354Y130399D02*
G03X160597Y130786I-728J728D01*
G01X160664Y130346D02*
G03X160354Y130399I-174J-84D01*
G01X155945Y125973D02*
Y125990D01*
X160560Y130605*
X160886*
X129590Y143041D02*
X137018D01*
X138124Y144148*
X137422Y144850*
X129590*
Y143041*
X143060Y137670D02*
X141894D01*
X141500Y138064*
Y138744*
X137994Y142250*
X138945Y143201*
X143060Y139086*
Y137670*
X129590Y143940D02*
X137916D01*
X129590Y144390D02*
X137882D01*
X129590Y143490D02*
X137466D01*
X129590Y144840D02*
X137432D01*
X141225Y139019D02*
X143060D01*
X141500Y138569D02*
X143060D01*
X141500Y138119D02*
X143060D01*
X140775Y139469D02*
X142678D01*
X140325Y139919D02*
X142228D01*
X139875Y140369D02*
X141778D01*
X139425Y140819D02*
X141328D01*
X138975Y141269D02*
X140878D01*
X138525Y141719D02*
X140428D01*
X138075Y142169D02*
X139978D01*
X138362Y142619D02*
X139528D01*
X138812Y143069D02*
X139078D01*
X169816Y153884D02*
Y155174D01*
G03X169741Y155249I-75J0*
G01X101125*
G03X101050Y155174I0J-75*
G01Y153884*
G03X101125Y153809I75J0*
G01X102772*
X103022Y153559D02*
G03X102772Y153809I-250J0D01*
G01X103022Y153559D02*
Y150938D01*
G03X103044Y150885I75J0*
G01X106550Y147379*
G03X106603Y147357I53J53*
G01X109670*
X128286*
X129523Y146845D02*
G03X128286Y147357I-1237J-1238D01*
G01X129523Y146845D02*
X130496Y145872D01*
G03X130549Y145850I53J53*
G01X137422*
X138130Y145557D02*
G03X137422Y145850I-708J-707D01*
G01X138130Y145557D02*
X138832Y144855D01*
X139120Y144240D02*
G03X138832Y144855I-996J-92D01*
G01X139120Y144240D02*
G03X139177Y144174I75J7D01*
G01X139652Y143909D02*
G03X139177Y144174I-707J-708D01*
G01X139652Y143909D02*
X140072Y143489D01*
G03X140200Y143542I53J53*
G01Y144390*
X140273Y144567D02*
G03X140200Y144390I177J-177D01*
G01X140273Y144567D02*
X140893Y145187D01*
X141070Y145260D02*
G03X140893Y145187I0J-250D01*
G01X141070Y145260D02*
X142020D01*
X142197Y145187D02*
G03X142020Y145260I-177J-177D01*
G01X142197Y145187D02*
X142807Y144577D01*
X142880Y144400D02*
G03X142807Y144577I-250J0D01*
G01X142880Y144400D02*
Y142972D01*
G03X142902Y142918I75J-0*
G01X143074Y142747*
X143147Y142570D02*
G03X143074Y142747I-250J0D01*
G01X143147Y142570D02*
Y142113D01*
X143074Y141936D02*
G03X143147Y142113I-177J177D01*
G01X143074Y141936D02*
X143004Y141866D01*
X142402Y141265*
G03Y141159I53J-53*
G01X143767Y139794*
X144060Y139086D02*
G03X143767Y139794I-1000J0D01*
G01X144060Y139086D02*
Y138912D01*
G03X144202Y138879I75J0*
G01X144522Y139356D02*
G03X144202Y138879I1568J-1397D01*
G01X144522Y139356D02*
G03X144541Y139406I-56J50D01*
G01Y140770*
Y142173*
Y142174*
X144579Y142605D02*
G03X144541Y142174I2062J-398D01*
G01X144579Y142605D02*
G03X144580Y142619I-74J14D01*
G01Y142797*
X144629Y143172D02*
G03X144580Y142797I1421J-375D01*
G01X144629Y143172D02*
G03Y143210I-73J19D01*
G01X144580Y143585D02*
G03X144629Y143210I1470J-0D01*
G01X144580Y143585D02*
Y143763D01*
G03X144579Y143777I-75J-0*
G01X144541Y144175D02*
G03X144579Y143777I2100J0D01*
G01X144541Y144175D02*
Y145317D01*
G03X144466Y145392I-75J-0*
G01X143948*
X143771Y145465D02*
G03X143948Y145392I177J177D01*
G01X143771Y145465D02*
X143573Y145663D01*
X143500Y145840D02*
G03X143573Y145663I250J0D01*
G01X143500Y145840D02*
Y146295D01*
G03X143478Y146348I-75J0*
G01X142838Y146988*
G03X142785Y147010I-53J-53*
G01X142314*
X142137Y147083D02*
G03X142314Y147010I177J177D01*
G01X142137Y147083D02*
X141433Y147787D01*
X141360Y147963D02*
G03X141433Y147787I250J0D01*
G01X141360Y147963D02*
Y148986D01*
X141433Y149163D02*
G03X141360Y148986I177J-177D01*
G01X141433Y149163D02*
X141978Y149707D01*
X142154Y149780D02*
G03X141978Y149707I0J-250D01*
G01X142154Y149780D02*
X143238D01*
X143415Y149707D02*
G03X143238Y149780I-177J-177D01*
G01X143415Y149707D02*
X144060Y149062D01*
X144134Y148885D02*
G03X144060Y149062I-250J0D01*
G01X144134Y148885D02*
Y148378D01*
G03X144156Y148325I75J0*
G01X144625Y147856*
G03X144750Y147888I53J53*
G01X149590Y151500D02*
G03X144750Y147888I0J-5049D01*
G01X149590Y151500D02*
X150297D01*
X153494Y150743D02*
G03X150297Y151500I-3197J-6366D01*
G01X153494Y150743D02*
G03X154004Y150585I727J1448D01*
X154014Y150584I10J74*
G01X155719*
X155720*
G03X155773Y150606I0J75*
G01X156230Y151065*
X156441Y151137D02*
G03X156230Y151065I-34J-248D01*
G01X156441Y151137D02*
G03X156451Y151136I10J74D01*
G01X163692*
X163942Y150886D02*
G03X163692Y151136I-250J-0D01*
G01X163942Y150886D02*
Y143602D01*
X163692Y143352D02*
G03X163942Y143602I-0J250D01*
G01X163692Y143352D02*
X156408D01*
X156272Y143392D02*
G03X156408Y143352I136J210D01*
G01X156272Y143392D02*
X156230Y143427*
G03X156272Y143393I176J176D01*
G01X156230Y143427D02*
X155774Y143882D01*
G03X155721Y143904I-53J-53*
G01X155719*
X151979*
X150509Y145374D02*
G03X151979Y143904I1470J0D01*
G01X150509Y145374D02*
Y147222D01*
G03X150438Y147297I-75J-0*
X150297Y147300I-141J-2920*
G01X149590*
G03X148742Y146488I0J-849*
G01X148742*
G03X148741Y146451I848J-37*
G01Y144175*
X148703Y143777D02*
G03X148741Y144175I-2062J398D01*
G01X148703Y143777D02*
G03X148702Y143763I74J-14D01*
G01Y143585*
X148653Y143210D02*
G03X148702Y143585I-1421J375D01*
G01X148653Y143210D02*
G03Y143172I73J-19D01*
G01X148702Y142797D02*
G03X148653Y143172I-1470J0D01*
G01X148702Y142797D02*
Y142620D01*
G03X148703Y142606I75J0*
G01X148741Y142206D02*
G03X148703Y142606I-2100J0D01*
G01X148741Y142206D02*
Y140770D01*
Y139890*
Y138510*
X148209Y137113D02*
G03X148741Y138510I-1568J1397D01*
G01X148209Y137113D02*
G03X148190Y137063I56J-50D01*
G01Y135925*
X148114Y135365D02*
G03X148190Y135925I-2024J560D01*
G01X148114Y135365D02*
G03X148111Y135345I72J-20D01*
G01Y135197*
X148039Y134664D02*
G03X148111Y135197I-1949J533D01*
G01X148039Y134664D02*
G03X148112Y134569I73J-20D01*
G01X149314*
G03X149351Y134578I0J75*
G01X150080Y134768D02*
G03X149351Y134578I0J-1500D01*
G01X150080Y134768D02*
X151775D01*
X152835Y134328D02*
G03X151775Y134768I-1060J-1060D01*
G01X152835Y134328D02*
X153380Y133784D01*
G03X153433Y133762I53J53*
G01X154831*
X156299*
X157423*
G03X157438Y133763I-0J75*
G01X157423Y130760D02*
G03X157438Y133763I337J1500D01*
G01X157423Y130760D02*
G03X157407Y130762I-16J-73D01*
G01X156299*
X154831*
X153858*
X152781*
X151720Y131201D02*
G03X152781Y130762I1061J1061D01*
G01X151720Y131201D02*
X151572Y131349D01*
G03X151459Y131342I-53J-53*
G01X151352Y131219D02*
G03X151459Y131342I-884J884D01*
G01X151352Y131219D02*
X150622Y130490D01*
G03X150724Y130380I53J-53*
G01X151212Y130561D02*
G03X150724Y130380I0J-750D01*
G01X151212Y130561D02*
X152394D01*
X153144Y129811D02*
G03X152394Y130561I-750J-0D01*
G01X153144Y129811D02*
Y128630D01*
X153091Y128354D02*
G03X153144Y128630I-697J276D01*
G01X153091Y128354D02*
G03X153161Y128252I70J-27D01*
G01X153173*
G03X153246Y128310I0J75*
G01X153977Y128889D02*
G03X153246Y128310I-0J-750D01*
G01X153977Y128889D02*
X157398D01*
G03X157451Y128911I0J75*
G01X159523Y130982*
G03X159545Y131035I-53J53*
G01Y131196*
X160295Y131946D02*
G03X159545Y131196I0J-750D01*
G01X160295Y131946D02*
X161476D01*
X162226Y131196D02*
G03X161476Y131946I-750J-0D01*
G01X162226Y131196D02*
Y130014D01*
X161476Y129264D02*
G03X162226Y130014I0J750D01*
G01X161476Y129264D02*
X160665D01*
G03X160612Y129242I-0J-75*
G01X158686Y127316*
G03X158664Y127263I53J-53*
G01Y124989*
X158660Y124918D02*
G03X158664Y124989I-746J71D01*
G01X158660Y124918D02*
G03Y124911I75J-7D01*
G01Y123631*
G03X158682Y123578I75J-0*
G01X158683Y123577D02*
X160230Y122030D01*
G03X160456Y121820I2909J2908*
X160505Y121802I49J57*
G01X163819*
X164569Y121052D02*
G03X163819Y121802I-750J0D01*
G01X164569Y121052D02*
Y116721D01*
X163819Y115971D02*
G03X164569Y116721I0J750D01*
G01X163819Y115971D02*
X163115D01*
G03X163040Y115896I0J-75*
G01Y115341*
X162918Y115127D02*
G03X163040Y115341I-128J214D01*
G01X162918Y115127D02*
G03X162888Y115034I39J-64D01*
G01X162945Y114747D02*
G03X162888Y115034I-750J-0D01*
G01X162945Y114747D02*
Y113565D01*
X162195Y112815D02*
G03X162945Y113565I-0J750D01*
G01X162195Y112815D02*
X161014D01*
X160264Y113565D02*
G03X161014Y112815I750J0D01*
G01X160264Y113565D02*
Y114747D01*
X160383Y115153D02*
G03X160264Y114747I631J-406D01*
G01X160383Y115153D02*
G03X160387Y115228I-63J41D01*
G01X160360Y115341D02*
G03X160387Y115228I250J0D01*
G01X160360Y115341D02*
Y115896D01*
G03X160285Y115971I-75J0*
G01X159882*
X159132Y116721D02*
G03X159882Y115971I750J0D01*
G01X159132Y116721D02*
Y120220D01*
G03X159118Y120264I-75J-0*
X158816Y120616I-2477J-1823*
G01X157583Y121848*
G03X157530Y121870I-53J-53*
G01X153839*
X153132Y122163D02*
G03X153839Y121870I707J707D01*
G01X153132Y122163D02*
X150648Y124647D01*
G03X150534Y124637I-53J-53*
G01X150397Y124475D02*
G03X150534Y124637I-921J919D01*
G01X150397Y124475D02*
G03X150375Y124422I53J-53D01*
G01Y124397*
G03X150397Y124344I75J-0*
G01Y122507D02*
G03Y124344I-921J918D01*
G01Y122507D02*
G03X150375Y122454I53J-53D01*
G01Y122428*
G03X150397Y122375I75J0*
G01X150757Y121683D02*
G03X150397Y122375I-1281J-226D01*
G01X150757Y121683D02*
G03X150778Y121643I74J13D01*
G01X151957Y120464*
X152250Y119757D02*
G03X151957Y120464I-1000J-0D01*
G01X152250Y119757D02*
Y117355D01*
G03X152272Y117302I75J0*
G01X156444Y113131*
G03X156489Y113092I249J249*
X156513Y113081I44J61*
G01X154935Y110597D02*
G03X156513Y113081I1165J1003D01*
G01X154935Y110597D02*
G03X154837Y110611I-57J-49D01*
G01X152638Y112613D02*
G03X154837Y110611I1362J-713D01*
G01X152638Y112613D02*
G03X152625Y112701I-66J35D01*
G01X151095Y114230*
G03X150977Y114141I-53J-53*
G01X151097Y113739D02*
G03X150977Y114141I-997J-79D01*
G01X151097Y113739D02*
G03X151128Y113684I75J6D01*
G01X151441Y113075D02*
G03X151128Y113684I-750J-0D01*
G01X151441Y113075D02*
Y111894D01*
X151350Y111536D02*
G03X151441Y111894I-659J358D01*
G01X151350Y111536D02*
G03Y111464I66J-36D01*
G01X151441Y111106D02*
G03X151350Y111464I-750J0D01*
G01X151441Y111106D02*
Y110620D01*
G03X151463Y110567I75J0*
G01X152493Y109537*
G03X152579Y109524I53J54*
G01X151980Y107314D02*
G03X152579Y109524I1290J836D01*
G01X151980Y107314D02*
G03X151948Y107341I-63J-41D01*
G01X151659Y107543D02*
G03X151948Y107341I707J707D01*
G01X151659Y107543D02*
X150048Y109153D01*
G03X149995Y109175I-53J-53*
G01X149509*
X148759Y109925D02*
G03X149509Y109175I750J0D01*
G01X148759Y109925D02*
Y111106D01*
X148850Y111464D02*
G03X148759Y111106I659J-358D01*
G01X148850Y111464D02*
G03Y111536I-66J36D01*
G01X148759Y111894D02*
G03X148850Y111536I750J-0D01*
G01X148759Y111894D02*
Y113075D01*
X148846Y113425D02*
G03X148759Y113075I663J-350D01*
G01X148846Y113425D02*
G03X148833Y113513I-66J35D01*
G01X147926Y114420*
G03X147802Y114342I-53J-53*
G01X147860Y114007D02*
G03X147802Y114342I-1000J-0D01*
G01X147860Y114007D02*
Y113743D01*
G03X147891Y113682I75J-0*
G01X148201Y113075D02*
G03X147891Y113682I-750J-0D01*
G01X148201Y113075D02*
Y111894D01*
X148110Y111536D02*
G03X148201Y111894I-659J358D01*
G01X148110Y111536D02*
G03Y111464I66J-36D01*
G01X148201Y111106D02*
G03X148110Y111464I-750J0D01*
G01X148201Y111106D02*
Y109925D01*
X147451Y109175D02*
G03X148201Y109925I-0J750D01*
G01X147451Y109175D02*
X147438D01*
G03X147376Y109058I-0J-75*
G01X144824D02*
G03X147376I1276J-858D01*
G01X144824D02*
G03X144762Y109175I-62J42D01*
G01X144515*
G03X144462Y109153I-0J-75*
G01X144122Y108813*
G03X144100Y108760I53J-53*
G01Y108202*
G03X144125Y108146I75J-0*
G01X142075D02*
G03X144125I1025J-1146D01*
G01X142075D02*
G03X142100Y108202I-50J56D01*
G01Y109100*
G03X142025Y109175I-75J0*
G01X142015*
G03X141962Y109153I-0J-75*
G01X141449Y108640*
G03X141432Y108560I53J-53*
G01X138852Y106977D02*
G03X141432Y108560I1148J1023D01*
G01X138852Y106977D02*
G03X138740Y106978I-56J-50D01*
G01X138707Y106943D02*
G03X138740Y106978I-707J707D01*
G01X138707Y106943D02*
X136377Y104613D01*
X135670Y104320D02*
G03X136377Y104613I0J1000D01*
G01X135670Y104320D02*
X131760D01*
X131053Y104613D02*
G03X131760Y104320I707J707D01*
G01X131053Y104613D02*
X129668Y105998D01*
G03X129615Y106020I-53J-53*
G01X125270*
X125210Y106022D02*
G03X125270Y106020I60J1248D01*
G01X125210Y106022D02*
G03X125183Y106018I-4J-75D01*
G01X122647Y107878D02*
G03X125183Y106018I1950J-0D01*
G01X122647Y107878D02*
Y115703D01*
X126547D02*
G03X122647I-1950J0D01*
G01X126547D02*
Y108595D01*
G03X126622Y108520I75J0*
G01X128485*
G03X128560Y108595I-0J75*
G01Y109359*
X128926Y110243D02*
G03X128560Y109359I884J-884D01*
G01X128926Y110243D02*
X129522Y110839D01*
G03X129544Y110892I-53J53*
G01Y111831*
X129959Y112502D02*
G03X129544Y111831I335J-671D01*
G01X129959Y112502D02*
G03Y112636I-33J67D01*
G01X129544Y113307D02*
G03X129959Y112636I750J0D01*
G01X129544Y113307D02*
Y114489D01*
X129939Y115150D02*
G03X129544Y114489I355J-661D01*
G01X129939Y115150D02*
G03X129959Y115165I-35J66D01*
G01X130000Y115208D02*
G03X129959Y115165I884J-884D01*
G01X130000Y115208D02*
X130987Y116195D01*
G03X131009Y116248I-53J53*
G01Y117559*
X131057Y117911D02*
G03X131009Y117559I1253J-352D01*
G01X131057Y117911D02*
G03X131060Y117931I-72J20D01*
G01Y118121*
G03X131047Y118164I-75J0*
G01X130985Y118260D02*
G03X131047Y118164I1325J780D01*
G01X130985Y118260D02*
G03X130891Y118291I-64J-38D01*
G01X130381Y118187D02*
G03X130891Y118291I0J1301D01*
G01X130381Y118187D02*
X128924D01*
X128339Y118326D02*
G03X128924Y118187I585J1162D01*
G01X128339Y118326D02*
G03X128256Y118316I-33J-67D01*
G01X125859Y120133D02*
G03X128256Y118316I1391J-655D01*
G01X125859Y120133D02*
G03X125791Y120240I-68J32D01*
G01X114702*
G03X114646Y120215I-0J-75*
G01X111964Y121184D02*
G03X114646Y120215I1536J56D01*
G01X111964Y121184D02*
G03X111894Y121256I-75J-2D01*
G01X111576Y124268D02*
G03X111894Y121256I424J-1478D01*
G01X111576Y124268D02*
G03Y124412I-20J72D01*
G01Y127368D02*
G03Y124412I424J-1478D01*
G01Y127368D02*
G03Y127512I-20J72D01*
G01X113146Y130015D02*
G03X111576Y127512I-1146J-1025D01*
G01X113146Y130015D02*
G03X113202Y129990I56J50D01*
G01X124105*
G03X124158Y130012I-0J75*
G01X127627Y133482*
G03X127648Y133520I-53J53*
G01X128226Y134366D02*
G03X127648Y133520I698J-1098D01*
G01X128226Y134366D02*
G03X128189Y134504I-40J63D01*
G01X129396Y137065D02*
G03X128189Y134504I-1146J-1025D01*
G01X129396Y137065D02*
G03X129452Y137040I56J50D01*
G01X129515*
X130222Y136747D02*
G03X129515Y137040I-707J-707D01*
G01X130222Y136747D02*
X130881Y136088D01*
G03X131009Y136141I53J53*
G01Y136654*
X131296Y137468D02*
G03X131009Y136654I1014J-814D01*
G01X131296Y137468D02*
G03X131312Y137511I-59J47D01*
G01X131603Y138158D02*
G03X131312Y137511I707J-708D01*
G01X131603Y138158D02*
X131743Y138298D01*
G03X131765Y138355I-53J53*
G01X133422Y139973D02*
G03X131765Y138355I-122J-1533D01*
G01X133422Y139973D02*
G03X133501Y140031I6J75D01*
G01X136237Y138777D02*
G03X133501Y140031I-1237J913D01*
G01X136237Y138777D02*
G03X136244Y138680I60J-44D01*
G01X136954Y137970*
X137078Y137819D02*
G03X136954Y137970I-831J-556D01*
G01X137078Y137819D02*
G03X137216Y137861I63J42D01*
G01Y138520*
G03X137192Y138574I-75J-0*
G01X137602Y141084D02*
G03X137192Y138574I648J-1394D01*
G01X137602Y141084D02*
G03X137624Y141206I-31J69D01*
G01X137286Y141543*
X137029Y141986D02*
G03X137286Y141543I965J264D01*
G01X137029Y141986D02*
G03X136957Y142041I-72J-20D01*
G01X135301*
X135301*
X135301*
X134132Y142040*
X134130*
X133771*
X133771*
X131675Y142039*
G03X131600Y141964I0J-75*
G01Y139335*
G03X131602Y139319I75J0*
G01X128598D02*
G03X131602I1502J-329D01*
G01X128598D02*
G03X128600Y139335I-73J16D01*
G01Y142787*
G03X128578Y142840I-75J0*
G01X127583Y143835*
G03X127530Y143857I-53J-53*
G01X109670*
X105847*
X104610Y144370D02*
G03X105847Y143857I1237J1237D01*
G01X104610Y144370D02*
X103150Y145829D01*
G03X103022Y145776I-53J-53*
G01Y141932*
Y141929*
X103022*
Y141926*
Y136027*
Y136024*
Y136023*
Y136021*
Y130121*
Y130118*
X103022*
Y130115*
Y124216*
Y124213*
Y124212*
Y124210*
Y118310*
Y118307*
X103022*
Y118304*
Y112405*
Y112402*
Y112401*
Y112399*
Y106499*
X102772Y106249D02*
G03X103022Y106499I0J250D01*
G01X102772Y106249D02*
X101125D01*
G03X101050Y106174I0J-75*
G01Y101125*
G03X101125Y101050I75J0*
G01X167769*
G03X167844Y101125I0J75*
G01Y106493*
X167844*
Y106496*
X167844*
Y106499*
X167844*
Y112399*
X167844*
Y112401*
Y112402*
Y112405*
Y112404*
Y118304*
X167844*
Y118307*
X167844*
Y118310*
X167844*
Y124210*
X167844*
Y124212*
Y124213*
Y124216*
Y124215*
Y130115*
X167844*
Y130118*
X167844*
Y130121*
X167844*
Y136021*
X167844*
Y136023*
Y136024*
Y136027*
Y136026*
Y141926*
X167844*
Y141929*
X167844*
Y141932*
X167844*
Y147832*
X167844*
Y147834*
Y147835*
Y147838*
Y147837*
Y153559*
X168094Y153809D02*
G03X167844Y153559I0J-250D01*
G01X168094Y153809D02*
X169741D01*
G03X169816Y153884I0J75*
G01X133125Y111194D02*
G03X132997Y111255I-75J8D01*
G01X132253Y110511*
G03X132231Y110462I53J-53*
G01X131867Y109648D02*
G03X132231Y110462I-884J884D01*
G01X131867Y109648D02*
X131684Y109466D01*
G03X131787Y109356I53J-53*
G01X132068Y109552D02*
G03X131787Y109356I732J-1352D01*
G01X132068Y109552D02*
G03X132086Y109566I-36J66D01*
G01X132098Y109578D02*
G03X132086Y109566I707J-707D01*
G01X132098Y109578D02*
X133097Y110577D01*
G03X133119Y110630I-53J53*
G01Y111106*
X133125Y111194D02*
G03X133119Y111106I744J-88D01*
G01X135799Y106863D02*
G03X135760Y106989I-54J53D01*
G01X134623Y109071D02*
G03X135760Y106989I1427J-572D01*
G01X134623Y109071D02*
G03X134500Y109151I-70J27D01*
G01Y109152D02*
X134231Y108883D01*
G03X134215Y108800I53J-53*
G01X131644Y109213D02*
G03X134215Y108800I1156J-1013D01*
G01X131644Y109213D02*
G03X131534Y109316I-57J50D01*
G01X131082Y108863*
G03X131060Y108810I53J-53*
G01Y107465*
G03X131082Y107412I75J0*
G01X132152Y106342*
G03X132205Y106320I53J53*
G01X135225*
G03X135278Y106342I-0J75*
G01X135799Y106863*
X144855Y120797D02*
Y131958D01*
G03X144780Y132033I-75J0*
G01X133620*
G03X133545Y131958I-0J-75*
G01Y120797*
G03X133620Y120722I75J0*
G01X144780*
G03X144855Y120797I0J75*
G01X126547Y141728D02*
Y133903D01*
X125131Y132028D02*
G03X126547Y133903I-534J1875D01*
G01X125131Y132028D02*
G03X125120Y132024I21J-72D01*
X124570Y131723I2112J-4516*
X124536Y131663I40J-63*
G01X122675Y133243D02*
G03X124536Y131663I325J-1503D01*
G01X122675Y133243D02*
G03X122731Y133338I-16J73D01*
G01X122647Y133903D02*
G03X122731Y133338I1950J0D01*
G01X122647Y133903D02*
Y141728D01*
X126547D02*
G03X122647I-1950J0D01*
G01X121547D02*
Y133903D01*
X120981Y132530D02*
G03X121547Y133903I-1384J1373D01*
G01X120981Y132530D02*
G03X120968Y132442I53J-53D01*
G01X118230Y132439D02*
G03X120968Y132442I1370J-699D01*
G01X118230Y132439D02*
G03X118217Y132526I-66J34D01*
G01X117647Y133903D02*
G03X118217Y132526I1950J0D01*
G01X117647Y133903D02*
Y141728D01*
X121547D02*
G03X117647I-1950J0D01*
G01X114665Y131663D02*
G03X116520Y133244I1535J77D01*
G01X114665Y131663D02*
G03X114630Y131722I-75J-4D01*
X114079Y132022I-2643J-4195*
X114068Y132026I-31J-68*
G01X112647Y133903D02*
G03X114068Y132026I1950J0D01*
G01X112647Y133903D02*
Y141728D01*
X116547D02*
G03X112647I-1950J0D01*
G01X116547D02*
Y133903D01*
X116464Y133339D02*
G03X116547Y133903I-1867J564D01*
G01X116464Y133339D02*
G03X116520Y133244I71J-22D01*
G01X121547Y115703D02*
Y107878D01*
X117647D02*
G03X121547I1950J-0D01*
G01X117647D02*
Y115703D01*
X117937Y116726D02*
G03X117647Y115703I1660J-1023D01*
G01X117937Y116726D02*
G03X117873Y116840I-64J39D01*
G01X117702*
G03X117646Y116815I-0J-75*
G01X116550Y116304D02*
G03X117646Y116815I-50J1536D01*
G01X116550Y116304D02*
G03X116480Y116209I3J-75D01*
G01X116547Y115703D02*
G03X116480Y116209I-1950J0D01*
G01X116547Y115703D02*
Y107878D01*
X116546Y107822D02*
G03X116547Y107878I-1949J56D01*
G01X116546Y107822D02*
G03X116606Y107747I75J-2D01*
G01X114806Y105875D02*
G03X116606Y107747I1494J365D01*
G01X114806Y105875D02*
G03X114729Y105932I-72J-17D01*
G01X112647Y107878D02*
G03X114729Y105932I1950J-0D01*
G01X112647Y107878D02*
Y115703D01*
X114882Y117632D02*
G03X112647Y115703I-285J-1929D01*
G01X114882Y117632D02*
G03X114968Y117713I11J74D01*
G01X117646Y118865D02*
G03X114968Y117713I-1146J-1025D01*
G01X117646Y118865D02*
G03X117702Y118840I56J50D01*
G01X118360*
X119067Y118547D02*
G03X118360Y118840I-707J-707D01*
G01X119067Y118547D02*
G03X120444Y117460I5313J5313D01*
X120451Y117456I39J64*
G01X121547Y115703D02*
G03X120451Y117456I-1950J0D01*
G01X109514Y105876D02*
G03X111588Y107655I1496J354D01*
G01X109514Y105876D02*
G03X109447Y105934I-73J-17D01*
G01X107647Y107878D02*
G03X109447Y105934I1950J-0D01*
G01X107647Y107878D02*
Y115703D01*
X111547D02*
G03X107647I-1950J0D01*
G01X111547D02*
Y107878D01*
X111541Y107730D02*
G03X111547Y107878I-1944J148D01*
G01X111541Y107730D02*
G03X111588Y107655I75J-6D01*
G01X148742Y146488D02*
X148742D01*
X148742*
X133545Y131749D02*
X144855D01*
X133545Y131299D02*
X144855D01*
X133545Y130849D02*
X144855D01*
X133545Y130399D02*
X144855D01*
X133545Y129949D02*
X144855D01*
X133545Y129499D02*
X144855D01*
X133545Y129049D02*
X144855D01*
X133545Y128599D02*
X144855D01*
X133545Y128149D02*
X144855D01*
X133545Y127699D02*
X144855D01*
X133545Y127249D02*
X144855D01*
X133545Y126799D02*
X144855D01*
X133545Y126349D02*
X144855D01*
X133545Y125899D02*
X144855D01*
X133545Y125449D02*
X144855D01*
X133545Y124999D02*
X144855D01*
X133545Y124549D02*
X144855D01*
X133545Y124099D02*
X144855D01*
X133545Y123649D02*
X144855D01*
X133545Y123199D02*
X144855D01*
X133545Y122749D02*
X144855D01*
X133545Y122299D02*
X144855D01*
X133545Y121849D02*
X144855D01*
X133545Y121399D02*
X144855D01*
X133545Y120949D02*
X144855D01*
X133759Y106999D02*
X135715D01*
X131946Y106549D02*
X135484D01*
X134141Y107449D02*
X134927D01*
X134308Y107899D02*
X134635D01*
X134216Y108799D02*
X134542D01*
X134330Y108349D02*
X134520D01*
X131496Y106999D02*
X131841D01*
X131467Y109249D02*
X131661D01*
X131062Y107449D02*
X131459D01*
X131060Y108799D02*
X131384D01*
X131060Y107899D02*
X131292D01*
X131060Y108349D02*
X131270D01*
X132790Y111049D02*
X133119D01*
X132340Y110599D02*
X133112D01*
X132173Y110149D02*
X132669D01*
X131915Y109699D02*
X132219D01*
X101050Y155149D02*
X169816D01*
X101050Y154699D02*
X169816D01*
X101050Y154249D02*
X169816D01*
X102844Y153799D02*
X168022D01*
X103022Y153349D02*
X167844D01*
X103022Y152899D02*
X167844D01*
X103022Y152449D02*
X167844D01*
X103022Y151999D02*
X167844D01*
X103022Y151549D02*
X167844D01*
X163823Y151099D02*
X167844D01*
X163942Y150649D02*
X167844D01*
X163942Y150199D02*
X167844D01*
X163942Y149749D02*
X167844D01*
X163942Y149299D02*
X167844D01*
X163942Y148849D02*
X167844D01*
X163942Y148399D02*
X167844D01*
X163942Y147949D02*
X167844D01*
X163942Y147499D02*
X167844D01*
X163942Y147049D02*
X167844D01*
X163942Y146599D02*
X167844D01*
X163942Y146149D02*
X167844D01*
X163942Y145699D02*
X167844D01*
X163942Y145249D02*
X167844D01*
X163942Y144799D02*
X167844D01*
X163942Y144349D02*
X167844D01*
X163942Y143899D02*
X167844D01*
X163889Y143449D02*
X167844D01*
X148688Y142999D02*
X167844D01*
X148713Y142549D02*
X167844D01*
X148741Y142099D02*
X167844D01*
X148741Y141649D02*
X167844D01*
X148741Y141199D02*
X167844D01*
X148741Y140749D02*
X167844D01*
X148741Y140299D02*
X167844D01*
X148741Y139849D02*
X167844D01*
X148741Y139399D02*
X167844D01*
X148741Y138949D02*
X167844D01*
X148741Y138499D02*
X167844D01*
X148690Y138049D02*
X167844D01*
X148533Y137599D02*
X167844D01*
X148240Y137149D02*
X167844D01*
X148190Y136699D02*
X167844D01*
X148190Y136249D02*
X167844D01*
X148186Y135799D02*
X167844D01*
X148111Y135349D02*
X167844D01*
X148089Y134899D02*
X167844D01*
X152699Y134449D02*
X167844D01*
X153165Y133999D02*
X167844D01*
X158598Y133549D02*
X167844D01*
X159049Y133099D02*
X167844D01*
X159247Y132649D02*
X167844D01*
X159296Y132199D02*
X167844D01*
X161983Y131749D02*
X167844D01*
X162219Y131299D02*
X167844D01*
X162226Y130849D02*
X167844D01*
X162226Y130399D02*
X167844D01*
X162223Y129949D02*
X167844D01*
X162021Y129499D02*
X167844D01*
X160418Y129049D02*
X167844D01*
X159968Y128599D02*
X167844D01*
X159518Y128149D02*
X167844D01*
X159068Y127699D02*
X167844D01*
X158664Y127249D02*
X167844D01*
X158664Y126799D02*
X167844D01*
X158664Y126349D02*
X167844D01*
X158664Y125899D02*
X167844D01*
X158664Y125449D02*
X167844D01*
X158664Y124999D02*
X167844D01*
X158660Y124549D02*
X167844D01*
X158660Y124099D02*
X167844D01*
X158660Y123649D02*
X167844D01*
X159061Y123199D02*
X167844D01*
X159511Y122749D02*
X167844D01*
X159961Y122299D02*
X167844D01*
X160423Y121849D02*
X167844D01*
X164484Y121399D02*
X167844D01*
X164569Y120949D02*
X167844D01*
X164569Y120499D02*
X167844D01*
X164569Y120049D02*
X167844D01*
X164569Y119599D02*
X167844D01*
X164569Y119149D02*
X167844D01*
X164569Y118699D02*
X167844D01*
X164569Y118249D02*
X167844D01*
X164569Y117799D02*
X167844D01*
X164569Y117349D02*
X167844D01*
X164569Y116899D02*
X167844D01*
X164518Y116449D02*
X167844D01*
X164020Y115999D02*
X167844D01*
X163040Y115549D02*
X167844D01*
X162891Y115099D02*
X167844D01*
X162945Y114649D02*
X167844D01*
X162945Y114199D02*
X167844D01*
X162945Y113749D02*
X167844D01*
X162896Y113299D02*
X167844D01*
X162416Y112849D02*
X167844D01*
X157414Y112399D02*
X167844D01*
X157597Y111949D02*
X167844D01*
X157634Y111499D02*
X167844D01*
X157535Y111049D02*
X167844D01*
X157267Y110599D02*
X167844D01*
X156607Y110149D02*
X167844D01*
X152331Y109699D02*
X167844D01*
X154345Y109249D02*
X167844D01*
X154664Y108799D02*
X167844D01*
X154795Y108349D02*
X167844D01*
X154787Y107899D02*
X167844D01*
X154638Y107449D02*
X167844D01*
X154289Y106999D02*
X167844D01*
X144570Y106549D02*
X167844D01*
X144346Y106099D02*
X167844D01*
X143833Y105649D02*
X167844D01*
X136963Y105199D02*
X167844D01*
X136513Y104749D02*
X167844D01*
X101050Y104299D02*
X167844D01*
X101050Y103849D02*
X167844D01*
X101050Y103399D02*
X167844D01*
X101050Y102949D02*
X167844D01*
X101050Y102499D02*
X167844D01*
X101050Y102049D02*
X167844D01*
X101050Y101599D02*
X167844D01*
X101050Y101149D02*
X167844D01*
X156997Y112849D02*
X160793D01*
X154026Y115549D02*
X160360D01*
X154476Y115099D02*
X160351D01*
X156276Y113299D02*
X160313D01*
X154926Y114649D02*
X160264D01*
X155376Y114199D02*
X160264D01*
X155826Y113749D02*
X160264D01*
X159210Y131749D02*
X159789D01*
X153576Y115999D02*
X159681D01*
X158960Y131299D02*
X159552D01*
X158370Y130849D02*
X159389D01*
X153126Y116449D02*
X159184D01*
X152206Y120049D02*
X159132D01*
X152250Y119599D02*
X159132D01*
X152250Y119149D02*
X159132D01*
X152250Y118699D02*
X159132D01*
X152250Y118249D02*
X159132D01*
X152250Y117799D02*
X159132D01*
X152250Y117349D02*
X159132D01*
X152676Y116899D02*
X159132D01*
X152859Y130399D02*
X158939D01*
X151922Y120499D02*
X158927D01*
X153131Y129949D02*
X158489D01*
X151472Y120949D02*
X158483D01*
X153144Y129499D02*
X158039D01*
X151022Y121399D02*
X158033D01*
X153144Y129049D02*
X157589D01*
X150716Y121849D02*
X157583D01*
X152655Y151099D02*
X156271D01*
X148695Y143449D02*
X156208D01*
X153723Y150649D02*
X155816D01*
X148723Y143899D02*
X155749D01*
X151881Y110149D02*
X155593D01*
X154819Y110599D02*
X154933D01*
X153143Y128599D02*
X153384D01*
X151444Y110599D02*
X153181D01*
X150468Y122299D02*
X152997D01*
X151441Y111049D02*
X152720D01*
X150587Y122749D02*
X152547D01*
X151441Y112399D02*
X152546D01*
X151341Y111499D02*
X152516D01*
X151441Y112849D02*
X152477D01*
X151441Y111949D02*
X152463D01*
X150981Y130849D02*
X152277D01*
X147059Y106999D02*
X152251D01*
X150757Y123199D02*
X152097D01*
X151406Y113299D02*
X152027D01*
X147441Y107449D02*
X151767D01*
X150757Y123649D02*
X151647D01*
X151424Y131299D02*
X151622D01*
X151096Y113749D02*
X151577D01*
X147608Y107899D02*
X151303D01*
X150589Y124099D02*
X151197D01*
X150970Y114199D02*
X151127D01*
X148741Y144349D02*
X150926D01*
X147630Y108349D02*
X150853D01*
X150611Y130399D02*
X150747D01*
X150465Y124549D02*
X150747D01*
X148741Y144799D02*
X150626D01*
X148741Y145249D02*
X150514D01*
X148987Y147049D02*
X150509D01*
X148754Y146599D02*
X150509D01*
X148741Y146149D02*
X150509D01*
X148741Y145699D02*
X150509D01*
X147516Y108799D02*
X150403D01*
X147774Y109249D02*
X149186D01*
X148101Y111499D02*
X148859D01*
X148166Y109699D02*
X148794D01*
X148166Y113299D02*
X148794D01*
X148201Y112849D02*
X148759D01*
X148201Y112399D02*
X148759D01*
X148201Y111949D02*
X148759D01*
X148201Y111049D02*
X148759D01*
X148201Y110599D02*
X148759D01*
X148201Y110149D02*
X148759D01*
X147860Y113749D02*
X148597D01*
X147841Y114199D02*
X148147D01*
X103022Y151099D02*
X147617D01*
X103281Y150649D02*
X146784D01*
X103731Y150199D02*
X146207D01*
X143360Y149749D02*
X145767D01*
X143823Y149299D02*
X145421D01*
X144134Y148849D02*
X145147D01*
X144637Y106999D02*
X145141D01*
X144134Y148399D02*
X144932D01*
X144532Y147949D02*
X144768D01*
X144570Y107449D02*
X144759D01*
X144111Y108799D02*
X144684D01*
X142880Y142999D02*
X144594D01*
X144347Y107899D02*
X144592D01*
X142880Y143449D02*
X144587D01*
X144100Y108349D02*
X144570D01*
X143147Y142549D02*
X144569D01*
X142880Y143899D02*
X144559D01*
X143146Y142099D02*
X144541D01*
X142786Y141649D02*
X144541D01*
X142381Y141199D02*
X144541D01*
X142812Y140749D02*
X144541D01*
X143262Y140299D02*
X144541D01*
X143712Y139849D02*
X144541D01*
X142094Y145249D02*
X144541D01*
X142585Y144799D02*
X144541D01*
X142880Y144349D02*
X144541D01*
X144010Y139399D02*
X144541D01*
X144060Y138949D02*
X144238D01*
X137951Y145699D02*
X143544D01*
X130219Y146149D02*
X143500D01*
X129769Y146599D02*
X143228D01*
X137413Y105649D02*
X142367D01*
X129278Y147049D02*
X142180D01*
X141607Y108799D02*
X142100D01*
X141497Y108349D02*
X142100D01*
X104181Y149749D02*
X142033D01*
X137863Y106099D02*
X141854D01*
X141534Y107899D02*
X141853D01*
X106431Y147499D02*
X141721D01*
X140507Y106549D02*
X141630D01*
X141435Y107449D02*
X141630D01*
X104631Y149299D02*
X141569D01*
X141167Y106999D02*
X141563D01*
X105981Y147949D02*
X141360D01*
X105081Y148849D02*
X141360D01*
X105531Y148399D02*
X141360D01*
X138438Y145249D02*
X140996D01*
X138884Y144799D02*
X140505D01*
X139104Y144349D02*
X140200D01*
X139662Y143899D02*
X140200D01*
X138313Y106549D02*
X139493D01*
X138772Y106999D02*
X138820D01*
X135297Y141199D02*
X137630D01*
X136426Y138499D02*
X137216D01*
X136876Y138049D02*
X137216D01*
X131600Y141649D02*
X137195D01*
X136115Y140749D02*
X137135D01*
X136347Y138949D02*
X136903D01*
X136412Y140299D02*
X136838D01*
X136510Y139399D02*
X136740D01*
X136529Y139849D02*
X136721D01*
X131600Y141199D02*
X134703D01*
X131600Y140749D02*
X133885D01*
X131600Y140299D02*
X133588D01*
X131600Y139849D02*
X132684D01*
X131600Y139399D02*
X132098D01*
X131637Y138949D02*
X131849D01*
X131557Y138499D02*
X131764D01*
X131315Y138049D02*
X131509D01*
X130754Y137599D02*
X131321D01*
X129315Y137149D02*
X131107D01*
X119940Y117799D02*
X131031D01*
X130271Y136699D02*
X131010D01*
X130721Y136249D02*
X131009D01*
X125643Y117349D02*
X131009D01*
X126138Y116899D02*
X131009D01*
X126399Y116449D02*
X131009D01*
X130777Y118249D02*
X130992D01*
X116673Y104749D02*
X130917D01*
X126524Y115999D02*
X130791D01*
X117431Y105199D02*
X130467D01*
X126547Y115549D02*
X130341D01*
X117719Y105649D02*
X130017D01*
X126547Y115099D02*
X129858D01*
X126547Y112399D02*
X129804D01*
X126547Y112849D02*
X129700D01*
X126547Y114649D02*
X129561D01*
X126547Y111949D02*
X129553D01*
X126547Y113299D02*
X129544D01*
X126547Y114199D02*
X129544D01*
X126547Y113749D02*
X129544D01*
X126547Y111499D02*
X129544D01*
X126547Y111049D02*
X129544D01*
X126547Y137599D02*
X129446D01*
X126547Y110599D02*
X129282D01*
X126547Y138049D02*
X128885D01*
X126547Y110149D02*
X128841D01*
X126547Y138499D02*
X128643D01*
X126547Y109699D02*
X128607D01*
X126547Y139399D02*
X128600D01*
X126547Y139849D02*
X128600D01*
X126547Y140299D02*
X128600D01*
X126547Y140749D02*
X128600D01*
X126547Y141199D02*
X128600D01*
X126547Y141649D02*
X128600D01*
X126512Y142099D02*
X128600D01*
X126366Y142549D02*
X128600D01*
X126547Y138949D02*
X128563D01*
X126547Y109249D02*
X128560D01*
X126547Y108799D02*
X128560D01*
X128173Y118249D02*
X128528D01*
X126076Y142999D02*
X128419D01*
X126547Y134449D02*
X128258D01*
X125515Y143449D02*
X127969D01*
X126547Y133999D02*
X127848D01*
X126515Y133549D02*
X127654D01*
X126373Y133099D02*
X127244D01*
X126547Y134899D02*
X127220D01*
X126547Y137149D02*
X127185D01*
X126547Y135349D02*
X126877D01*
X126547Y136699D02*
X126861D01*
X126090Y132649D02*
X126794D01*
X126547Y135799D02*
X126732D01*
X126547Y136249D02*
X126727D01*
X125544Y132199D02*
X126344D01*
X119384Y118249D02*
X126327D01*
X118873Y118699D02*
X125925D01*
X124611Y131749D02*
X125894D01*
X114472Y120049D02*
X125822D01*
X117307Y119149D02*
X125748D01*
X103022Y119599D02*
X125717D01*
X124473Y131299D02*
X125444D01*
X124253Y130849D02*
X124994D01*
X123751Y130399D02*
X124544D01*
X120395Y106099D02*
X123799D01*
X120515Y143449D02*
X123679D01*
X120643Y117349D02*
X123551D01*
X121024Y106549D02*
X123170D01*
X121076Y142999D02*
X123118D01*
X121138Y116899D02*
X123056D01*
X121338Y106999D02*
X122856D01*
X121366Y142549D02*
X122828D01*
X121399Y116449D02*
X122795D01*
X121499Y107449D02*
X122695D01*
X121512Y142099D02*
X122682D01*
X121515Y133549D02*
X122679D01*
X121524Y115999D02*
X122670D01*
X121547Y141649D02*
X122647D01*
X121547Y141199D02*
X122647D01*
X121547Y140749D02*
X122647D01*
X121547Y140299D02*
X122647D01*
X121547Y139849D02*
X122647D01*
X121547Y139399D02*
X122647D01*
X121547Y138949D02*
X122647D01*
X121547Y138499D02*
X122647D01*
X121547Y138049D02*
X122647D01*
X121547Y137599D02*
X122647D01*
X121547Y137149D02*
X122647D01*
X121547Y136699D02*
X122647D01*
X121547Y136249D02*
X122647D01*
X121547Y135799D02*
X122647D01*
X121547Y135349D02*
X122647D01*
X121547Y134899D02*
X122647D01*
X121547Y134449D02*
X122647D01*
X121547Y133999D02*
X122647D01*
X121547Y115549D02*
X122647D01*
X121547Y115099D02*
X122647D01*
X121547Y114649D02*
X122647D01*
X121547Y114199D02*
X122647D01*
X121547Y113749D02*
X122647D01*
X121547Y113299D02*
X122647D01*
X121547Y112849D02*
X122647D01*
X121547Y112399D02*
X122647D01*
X121547Y111949D02*
X122647D01*
X121547Y111499D02*
X122647D01*
X121547Y111049D02*
X122647D01*
X121547Y110599D02*
X122647D01*
X121547Y110149D02*
X122647D01*
X121547Y109699D02*
X122647D01*
X121547Y109249D02*
X122647D01*
X121547Y108799D02*
X122647D01*
X121547Y108349D02*
X122647D01*
X121547Y107899D02*
X122647D01*
X121373Y133099D02*
X122280D01*
X120351Y130399D02*
X122249D01*
X121090Y132649D02*
X121760D01*
X120853Y130849D02*
X121747D01*
X121067Y132199D02*
X121533D01*
X121073Y131299D02*
X121527D01*
X121137Y131749D02*
X121463D01*
X116951Y130399D02*
X118849D01*
X117831Y106099D02*
X118799D01*
X115515Y143449D02*
X118679D01*
X117453Y130849D02*
X118347D01*
X117806Y106549D02*
X118170D01*
X117667Y132199D02*
X118133D01*
X117673Y131299D02*
X118127D01*
X116076Y142999D02*
X118118D01*
X117440Y132649D02*
X118104D01*
X117737Y131749D02*
X118063D01*
X117637Y106999D02*
X117856D01*
X116366Y142549D02*
X117828D01*
X116920Y133099D02*
X117821D01*
X117154Y116449D02*
X117795D01*
X117250Y107449D02*
X117695D01*
X116512Y142099D02*
X117682D01*
X116515Y133549D02*
X117679D01*
X116524Y115999D02*
X117670D01*
X116547Y141649D02*
X117647D01*
X116547Y141199D02*
X117647D01*
X116547Y140749D02*
X117647D01*
X116547Y140299D02*
X117647D01*
X116547Y139849D02*
X117647D01*
X116547Y139399D02*
X117647D01*
X116547Y138949D02*
X117647D01*
X116547Y138499D02*
X117647D01*
X116547Y138049D02*
X117647D01*
X116547Y137599D02*
X117647D01*
X116547Y137149D02*
X117647D01*
X116547Y136699D02*
X117647D01*
X116547Y136249D02*
X117647D01*
X116547Y135799D02*
X117647D01*
X116547Y135349D02*
X117647D01*
X116547Y134899D02*
X117647D01*
X116547Y134449D02*
X117647D01*
X116547Y133999D02*
X117647D01*
X116547Y115549D02*
X117647D01*
X116547Y115099D02*
X117647D01*
X116547Y114649D02*
X117647D01*
X116547Y114199D02*
X117647D01*
X116547Y113749D02*
X117647D01*
X116547Y113299D02*
X117647D01*
X116547Y112849D02*
X117647D01*
X116547Y112399D02*
X117647D01*
X116547Y111949D02*
X117647D01*
X116547Y111499D02*
X117647D01*
X116547Y111049D02*
X117647D01*
X116547Y110599D02*
X117647D01*
X116547Y110149D02*
X117647D01*
X116547Y109699D02*
X117647D01*
X116547Y109249D02*
X117647D01*
X116547Y108799D02*
X117647D01*
X116547Y108349D02*
X117647D01*
X116547Y107899D02*
X117647D01*
X111421Y104749D02*
X115927D01*
X103022Y119149D02*
X115693D01*
X112616Y130399D02*
X115449D01*
X103022Y118699D02*
X115225D01*
X112150Y105199D02*
X115169D01*
X103022Y118249D02*
X115018D01*
X103022Y117799D02*
X114963D01*
X103022Y130849D02*
X114947D01*
X112433Y105649D02*
X114881D01*
X103022Y131299D02*
X114727D01*
X103022Y131749D02*
X114587D01*
X112542Y106099D02*
X113799D01*
X103022Y143449D02*
X113679D01*
X103022Y132199D02*
X113650D01*
X110643Y117349D02*
X113551D01*
X112514Y106549D02*
X113170D01*
X103022Y142999D02*
X113118D01*
X103022Y132649D02*
X113104D01*
X111138Y116899D02*
X113056D01*
X112342Y106999D02*
X112856D01*
X103022Y142549D02*
X112828D01*
X103022Y133099D02*
X112821D01*
X111399Y116449D02*
X112795D01*
X111947Y107449D02*
X112695D01*
X103022Y142099D02*
X112682D01*
X103022Y133549D02*
X112679D01*
X111524Y115999D02*
X112670D01*
X103022Y141649D02*
X112647D01*
X103022Y141199D02*
X112647D01*
X103022Y140749D02*
X112647D01*
X103022Y140299D02*
X112647D01*
X103022Y139849D02*
X112647D01*
X103022Y139399D02*
X112647D01*
X103022Y138949D02*
X112647D01*
X103022Y138499D02*
X112647D01*
X103022Y138049D02*
X112647D01*
X103022Y137599D02*
X112647D01*
X103022Y137149D02*
X112647D01*
X103022Y136699D02*
X112647D01*
X103022Y136249D02*
X112647D01*
X103022Y135799D02*
X112647D01*
X103022Y135349D02*
X112647D01*
X103022Y134899D02*
X112647D01*
X103022Y134449D02*
X112647D01*
X103022Y133999D02*
X112647D01*
X111547Y115549D02*
X112647D01*
X111547Y115099D02*
X112647D01*
X111547Y114649D02*
X112647D01*
X111547Y114199D02*
X112647D01*
X111547Y113749D02*
X112647D01*
X111547Y113299D02*
X112647D01*
X111547Y112849D02*
X112647D01*
X111547Y112399D02*
X112647D01*
X111547Y111949D02*
X112647D01*
X111547Y111499D02*
X112647D01*
X111547Y111049D02*
X112647D01*
X111547Y110599D02*
X112647D01*
X111547Y110149D02*
X112647D01*
X111547Y109699D02*
X112647D01*
X111547Y109249D02*
X112647D01*
X111547Y108799D02*
X112647D01*
X111547Y108349D02*
X112647D01*
X111547Y107899D02*
X112647D01*
X103022Y120049D02*
X112528D01*
X103022Y120499D02*
X112153D01*
X103022Y120949D02*
X111990D01*
X103022Y130399D02*
X111384D01*
X103022Y121399D02*
X111346D01*
X103022Y127249D02*
X111280D01*
X103022Y124549D02*
X111249D01*
X103022Y124099D02*
X111193D01*
X103022Y127699D02*
X111166D01*
X103022Y129949D02*
X110798D01*
X103022Y121849D02*
X110785D01*
X103022Y126799D02*
X110760D01*
X103022Y124999D02*
X110747D01*
X103022Y123649D02*
X110725D01*
X103022Y128149D02*
X110713D01*
X101050Y104749D02*
X110599D01*
X103022Y129499D02*
X110549D01*
X103022Y122299D02*
X110543D01*
X103022Y126349D02*
X110533D01*
X103022Y125449D02*
X110527D01*
X103022Y123199D02*
X110518D01*
X103022Y128599D02*
X110513D01*
X103022Y129049D02*
X110464D01*
X103022Y122749D02*
X110463D01*
X103022Y125899D02*
X110463D01*
X101050Y105199D02*
X109870D01*
X101050Y105649D02*
X109587D01*
X101050Y106099D02*
X108799D01*
X103022Y117349D02*
X108551D01*
X103022Y106549D02*
X108170D01*
X103022Y116899D02*
X108056D01*
X103022Y106999D02*
X107856D01*
X103022Y116449D02*
X107795D01*
X103022Y107449D02*
X107695D01*
X103022Y115999D02*
X107670D01*
X103022Y115549D02*
X107647D01*
X103022Y115099D02*
X107647D01*
X103022Y114649D02*
X107647D01*
X103022Y114199D02*
X107647D01*
X103022Y113749D02*
X107647D01*
X103022Y113299D02*
X107647D01*
X103022Y112849D02*
X107647D01*
X103022Y112399D02*
X107647D01*
X103022Y111949D02*
X107647D01*
X103022Y111499D02*
X107647D01*
X103022Y111049D02*
X107647D01*
X103022Y110599D02*
X107647D01*
X103022Y110149D02*
X107647D01*
X103022Y109699D02*
X107647D01*
X103022Y109249D02*
X107647D01*
X103022Y108799D02*
X107647D01*
X103022Y108349D02*
X107647D01*
X103022Y107899D02*
X107647D01*
X103022Y143899D02*
X105468D01*
X103022Y144349D02*
X104631D01*
X103022Y144799D02*
X104181D01*
X103022Y145249D02*
X103731D01*
X103022Y145699D02*
X103281D01*
G54D101*
X170866Y138976D03*
Y115354D03*
Y109449D03*
X100000Y150787D03*
Y144882D03*
Y138976D03*
Y133071D03*
Y127165D03*
Y121260D03*
Y115354D03*
Y109449D03*
Y103543D03*
X170866D03*
Y121260D03*
Y127165D03*
Y133071D03*
Y144882D03*
Y150787D03*
G54D102*
X111010Y106230D03*
X127250Y119478D03*
X132800Y108200D03*
X116500Y117840D03*
X140200Y114440D03*
X140000Y108000D03*
X116300Y106240D03*
X136050Y108499D03*
X105676Y103150D03*
X105200Y105640D03*
X134550Y107040D03*
X105200Y114890D03*
X117640Y119660D03*
X122097Y107041D03*
X133200Y101640D03*
X138710Y104900D03*
X114400Y105240D03*
X119200Y101640D03*
X112150Y118240D03*
X126200Y101640D03*
X128520Y116840D03*
X108700Y103040D03*
X127800Y109380D03*
X112200Y101640D03*
X140200D03*
X105200Y110390D03*
X107500Y118210D03*
X123000Y118840D03*
X132310Y119040D03*
X146100Y108200D03*
X143100Y107000D03*
X154000Y111900D03*
X153270Y108150D03*
X148580Y116029D03*
X156100Y111600D03*
X152850Y104800D03*
X160120Y112550D03*
X163622Y114100D03*
X165707Y109689D03*
X165700Y104800D03*
X145130Y106110D03*
X164870Y115850D03*
X157530Y114590D03*
X158700Y104800D03*
X165700Y101640D03*
X165130Y118750D03*
X152850Y101640D03*
X143600Y103040D03*
X149290Y102930D03*
X155118Y115500D03*
X153020Y117400D03*
X150340Y106700D03*
X158700Y101640D03*
X119600Y131740D03*
X138250Y139690D03*
X139760Y138190D03*
X135000Y139690D03*
X112000Y122790D03*
X133300Y138440D03*
X113500Y124340D03*
X112000Y128990D03*
Y125890D03*
X113500Y127440D03*
Y121240D03*
X128250Y136040D03*
X123000Y131740D03*
X116200D03*
X106915Y148292D03*
X110514Y152493D03*
X122715Y152518D03*
X101700Y154549D03*
X134279Y124213D03*
X117000Y143240D03*
X105200Y132740D03*
X127500Y138740D03*
X137035Y128543D03*
X122010Y143240D03*
X128400Y148140D03*
X118300D03*
X135886Y146655D03*
X105200Y152299D03*
X116677Y152456D03*
X137910Y149500D03*
X127500Y142040D03*
X121310Y130530D03*
X128628Y152518D03*
X117900Y130530D03*
X133500Y148140D03*
X137035Y121457D03*
X112100Y143240D03*
X127100Y134170D03*
X113500Y131240D03*
X137035Y131299D03*
X133790Y141460D03*
X113700Y154549D03*
X134279Y128543D03*
X137035Y124213D03*
X119700Y154549D03*
X136630Y141000D03*
X112660Y148140D03*
X139980Y145400D03*
X105200Y142490D03*
X130800Y150449D03*
X134591Y152543D03*
X107700Y154549D03*
X137700D03*
X124000Y148140D03*
X131700Y154549D03*
X105200Y136840D03*
X110700Y131240D03*
X125700Y154549D03*
X107840Y131210D03*
X135299Y143791D03*
X130100Y138990D03*
X131800Y129330D03*
X147680Y154656D03*
X151255Y154681D03*
X154806Y151205D03*
X146630Y123299D03*
X146600Y125393D03*
X140730Y148340D03*
X152180Y140990D03*
X154550Y143250D03*
X165200Y142200D03*
X143980Y144060D03*
X143700Y154549D03*
X165573Y132221D03*
X165730Y146520D03*
X154750Y154120D03*
X151343Y123052D03*
X161000Y136700D03*
X165720Y150099D03*
X157656Y129991D03*
X169100Y154549D03*
X165520Y154030D03*
X141365Y128543D03*
X144121D03*
X144770Y149360D03*
X146650Y151370D03*
X149380Y152150D03*
X149500Y143424D03*
X149375Y146174D03*
X152110Y152140D03*
X141365Y121457D03*
X142420Y146040D03*
X149375Y140924D03*
X144121Y124213D03*
X152100Y143190D03*
X141365Y124213D03*
X149413Y138398D03*
X156400Y136700D03*
X165700Y121840D03*
X152980Y120649D03*
X165700Y124540D03*
Y127240D03*
X165500Y136700D03*
X165723Y129921D03*
X140642Y152481D03*
X162984Y132591D03*
X153693Y129978D03*
X141550Y143880D03*
X144000Y141490D03*
X153600Y136700D03*
X142740Y148430D03*
X154640Y140800D03*
X157760Y132260D03*
G54D108*
X155945Y125973D03*
G54D109*
Y118887D03*
X161851D03*
Y125973D03*
G54D110*
X109510Y145556D03*
Y148312D03*
G54D171*
X152551Y148866D02*
G03X153942Y148481I1670J3325D01*
G01X152922Y147975D02*
G03X152551Y148866I-702J230D01*
G01X153849Y147929D02*
Y147244D01*
Y147929D02*
G03X150297Y149400I-3552J-3552D01*
G01X149590D02*
X150297D01*
X146644Y146580D02*
G03X146641Y146451I2946J-129D01*
G01X149590Y149400D02*
G03X146644Y146580I0J-2949D01*
G01X146090Y135925D02*
Y137959D01*
X146641Y138510*
Y140770*
Y144175D02*
Y146451D01*
Y142207D02*
Y142206D01*
Y140770*
Y139890D02*
Y140770D01*
G54D177*
X139200Y126378D03*
G54D178*
X124597Y137816D03*
X119597D03*
X114597D03*
X109597D03*
Y111791D03*
X114597D03*
X119597D03*
X124597D03*
G54D193*
X153849Y147244D03*
G54D198*
X160050Y141634D03*
Y152854D03*
G54D199*
X133600Y144456D03*
Y146424D03*
X156299Y132262D03*
Y134230D03*
X153858Y132262D03*
Y134230D03*
X144672Y146490D03*
X146641D03*
X144673Y139890D03*
X146641D03*
X161604Y114156D03*
X159636D03*
X160886Y130605D03*
X162854D03*
X130884Y113898D03*
X128916D03*
X130884Y111240D03*
X128916D03*
X130216Y140690D03*
X132184D03*
X146641Y142207D03*
Y144175D03*
X151803Y129220D03*
Y127252D03*
X150100Y112484D03*
Y110516D03*
X141910Y112484D03*
Y110516D03*
X146860Y112484D03*
Y110516D03*
X144410Y112484D03*
Y110516D03*
X136960Y112484D03*
Y110516D03*
X134460Y112484D03*
Y110516D03*
X139457Y112484D03*
Y110516D03*
G54D200*
X146090Y135925D03*
X144121D03*
X142153D03*
X140184D03*
X138216D03*
X136247D03*
X134279D03*
X132310D03*
Y116831D03*
X134279D03*
X136247D03*
X138216D03*
X140184D03*
X142153D03*
X144121D03*
X146090D03*
G54D201*
X129653Y133268D03*
Y131299D03*
Y129331D03*
Y127362D03*
Y125394D03*
Y123425D03*
Y121457D03*
Y119488D03*
X148747D03*
Y121457D03*
Y123425D03*
Y125394D03*
Y127362D03*
Y129331D03*
Y131299D03*
Y133268D03*
G54D202*
X141790Y142728D02*
G03X141948Y142493I255J0D01*
G01X141633D02*
G03X141790Y142728I-97J235D01*
G01X141550Y143880D02*
Y143830D01*
X141790Y143590*
Y142267*
X143205Y148348D02*
G03X143300Y147870I404J-169D01*
X142822Y147965I-309J-309*
G01X143300Y147870D02*
X143074Y148096D01*
X144350Y146820D02*
G03X144634Y146763I185J185D01*
G01X144403Y146547D02*
G03X144350Y146820I-229J97D01*
G01X142740Y148430D02*
X144672Y146498D01*
Y146490*
G74*
X0Y0D02*
M02*
