*
*
G04 PADS 9.5 Build Number: 522968 generated Gerber (RS-274-X) file*
G04 PC Version=2.1*
*
%IN "PCB_ESP32-C3-WROOM-02U_"*%
*
%MOIN*%
*
%FSLAX35Y35*%
*
*
*
*
G04 PC Standard Apertures*
*
*
G04 Thermal Relief Aperture macro.*
%AMTER*
1,1,$1,0,0*
1,0,$1-$2,0,0*
21,0,$3,$4,0,0,45*
21,0,$3,$4,0,0,135*
%
*
*
G04 Annular Aperture macro.*
%AMANN*
1,1,$1,0,0*
1,0,$2,0,0*
%
*
*
G04 Odd Aperture macro.*
%AMODD*
1,1,$1,0,0*
1,0,$1-0.005,0,0*
%
*
*
G04 PC Custom Aperture Macros*
*
*
*
*
*
*
G04 PC Aperture Table*
*
%ADD010C,0.001*%
%ADD027C,0.00394*%
%ADD037C,0.005*%
%ADD101R,0.03543X0.03543*%
%ADD102C,0.01575*%
*
*
*
*
G04 PC Circuitry*
G04 Layer Name PCB_ESP32-C3-WROOM-02U_ - circuitry*
%LPD*%
*
*
G04 PC Custom Flashes*
G04 Layer Name PCB_ESP32-C3-WROOM-02U_ - flashes*
%LPD*%
*
*
G04 PC Circuitry*
G04 Layer Name PCB_ESP32-C3-WROOM-02U_ - circuitry*
%LPD*%
*
G54D10*
G54D27*
G01X100000Y156299D02*
X170866D01*
Y100000*
X100000*
Y156299*
G54D37*
X100265Y110947D02*
G75*
G03X101802Y111251I542J1299D01*
X101498Y109714I996J-995*
G01X100720Y110789D02*
G03X101802Y111251I-33J1578D01*
G01X100974Y110618D02*
G03X101802Y111251I-1948J3410D01*
X101169Y110422I2777J-2776*
G01X101802Y111251D02*
G03X101341Y110169I1116J-1116D01*
G01X112600Y121240D02*
G03X113060Y121548I-0J497D01*
G01Y120932D02*
G03X112600Y121240I-460J-189D01*
G01X112963*
X100000Y109449D02*
X103040Y112489D01*
Y116380*
X104450Y117790*
Y120030*
X105660Y121240*
X113500*
X100265Y116853D02*
G03X101802Y117157I542J1299D01*
X101498Y115620I996J-996*
G01X100720Y116695D02*
G03X101802Y117157I-33J1577D01*
G01X100974Y116524D02*
G03X101802Y117157I-1948J3409D01*
X101169Y116328I2777J-2777*
G01X101802Y117157D02*
G03X101341Y116074I1116J-1116D01*
G01X111100Y122790D02*
G03X111560Y123098I-0J497D01*
G01Y122482D02*
G03X111100Y122790I-460J-189D01*
G01X111463*
X100000Y115354D02*
X103040Y118394D01*
Y120880*
X104950Y122790*
X112000*
X111539Y106136D02*
G03X111647Y105594I459J-191D01*
G01X111646D02*
G03X111104Y105701I-351J-352D01*
G01X111647Y105594D02*
X111390Y105850D01*
X142463Y106364D02*
G03X142571Y106906I-351J351D01*
G01X143006Y106471D02*
G03X142464Y106363I-191J-459D01*
G01X142463D02*
X142720Y106620D01*
X111010Y106230D02*
X113990Y103250D01*
X139350*
X143100Y107000*
X127690Y119786D02*
G03X128150Y119478I460J189D01*
X127690Y119170I0J-497*
G01X128150Y119478D02*
X127787D01*
X168334Y103250D02*
G03X169451Y104103I0J1158D01*
G01X170104Y102226D02*
G03X168334Y103250I-1770J-1018D01*
X169355Y103720I0J1342*
G01X168334Y103250D02*
G03X169349Y103429I0J2962D01*
G01X169395Y103154D02*
G03X168334Y103250I-1061J-5823D01*
G01X169513Y102847D02*
G03X168334Y103250I-1179J-1524D01*
G01X127250Y119478D02*
X128252D01*
X130250Y117480*
X140980*
X148800Y109660*
Y106060*
X151610Y103250*
X170573*
X170866Y103543*
X116808Y117400D02*
G03X116500Y116940I189J-460D01*
X116192Y117400I-497J0*
G01X116500Y116940D02*
Y117303D01*
X131984Y107820D02*
G03X132263Y108230I-0J301D01*
G01X132691Y107674D02*
G03X131984Y107820I-707J-1635D01*
X132325Y107949I-0J516*
G01X116500Y117840D02*
Y115940D01*
X124620Y107820*
X132420*
X132800Y108200*
X116829Y106146D02*
G03X116937Y105604I459J-191D01*
G01X116936D02*
G03X116394Y105711I-351J-352D01*
G01X116937Y105604D02*
X116680Y105860D01*
X139165Y107665D02*
G03X139542Y108281I-1092J1091D01*
G01X139655Y107588D02*
G03X139165Y107665I-273J-141D01*
G01X139492Y107825D02*
G03X139165Y107665I71J-559D01*
G01X116300Y106240D02*
X117050Y105490D01*
X136990*
X139500Y108000*
X140000*
X154445Y111598D02*
G03X154417Y111103I208J-260D01*
X153767Y111416I-772J-773*
G01X154225Y111412D02*
G03X154417Y111103I760J258D01*
G01X169064Y119458D02*
G03X169368Y120994I-995J995D01*
G01X170601Y119762D02*
G03X169064Y119458I-542J-1300D01*
X169526Y120540I-1116J1115*
G01X169064Y119458D02*
G03X169697Y120286I-2777J2776D01*
G01X169893Y120090D02*
G03X169064Y119458I1947J-3409D01*
G01X170146Y119919D02*
G03X169064Y119458I33J-1577D01*
G01X154000Y111900D02*
Y111520D01*
X155520Y110000*
X163350*
X167750Y114400*
Y118144*
X170866Y121260*
X153799Y108056D02*
G03X153907Y107514I459J-191D01*
G01X153906Y107513D02*
G03X153364Y107621I-351J-351D01*
G01X153907Y107513D02*
X153650Y107770D01*
X169360Y113630D02*
G03X169458Y114777I-632J632D01*
G01X170824Y113833D02*
G03X169360Y113630I-597J-1070D01*
X169639Y114454I-695J695*
G01X169360Y113630D02*
G03X169813Y114256I-1718J1718D01*
G01X170005Y114100D02*
G03X169360Y113630I1167J-2282D01*
G01X170258Y113959D02*
G03X169360Y113630I-93J-1134D01*
G01X153270Y108150D02*
X154030Y107390D01*
Y107370*
X166880*
X167750Y108240*
Y111250*
X169360Y112860*
Y113630*
X170866Y115136*
Y115354*
X156626Y111489D02*
G03X156700Y111000I369J-194D01*
X156211Y111074I-295J-295*
G01X156700Y111000D02*
X156480Y111220D01*
X169064Y125363D02*
G03X169368Y126900I-995J995D01*
G01X170601Y125667D02*
G03X169064Y125363I-542J-1299D01*
X169526Y126445I-1116J1116*
G01X169064Y125363D02*
G03X169697Y126192I-2777J2777D01*
G01X169893Y125996D02*
G03X169064Y125363I1947J-3409D01*
G01X170146Y125825D02*
G03X169064Y125363I33J-1578D01*
G01X156100Y111600D02*
X156700Y111000D01*
X162930*
X166750Y114820*
Y118740*
X167830Y119820*
Y124129*
X170866Y127165*
X100265Y122758D02*
G03X101802Y123062I542J1299D01*
X101498Y121525I996J-995*
G01X100720Y122600D02*
G03X101802Y123062I-33J1578D01*
G01X100974Y122429D02*
G03X101802Y123062I-1948J3410D01*
X101169Y122233I2777J-2776*
G01X101802Y123062D02*
G03X101341Y121980I1116J-1116D01*
G01X112600Y124340D02*
G03X113060Y124648I-0J497D01*
G01Y124032D02*
G03X112600Y124340I-460J-189D01*
G01X112963*
X100000Y121260D02*
X103080Y124340D01*
X113500*
X101497Y127439D02*
G03X101780Y125890I1262J-570D01*
X100771Y125853I-488J-487*
G01X101419Y126617D02*
G03X101780Y125890I1259J172D01*
X101273Y126333I-3532J-3532*
G01X101780Y125890D02*
G03X101087Y126101I-544J-544D01*
G01X111100Y125890D02*
G03X111560Y126198I-0J497D01*
G01Y125582D02*
G03X111100Y125890I-460J-189D01*
G01X111463*
X100000Y127165D02*
X100505D01*
X101780Y125890*
X112000*
X101498Y132805D02*
G03X101802Y131269I1300J-541D01*
X100265Y131573I-995J-996*
G01X101341Y132351D02*
G03X101802Y131269I1577J33D01*
G01X101169Y132097D02*
G03X101802Y131269I3410J1948D01*
X100974Y131901I-2776J-2777*
G01X101802Y131269D02*
G03X100720Y131730I-1115J-1116D01*
G01X112600Y127440D02*
G03X113060Y127748I-0J497D01*
G01Y127132D02*
G03X112600Y127440I-460J-189D01*
G01X112963*
X100000Y133071D02*
X105631Y127440D01*
X113500*
X101498Y138711D02*
G03X101802Y137174I1300J-542D01*
X100265Y137478I-995J-995*
G01X101341Y138256D02*
G03X101802Y137174I1577J34D01*
G01X101169Y138003D02*
G03X101802Y137174I3410J1948D01*
X100974Y137807I-2776J-2776*
G01X101802Y137174D02*
G03X100720Y137636I-1115J-1115D01*
G01X111100Y128990D02*
G03X111560Y129298I-0J497D01*
G01Y128682D02*
G03X111100Y128990I-460J-189D01*
G01X111463*
X100000Y138976D02*
X103030Y135946D01*
Y132470*
X106510Y128990*
X112000*
X101498Y144616D02*
G03X101802Y143080I1300J-541D01*
X100265Y143384I-995J-996*
G01X101341Y144162D02*
G03X101802Y143080I1577J33D01*
G01X101169Y143908D02*
G03X101802Y143080I3410J1948D01*
X100974Y143712I-2776J-2777*
G01X101802Y143080D02*
G03X100720Y143541I-1115J-1116D01*
G01X127350Y136040D02*
G03X127810Y136348I-0J497D01*
G01Y135732D02*
G03X127350Y136040I-460J-189D01*
G01X127713*
X100000Y144882D02*
X108842Y136040D01*
X128250*
X136609Y140100D02*
G03X136290Y140584I-526J0D01*
G01X136908Y140541D02*
G03X136609Y140100I174J-441D01*
G01Y140441*
Y137150D02*
Y140979D01*
X136630Y141000*
X152840Y136700D02*
G03X153130Y136961I0J292D01*
G01Y136439D02*
G03X152840Y136700I-290J-31D01*
G01X153063*
X136609Y137150D02*
Y137127D01*
X141486Y132250*
X148390*
X152840Y136700*
X153600*
X138220Y138791D02*
G03X137896Y139286I-541J-0D01*
G01X138516Y139223D02*
G03X138220Y138791I168J-432D01*
G01Y139154*
Y139690D02*
X138250D01*
X169064Y143080D02*
G03X169368Y144616I-995J995D01*
G01X170601Y143384D02*
G03X169064Y143080I-542J-1300D01*
X169526Y144162I-1116J1115*
G01X169064Y143080D02*
G03X169697Y143908I-2777J2776D01*
G01X169893Y143712D02*
G03X169064Y143080I1947J-3409D01*
G01X170146Y143541D02*
G03X169064Y143080I33J-1577D01*
G01X138220Y139690D02*
Y137488D01*
X142458Y133250*
X147930*
X152930Y138250*
X166410*
X167840Y139680*
Y141856*
X170866Y144882*
X119908Y131300D02*
G03X119600Y130840I189J-460D01*
X119292Y131300I-497J0*
G01X119600Y130840D02*
Y131203D01*
X145516Y108885D02*
G03X146220Y108724I479J479D01*
G01X145599Y108395D02*
G03X145516Y108885I-387J186D01*
G01X145772Y108626*
X119600Y131740D02*
Y129970D01*
X121450Y128120*
Y117800*
X126130Y113120*
X136990*
X138620Y111490*
X142910*
X146100Y108300*
Y108200*
X140047Y137736D02*
G03X139760Y137362I100J-374D01*
X139473Y137736I-387J0*
G01X139760Y137362D02*
Y137653D01*
X169064Y148985D02*
G03X169368Y150522I-995J995D01*
G01X170601Y149289D02*
G03X169064Y148985I-542J-1299D01*
X169526Y150067I-1116J1116*
G01X169064Y148985D02*
G03X169697Y149814I-2777J2777D01*
G01X169893Y149618D02*
G03X169064Y148985I1947J-3409D01*
G01X170146Y149447D02*
G03X169064Y148985I33J-1577D01*
G01X139760Y138190D02*
Y137362D01*
X142872Y134250*
X147500*
X152500Y139250*
X165920*
X166830Y140160*
Y142500*
X167830Y143500*
Y147751*
X170866Y150787*
X135308Y139250D02*
G03X135000Y138790I189J-460D01*
X134692Y139250I-497J0*
G01X135000Y138790D02*
Y139153D01*
X169064Y137174D02*
G03X169368Y138711I-995J995D01*
G01X170601Y137478D02*
G03X169064Y137174I-542J-1299D01*
X169526Y138256I-1116J1116*
G01X169064Y137174D02*
G03X169697Y138003I-2777J2777D01*
G01X169893Y137807D02*
G03X169064Y137174I1947J-3409D01*
G01X170146Y137636D02*
G03X169064Y137174I33J-1577D01*
G01X135000Y139690D02*
Y137146D01*
X140896Y131250*
X148860*
X152760Y135150*
X167040*
X170866Y138976*
X133829Y138346D02*
G03X133937Y137804I459J-191D01*
G01X133936D02*
G03X133394Y137911I-351J-352D01*
G01X133937Y137804D02*
X133680Y138060D01*
X169787Y134150D02*
G03X169843Y134197I26J26D01*
G01X169740Y134094D02*
G03X169787Y134150I21J30D01*
G01X133300Y138440D02*
X133971Y137769D01*
Y136755*
X140476Y130250*
X149290*
X153190Y134150*
X169787*
X170866Y133071*
X123529Y131646D02*
G03X123637Y131104I459J-191D01*
G01X123636D02*
G03X123094Y131211I-351J-352D01*
G01X123637Y131104D02*
X123380Y131360D01*
X139564Y115077D02*
G03X140106Y114969I351J351D01*
G01X139671Y114534D02*
G03X139563Y115077I-459J191D01*
G01X139563D02*
X139820Y114820D01*
X123000Y131740D02*
X124550Y130190D01*
Y118300*
X127560Y115290*
X139350*
X140200Y114440*
X116508Y131300D02*
G03X116200Y130840I189J-460D01*
X115892Y131300I-497J0*
G01X116200Y130840D02*
Y131203D01*
X135569Y109260D02*
G03X136243Y109001I629J629D01*
G01X135582Y108764D02*
G03X135569Y109260I-268J241D01*
G01X135786Y108967D02*
G03X135569Y109260I-1094J-584D01*
G01X116200Y131740D02*
Y129900D01*
X119230Y126870*
Y116650*
X124950Y110930*
X133899*
X136050Y108779*
Y108499*
X147090Y123022D02*
G03X147040Y122889I5J-78D01*
X146907Y122839I-55J-55*
G01X169064Y107647D02*
G03X169368Y109183I-995J995D01*
G01X170601Y107950D02*
G03X169064Y107647I-542J-1299D01*
X169526Y108729I-1116J1115*
G01X169064Y107647D02*
G03X169697Y108475I-2777J2776D01*
G01X169893Y108279D02*
G03X169064Y107647I1947J-3409D01*
G01X170146Y108108D02*
G03X169064Y107647I33J-1577D01*
G01X146630Y123299D02*
X147040Y122889D01*
Y115390*
X151250Y111180*
Y107970*
X152850Y106370*
X167787*
X170866Y109449*
X147090Y125613D02*
G03X147386Y124954I1013J59D01*
X146890Y124941I-242J-241*
G01X147386Y124954D02*
G03X147082Y125155I-644J-643D01*
G01X148170Y116439D02*
G03X148303Y116490I55J55D01*
G01X148120Y116307D02*
G03X148170Y116439I-5J77D01*
G01X146600Y125393D02*
X146947D01*
X148170Y124170*
Y116439*
X148580Y116029*
X136837Y143791D02*
G03X136837I-1538J0D01*
G01X131637Y138990D02*
G03X131637I-1537J0D01*
G01X133337Y129330D02*
G03X133337I-1537J0D01*
G01X167844Y137400D02*
Y138089D01*
G03X167716Y138142I-75J-0*
G01X167117Y137543*
X166410Y137250D02*
G03X167117Y137543I0J1000D01*
G01X166410Y137250D02*
X153375D01*
G03X153322Y137228I0J-75*
G01X152287Y136193*
G03X152369Y136070I53J-53*
G01X152760Y136150D02*
G03X152369Y136070I0J-1000D01*
G01X152760Y136150D02*
X166594D01*
G03X166648Y136172I0J75*
G01X167822Y137347*
G03X167844Y137400I-53J53*
G01X169816Y153884D02*
Y155174D01*
G03X169741Y155249I-75J0*
G01X101125*
G03X101050Y155174I0J-75*
G01Y153884*
G03X101125Y153809I75J0*
G01X102772*
X103022Y153559D02*
G03X102772Y153809I-250J0D01*
G01X103022Y153559D02*
Y147838D01*
Y147835*
Y147834*
Y147832*
Y143305*
G03X103044Y143252I75J0*
G01X109234Y137062*
G03X109287Y137040I53J53*
G01X127048*
G03X127104Y137065I0J75*
G01Y135015D02*
G03Y137065I1146J1025D01*
G01Y135015D02*
G03X127048Y135040I-56J-50D01*
G01X108842*
X108135Y135333D02*
G03X108842Y135040I707J707D01*
G01X108135Y135333D02*
X103150Y140318D01*
G03X103022Y140265I-53J-53*
G01Y137400*
G03X103044Y137347I75J-0*
G01X103737Y136653*
X104030Y135946D02*
G03X103737Y136653I-1000J0D01*
G01X104030Y135946D02*
Y132915D01*
G03X104052Y132862I75J0*
G01X106902Y130012*
G03X106955Y129990I53J53*
G01X110798*
G03X110854Y130015I0J75*
G01X113536Y129046D02*
G03X110854Y130015I-1536J-56D01*
G01X113536Y129046D02*
G03X113606Y128974I75J3D01*
G01X113924Y125962D02*
G03X113606Y128974I-424J1478D01*
G01X113924Y125962D02*
G03Y125818I20J-72D01*
G01Y122862D02*
G03Y125818I-424J1478D01*
G01Y122862D02*
G03Y122718I20J-72D01*
G01X112354Y120215D02*
G03X113924Y122718I1146J1025D01*
G01X112354Y120215D02*
G03X112298Y120240I-56J-50D01*
G01X106105*
G03X106052Y120218I0J-75*
G01X105472Y119638*
G03X105450Y119585I53J-53*
G01Y117790*
X105157Y117083D02*
G03X105450Y117790I-707J707D01*
G01X105157Y117083D02*
X104062Y115988D01*
G03X104040Y115935I53J-53*
G01Y112489*
X103747Y111782D02*
G03X104040Y112489I-707J707D01*
G01X103747Y111782D02*
X103044Y111079D01*
G03X103022Y111026I53J-53*
G01Y106499*
X102772Y106249D02*
G03X103022Y106499I0J250D01*
G01X102772Y106249D02*
X101125D01*
G03X101050Y106174I0J-75*
G01Y101125*
G03X101125Y101050I75J0*
G01X167769*
G03X167844Y101125I0J75*
G01Y102175*
G03X167769Y102250I-75J-0*
G01X151610*
X150903Y102543D02*
G03X151610Y102250I707J707D01*
G01X150903Y102543D02*
X148093Y105353D01*
X147800Y106060D02*
G03X148093Y105353I1000J0D01*
G01X147800Y106060D02*
Y109215D01*
G03X147778Y109268I-75J-0*
G01X140588Y116458*
G03X140535Y116480I-53J-53*
G01X130250*
X129543Y116773D02*
G03X130250Y116480I707J707D01*
G01X129543Y116773D02*
X128154Y118162D01*
G03X128062Y118172I-53J-53*
G01X128415Y120481D02*
G03X128062Y118172I-1165J-1003D01*
G01X128415Y120481D02*
G03X128456Y120457I57J49D01*
G01X128959Y120185D02*
G03X128456Y120457I-707J-707D01*
G01X128959Y120185D02*
X130642Y118502D01*
G03X130695Y118480I53J53*
G01X130772*
G03X130844Y118578I0J75*
G01X133776D02*
G03X130844I-1466J462D01*
G01X133776D02*
G03X133848Y118480I72J-23D01*
G01X140980*
X141687Y118187D02*
G03X140980Y118480I-707J-707D01*
G01X141687Y118187D02*
X149507Y110367D01*
X149800Y109660D02*
G03X149507Y110367I-1000J0D01*
G01X149800Y109660D02*
Y106505D01*
G03X149822Y106452I75J0*
G01X152002Y104272*
G03X152055Y104250I53J53*
G01X167769*
G03X167844Y104325I0J75*
G01Y105295*
G03X167769Y105370I-75J-0*
G01X152850*
X152143Y105663D02*
G03X152850Y105370I707J707D01*
G01X152143Y105663D02*
X150543Y107263D01*
X150250Y107970D02*
G03X150543Y107263I1000J0D01*
G01X150250Y107970D02*
Y110735D01*
G03X150228Y110788I-75J-0*
G01X146333Y114683*
X146040Y115390D02*
G03X146333Y114683I1000J0D01*
G01X146040Y115390D02*
Y121830D01*
G03X145996Y121899I-75J0*
G01X145447Y124281D02*
G03X145996Y121899I1183J-982D01*
G01X145447Y124281D02*
G03X145445Y124378I-58J48D01*
G01X148114Y125659D02*
G03X145445Y124378I-1514J-266D01*
G01X148114Y125659D02*
G03X148135Y125619I74J13D01*
G01X148877Y124877*
X149170Y124170D02*
G03X148877Y124877I-1000J0D01*
G01X149170Y124170D02*
Y117498D01*
G03X149214Y117430I75J0*
G01X149307Y114674D02*
G03X149214Y117430I-727J1355D01*
G01X149307Y114674D02*
G03X149289Y114555I35J-66D01*
G01X151957Y111887*
X152250Y111180D02*
G03X151957Y111887I-1000J0D01*
G01X152250Y111180D02*
Y109456D01*
G03X152369Y109396I75J0*
G01X154781Y108431D02*
G03X152369Y109396I-1511J-281D01*
G01X154781Y108431D02*
G03X154855Y108370I74J14D01*
G01X166435*
G03X166488Y108392I-0J75*
G01X166728Y108632*
G03X166750Y108685I-53J53*
G01Y111250*
X167043Y111957D02*
G03X166750Y111250I707J-707D01*
G01X167043Y111957D02*
X167822Y112736D01*
G03X167844Y112789I-53J53*
G01Y112899*
G03X167716Y112952I-75J-0*
G01X164057Y109293*
X163350Y109000D02*
G03X164057Y109293I0J1000D01*
G01X163350Y109000D02*
X155520D01*
X154813Y109293D02*
G03X155520Y109000I707J707D01*
G01X154813Y109293D02*
X153733Y110373D01*
G03X153695Y110393I-53J-53*
G01X155165Y112903D02*
G03X153695Y110393I-1165J-1003D01*
G01X155165Y112903D02*
G03X155263Y112889I57J49D01*
G01X157569Y112053D02*
G03X155263Y112889I-1469J-453D01*
G01X157569Y112053D02*
G03X157641Y112000I72J22D01*
G01X162485*
G03X162538Y112022I-0J75*
G01X165728Y115212*
G03X165750Y115265I-53J53*
G01Y118740*
X166043Y119447D02*
G03X165750Y118740I707J-707D01*
G01X166043Y119447D02*
X166808Y120212D01*
G03X166830Y120265I-53J53*
G01Y124129*
X167123Y124836D02*
G03X166830Y124129I707J-707D01*
G01X167123Y124836D02*
X167822Y125536D01*
G03X167844Y125589I-53J53*
G01Y130115*
X167844*
Y130118*
X167844*
Y130121*
X167844*
Y133075*
G03X167769Y133150I-75J-0*
G01X159151*
G03X159087Y133037I0J-75*
G01X156433D02*
G03X159087I1327J-777D01*
G01X156433D02*
G03X156369Y133150I-64J38D01*
G01X153635*
G03X153582Y133128I0J-75*
G01X149997Y129543*
X149290Y129250D02*
G03X149997Y129543I0J1000D01*
G01X149290Y129250D02*
X140476D01*
X139769Y129543D02*
G03X140476Y129250I707J707D01*
G01X139769Y129543D02*
X133264Y136048D01*
X132971Y136755D02*
G03X133264Y136048I1000J0D01*
G01X132971Y136755D02*
Y136879D01*
G03X132915Y136952I-75J0*
G01X133422Y139973D02*
G03X132915Y136952I-122J-1533D01*
G01X133422Y139973D02*
G03X133501Y140031I6J75D01*
G01X136025Y138544D02*
G03X133501Y140031I-1025J1146D01*
G01X136025Y138544D02*
G03X136000Y138488I50J-56D01*
G01Y137591*
G03X136022Y137538I75J0*
G01X141288Y132272*
G03X141341Y132250I53J53*
G01X141910*
G03X141948Y132390I0J75*
G01X141751Y132543D02*
G03X141948Y132390I707J707D01*
G01X141751Y132543D02*
X137513Y136781D01*
X137220Y137488D02*
G03X137513Y136781I1000J-0D01*
G01X137220Y137488D02*
Y138516D01*
G03X137196Y138571I-75J-0*
G01X139784Y139794D02*
G03X137196Y138571I-1534J-104D01*
G01X139784Y139794D02*
G03X139854Y139725I75J6D01*
G01X141126Y137484D02*
G03X139854Y139725I-1366J706D01*
G01X141126Y137484D02*
G03X141139Y137397I66J-34D01*
G01X143264Y135272*
G03X143317Y135250I53J53*
G01X147055*
G03X147108Y135272I-0J75*
G01X151793Y139957*
X152500Y140250D02*
G03X151793Y139957I0J-1000D01*
G01X152500Y140250D02*
X165475D01*
G03X165528Y140272I-0J75*
G01X165808Y140552*
G03X165830Y140605I-53J53*
G01Y142500*
X166123Y143207D02*
G03X165830Y142500I707J-707D01*
G01X166123Y143207D02*
X166808Y143892D01*
G03X166830Y143945I-53J53*
G01Y147751*
X167123Y148458D02*
G03X166830Y147751I707J-707D01*
G01X167123Y148458D02*
X167822Y149158D01*
G03X167844Y149211I-53J53*
G01Y153559*
X168094Y153809D02*
G03X167844Y153559I0J-250D01*
G01X168094Y153809D02*
X169741D01*
G03X169816Y153884I0J75*
G01X163942Y150886D02*
Y143602D01*
X163692Y143352D02*
G03X163942Y143602I-0J250D01*
G01X163692Y143352D02*
X156408D01*
X156158Y143602D02*
G03X156408Y143352I250J0D01*
G01X156158Y143602D02*
Y150886D01*
X156408Y151136D02*
G03X156158Y150886I0J-250D01*
G01X156408Y151136D02*
X163692D01*
X163942Y150886D02*
G03X163692Y151136I-250J-0D01*
G01X143147Y142570D02*
Y142113D01*
X143074Y141936D02*
G03X143147Y142113I-177J177D01*
G01X143074Y141936D02*
X142207Y141069D01*
X142030Y140996D02*
G03X142207Y141069I0J250D01*
G01X142030Y140996D02*
X141494D01*
X141317Y141069D02*
G03X141494Y140996I177J177D01*
G01X141317Y141069D02*
X140533Y141853D01*
X140460Y142030D02*
G03X140533Y141853I250J0D01*
G01X140460Y142030D02*
Y142905D01*
G03X140438Y142958I-75J0*
G01X140273Y143123*
X140200Y143300D02*
G03X140273Y143123I250J0D01*
G01X140200Y143300D02*
Y144390D01*
X140273Y144567D02*
G03X140200Y144390I177J-177D01*
G01X140273Y144567D02*
X140893Y145187D01*
X141070Y145260D02*
G03X140893Y145187I0J-250D01*
G01X141070Y145260D02*
X142020D01*
X142197Y145187D02*
G03X142020Y145260I-177J-177D01*
G01X142197Y145187D02*
X142807Y144577D01*
X142880Y144400D02*
G03X142807Y144577I-250J0D01*
G01X142880Y144400D02*
Y142972D01*
G03X142902Y142918I75J-0*
G01X143074Y142747*
X143147Y142570D02*
G03X143074Y142747I-250J0D01*
G01X136837Y143791D02*
G03X136837I-1538J0D01*
G01X131637Y138990D02*
G03X131637I-1537J0D01*
G01X132176Y106795D02*
G03X131413Y108863I624J1405D01*
G01X132176Y106795D02*
G03X132163Y106799I-31J-69D01*
X131984Y106820I-179J-760*
G01X124620*
X123913Y107113D02*
G03X124620Y106820I707J707D01*
G01X123913Y107113D02*
X115793Y115233D01*
X115500Y115940D02*
G03X115793Y115233I1000J0D01*
G01X115500Y115940D02*
Y116638D01*
G03X115475Y116694I-75J0*
G01X117525D02*
G03X115475I-1025J1146D01*
G01X117525D02*
G03X117500Y116638I50J-56D01*
G01Y116385*
G03X117522Y116332I75J0*
G01X125012Y108842*
G03X125065Y108820I53J53*
G01X131345*
G03X131413Y108863I0J75*
G01X139514Y106541D02*
G03X138540Y108481I486J1459D01*
G01X139514Y106541D02*
G03X139437Y106523I-23J-71D01*
G01X137697Y104783*
X136990Y104490D02*
G03X137697Y104783I0J1000D01*
G01X136990Y104490D02*
X117050D01*
X116449Y104691D02*
G03X117050Y104490I601J799D01*
G01X116449Y104691D02*
G03X116399Y104706I-45J-60D01*
G01X117806Y106550D02*
G03X116399Y104706I-1506J-310D01*
G01X117806Y106550D02*
G03X117879Y106490I73J15D01*
G01X136545*
G03X136598Y106512I-0J75*
G01X138458Y108372*
G03X138532Y108465I-385J384*
X138540Y108481I-63J40*
G01X134546Y108820D02*
G03X136241Y110025I1504J-321D01*
G01X134546Y108820D02*
G03X134526Y108889I-73J16D01*
G01X133507Y109908*
G03X133454Y109930I-53J-53*
G01X124950*
X124243Y110223D02*
G03X124950Y109930I707J707D01*
G01X124243Y110223D02*
X118523Y115943D01*
X118230Y116650D02*
G03X118523Y115943I1000J0D01*
G01X118230Y116650D02*
Y126425D01*
G03X118208Y126478I-75J-0*
G01X115493Y129193*
X115200Y129900D02*
G03X115493Y129193I1000J0D01*
G01X115200Y129900D02*
Y130538D01*
G03X115175Y130594I-75J0*
G01X117225D02*
G03X115175I-1025J1146D01*
G01X117225D02*
G03X117200Y130538I50J-56D01*
G01Y130345*
G03X117222Y130292I75J0*
G01X119937Y127577*
X120230Y126870D02*
G03X119937Y127577I-1000J0D01*
G01X120230Y126870D02*
Y117095D01*
G03X120252Y117042I75J0*
G01X125342Y111952*
G03X125395Y111930I53J53*
G01X133899*
X134606Y111637D02*
G03X133899Y111930I-707J-707D01*
G01X134606Y111637D02*
X136197Y110046D01*
G03X136241Y110025I53J53*
G01X143015Y105465D02*
G03X141565Y106915I85J1535D01*
G01X143015Y105465D02*
G03X142957Y105443I-5J-75D01*
G01X140057Y102543*
X139350Y102250D02*
G03X140057Y102543I0J1000D01*
G01X139350Y102250D02*
X113990D01*
X113283Y102543D02*
G03X113990Y102250I707J707D01*
G01X113283Y102543D02*
X111153Y104673D01*
G03X111095Y104695I-53J-53*
G01X112545Y106145D02*
G03X111095Y104695I-1535J85D01*
G01X112545Y106145D02*
G03X112567Y106088I75J-4D01*
G01X114382Y104272*
G03X114435Y104250I53J53*
G01X138905*
G03X138958Y104272I-0J75*
G01X141543Y106857*
G03X141565Y106915I-53J53*
G01X144572Y108374D02*
G03X146108Y109737I1528J-174D01*
G01X144572Y108374D02*
G03X144551Y108435I-74J8D01*
G01X142518Y110468*
G03X142465Y110490I-53J-53*
G01X138620*
X137913Y110783D02*
G03X138620Y110490I707J707D01*
G01X137913Y110783D02*
X136598Y112098D01*
G03X136545Y112120I-53J-53*
G01X126130*
X125423Y112413D02*
G03X126130Y112120I707J707D01*
G01X125423Y112413D02*
X120743Y117093D01*
X120450Y117800D02*
G03X120743Y117093I1000J0D01*
G01X120450Y117800D02*
Y127675D01*
G03X120428Y127728I-75J-0*
G01X118893Y129263*
X118600Y129970D02*
G03X118893Y129263I1000J0D01*
G01X118600Y129970D02*
Y130538D01*
G03X118575Y130594I-75J0*
G01X120625D02*
G03X118575I-1025J1146D01*
G01X120625D02*
G03X120600Y130538I50J-56D01*
G01Y130415*
G03X120622Y130362I75J0*
G01X122157Y128827*
X122450Y128120D02*
G03X122157Y128827I-1000J0D01*
G01X122450Y128120D02*
Y118245D01*
G03X122472Y118192I75J0*
G01X126522Y114142*
G03X126575Y114120I53J53*
G01X136990*
X137697Y113827D02*
G03X136990Y114120I-707J-707D01*
G01X137697Y113827D02*
X139012Y112512D01*
G03X139065Y112490I53J53*
G01X142910*
X143617Y112197D02*
G03X142910Y112490I-707J-707D01*
G01X143617Y112197D02*
X146055Y109759D01*
G03X146108Y109737I53J53*
G01X138678Y114226D02*
G03X140115Y115975I1522J214D01*
G01X138678Y114226D02*
G03X138603Y114290I-75J-11D01*
G01X127560*
X126853Y114583D02*
G03X127560Y114290I707J707D01*
G01X126853Y114583D02*
X123843Y117593D01*
X123550Y118300D02*
G03X123843Y117593I1000J0D01*
G01X123550Y118300D02*
Y129745D01*
G03X123528Y129798I-75J-0*
G01X123143Y130183*
G03X123085Y130205I-53J-53*
G01X124535Y131655D02*
G03X123085Y130205I-1535J85D01*
G01X124535Y131655D02*
G03X124557Y131598I75J-4D01*
G01X125257Y130897*
X125550Y130190D02*
G03X125257Y130897I-1000J0D01*
G01X125550Y130190D02*
Y118745D01*
G03X125572Y118692I75J0*
G01X127952Y116312*
G03X128005Y116290I53J53*
G01X139350*
X140057Y115997D02*
G03X139350Y116290I-707J-707D01*
G01X140057Y115997D02*
X140057D01*
G03X140115Y115975I53J53*
G01X133337Y129330D02*
G03X133337I-1537J0D01*
G01X101050Y155149D02*
X169816D01*
X101050Y154699D02*
X169816D01*
X101050Y154249D02*
X169816D01*
X102844Y153799D02*
X168022D01*
X103022Y153349D02*
X167844D01*
X103022Y152899D02*
X167844D01*
X103022Y152449D02*
X167844D01*
X103022Y151999D02*
X167844D01*
X103022Y151549D02*
X167844D01*
X163823Y151099D02*
X167844D01*
X163942Y150649D02*
X167844D01*
X163942Y150199D02*
X167844D01*
X163942Y149749D02*
X167844D01*
X163942Y149299D02*
X167844D01*
X159247Y132649D02*
X167844D01*
X159296Y132199D02*
X167844D01*
X159210Y131749D02*
X167844D01*
X158960Y131299D02*
X167844D01*
X158370Y130849D02*
X167844D01*
X150853Y130399D02*
X167844D01*
X150403Y129949D02*
X167844D01*
X149950Y129499D02*
X167844D01*
X133311Y129049D02*
X167844D01*
X133152Y128599D02*
X167844D01*
X132784Y128149D02*
X167844D01*
X125550Y127699D02*
X167844D01*
X125550Y127249D02*
X167844D01*
X147223Y126799D02*
X167844D01*
X147804Y126349D02*
X167844D01*
X148052Y125899D02*
X167844D01*
X167613Y112849D02*
X167844D01*
X151076Y105199D02*
X167844D01*
X151526Y104749D02*
X167844D01*
X101050Y102049D02*
X167844D01*
X101050Y101599D02*
X167844D01*
X101050Y101149D02*
X167844D01*
X159080Y133099D02*
X167840D01*
X151976Y104299D02*
X167839D01*
X148306Y125449D02*
X167735D01*
X163942Y148849D02*
X167513D01*
X167163Y112399D02*
X167484D01*
X148756Y124999D02*
X167285D01*
X163942Y148399D02*
X167068D01*
X166713Y111949D02*
X167035D01*
X149096Y124549D02*
X166922D01*
X163942Y147949D02*
X166850D01*
X163942Y147499D02*
X166830D01*
X163942Y147049D02*
X166830D01*
X163942Y146599D02*
X166830D01*
X163942Y146149D02*
X166830D01*
X163942Y145699D02*
X166830D01*
X163942Y145249D02*
X166830D01*
X163942Y144799D02*
X166830D01*
X163942Y144349D02*
X166830D01*
X149170Y124099D02*
X166830D01*
X149170Y123649D02*
X166830D01*
X149170Y123199D02*
X166830D01*
X149170Y122749D02*
X166830D01*
X149170Y122299D02*
X166830D01*
X149170Y121849D02*
X166830D01*
X149170Y121399D02*
X166830D01*
X149170Y120949D02*
X166830D01*
X149170Y120499D02*
X166830D01*
X163942Y143899D02*
X166814D01*
X166263Y111499D02*
X166781D01*
X165813Y111049D02*
X166750D01*
X165363Y110599D02*
X166750D01*
X164913Y110149D02*
X166750D01*
X164463Y109699D02*
X166750D01*
X164010Y109249D02*
X166750D01*
X154664Y108799D02*
X166750D01*
X149170Y120049D02*
X166644D01*
X163889Y143449D02*
X166364D01*
X149170Y119599D02*
X166194D01*
X142880Y142999D02*
X165963D01*
X149170Y119149D02*
X165837D01*
X143147Y142549D02*
X165831D01*
X143146Y142099D02*
X165830D01*
X142786Y141649D02*
X165830D01*
X142336Y141199D02*
X165830D01*
X139365Y140749D02*
X165830D01*
X149170Y118699D02*
X165750D01*
X149170Y118249D02*
X165750D01*
X149170Y117799D02*
X165750D01*
X149369Y117349D02*
X165750D01*
X149848Y116899D02*
X165750D01*
X150059Y116449D02*
X165750D01*
X150117Y115999D02*
X165750D01*
X150040Y115549D02*
X165750D01*
X149804Y115099D02*
X165614D01*
X139662Y140299D02*
X165554D01*
X149279Y114649D02*
X165164D01*
X149646Y114199D02*
X164714D01*
X150096Y113749D02*
X164264D01*
X154638Y113299D02*
X163814D01*
X156997Y112849D02*
X163364D01*
X157414Y112399D02*
X162914D01*
X151303Y130849D02*
X157150D01*
X151753Y131299D02*
X156560D01*
X153553Y133099D02*
X156440D01*
X152203Y131749D02*
X156310D01*
X103022Y151099D02*
X156277D01*
X153103Y132649D02*
X156273D01*
X152653Y132199D02*
X156224D01*
X142880Y143449D02*
X156211D01*
X103022Y150649D02*
X156158D01*
X103022Y150199D02*
X156158D01*
X103022Y149749D02*
X156158D01*
X103022Y149299D02*
X156158D01*
X103022Y148849D02*
X156158D01*
X103022Y148399D02*
X156158D01*
X103022Y147949D02*
X156158D01*
X103022Y147499D02*
X156158D01*
X103022Y147049D02*
X156158D01*
X103022Y146599D02*
X156158D01*
X103022Y146149D02*
X156158D01*
X103022Y145699D02*
X156158D01*
X142094Y145249D02*
X156158D01*
X142585Y144799D02*
X156158D01*
X142880Y144349D02*
X156158D01*
X142880Y143899D02*
X156158D01*
X154345Y109249D02*
X154860D01*
X152250Y109699D02*
X154407D01*
X152250Y110149D02*
X153957D01*
X150546Y113299D02*
X153362D01*
X152250Y110599D02*
X153181D01*
X150996Y112849D02*
X152790D01*
X152250Y111049D02*
X152720D01*
X151446Y112399D02*
X152546D01*
X152198Y111499D02*
X152516D01*
X151896Y111949D02*
X152463D01*
X150626Y105649D02*
X152157D01*
X150176Y106099D02*
X151707D01*
X139779Y139849D02*
X151684D01*
X149800Y106549D02*
X151257D01*
X140710Y139399D02*
X151234D01*
X140010Y102499D02*
X150950D01*
X149800Y106999D02*
X150807D01*
X141097Y138949D02*
X150784D01*
X140463Y102949D02*
X150497D01*
X149800Y107449D02*
X150397D01*
X141266Y138499D02*
X150334D01*
X149800Y107899D02*
X150253D01*
X149276Y110599D02*
X150250D01*
X149672Y110149D02*
X150250D01*
X149799Y109699D02*
X150250D01*
X149800Y109249D02*
X150250D01*
X149800Y108799D02*
X150250D01*
X149800Y108349D02*
X150250D01*
X140913Y103399D02*
X150047D01*
X148826Y111049D02*
X149967D01*
X141291Y138049D02*
X149884D01*
X141363Y103849D02*
X149597D01*
X148376Y111499D02*
X149517D01*
X141179Y137599D02*
X149434D01*
X141813Y104299D02*
X149147D01*
X147926Y111949D02*
X149067D01*
X141388Y137149D02*
X148984D01*
X142263Y104749D02*
X148697D01*
X147476Y112399D02*
X148617D01*
X141838Y136699D02*
X148534D01*
X142713Y105199D02*
X148247D01*
X147026Y112849D02*
X148167D01*
X142288Y136249D02*
X148084D01*
X143833Y105649D02*
X147888D01*
X147516Y108799D02*
X147800D01*
X147630Y108349D02*
X147800D01*
X147608Y107899D02*
X147800D01*
X147441Y107449D02*
X147800D01*
X147059Y106999D02*
X147800D01*
X144570Y106549D02*
X147800D01*
X144346Y106099D02*
X147800D01*
X147224Y109249D02*
X147792D01*
X146576Y113299D02*
X147717D01*
X142738Y135799D02*
X147634D01*
X146443Y109699D02*
X147347D01*
X146126Y113749D02*
X147267D01*
X143188Y135349D02*
X147184D01*
X145666Y110149D02*
X146897D01*
X145676Y114199D02*
X146817D01*
X145216Y110599D02*
X146447D01*
X145226Y114649D02*
X146367D01*
X144776Y115099D02*
X146083D01*
X125550Y121399D02*
X146040D01*
X127698Y120949D02*
X146040D01*
X132796Y120499D02*
X146040D01*
X133470Y120049D02*
X146040D01*
X133742Y119599D02*
X146040D01*
X133844Y119149D02*
X146040D01*
X133809Y118699D02*
X146040D01*
X141620Y118249D02*
X146040D01*
X142076Y117799D02*
X146040D01*
X142526Y117349D02*
X146040D01*
X142976Y116899D02*
X146040D01*
X143426Y116449D02*
X146040D01*
X143876Y115999D02*
X146040D01*
X144326Y115549D02*
X146040D01*
X125550Y121849D02*
X146038D01*
X144766Y111049D02*
X145997D01*
X125550Y126799D02*
X145977D01*
X144316Y111499D02*
X145547D01*
X125550Y122299D02*
X145463D01*
X125550Y126349D02*
X145396D01*
X125550Y124099D02*
X145317D01*
X125550Y124549D02*
X145315D01*
X125550Y122749D02*
X145195D01*
X125550Y125899D02*
X145148D01*
X144637Y106999D02*
X145141D01*
X125550Y123649D02*
X145133D01*
X125550Y124999D02*
X145114D01*
X143866Y111949D02*
X145097D01*
X125550Y123199D02*
X145096D01*
X125550Y125449D02*
X145064D01*
X144570Y107449D02*
X144759D01*
X143328Y112399D02*
X144647D01*
X144347Y107899D02*
X144592D01*
X143838Y108349D02*
X144570D01*
X138676Y112849D02*
X144197D01*
X141314Y108799D02*
X144187D01*
X141230Y113299D02*
X143747D01*
X140897Y109249D02*
X143737D01*
X141573Y113749D02*
X143297D01*
X137012Y109699D02*
X143287D01*
X141718Y114199D02*
X142847D01*
X136095Y110149D02*
X142837D01*
X141723Y114649D02*
X142397D01*
X141497Y108349D02*
X142362D01*
X141589Y115099D02*
X141947D01*
X141534Y107899D02*
X141853D01*
X140911Y132649D02*
X141645D01*
X141435Y107449D02*
X141630D01*
X141167Y106999D02*
X141563D01*
X141265Y115549D02*
X141497D01*
X140507Y106549D02*
X141234D01*
X140461Y133099D02*
X141195D01*
X138547Y141199D02*
X141188D01*
X140056Y115999D02*
X141047D01*
X135789Y145249D02*
X140996D01*
X139013Y106099D02*
X140784D01*
X140011Y133549D02*
X140745D01*
X104647Y141649D02*
X140738D01*
X127816Y116449D02*
X140597D01*
X136461Y144799D02*
X140505D01*
X136204Y142549D02*
X140460D01*
X104197Y142099D02*
X140460D01*
X136617Y142999D02*
X140398D01*
X138563Y105649D02*
X140334D01*
X139561Y133999D02*
X140295D01*
X136732Y144349D02*
X140200D01*
X136833Y143899D02*
X140200D01*
X136798Y143449D02*
X140200D01*
X138113Y105199D02*
X139884D01*
X139111Y134449D02*
X139845D01*
X133328Y129499D02*
X139816D01*
X137661Y104749D02*
X139434D01*
X138661Y134899D02*
X139395D01*
X133208Y129949D02*
X139363D01*
X138226Y113299D02*
X139170D01*
X137392Y109249D02*
X139103D01*
X114356Y104299D02*
X138984D01*
X138211Y135349D02*
X138945D01*
X132905Y130399D02*
X138913D01*
X137776Y113749D02*
X138827D01*
X137558Y108799D02*
X138686D01*
X126466Y114199D02*
X138682D01*
X137761Y135799D02*
X138495D01*
X132040Y130849D02*
X138463D01*
X137580Y108349D02*
X138434D01*
X135645Y110599D02*
X138167D01*
X137311Y136249D02*
X138045D01*
X124856Y131299D02*
X138013D01*
X137465Y107899D02*
X137984D01*
X135297Y141199D02*
X137953D01*
X135195Y111049D02*
X137647D01*
X136861Y136699D02*
X137595D01*
X124537Y131749D02*
X137563D01*
X137173Y107449D02*
X137534D01*
X136411Y137149D02*
X137279D01*
X136001Y138499D02*
X137220D01*
X136000Y138049D02*
X137220D01*
X136000Y137599D02*
X137220D01*
X134745Y111499D02*
X137197D01*
X136115Y140749D02*
X137135D01*
X124467Y132199D02*
X137113D01*
X136385Y106999D02*
X137084D01*
X136347Y138949D02*
X136903D01*
X136412Y140299D02*
X136838D01*
X125346Y111949D02*
X136747D01*
X136510Y139399D02*
X136740D01*
X136529Y139849D02*
X136721D01*
X124240Y132649D02*
X136663D01*
X117806Y106549D02*
X136634D01*
X123720Y133099D02*
X136213D01*
X104030Y133549D02*
X135763D01*
X133759Y106999D02*
X135715D01*
X104030Y133999D02*
X135313D01*
X134141Y107449D02*
X134927D01*
X104030Y134449D02*
X134863D01*
X103022Y145249D02*
X134810D01*
X105097Y141199D02*
X134703D01*
X134308Y107899D02*
X134635D01*
X134216Y108799D02*
X134542D01*
X134330Y108349D02*
X134520D01*
X129280Y134899D02*
X134413D01*
X103747Y142549D02*
X134394D01*
X133924Y109249D02*
X134166D01*
X103022Y144799D02*
X134138D01*
X103297Y142999D02*
X133982D01*
X129623Y135349D02*
X133963D01*
X105547Y140749D02*
X133885D01*
X103022Y144349D02*
X133866D01*
X103022Y143449D02*
X133800D01*
X103022Y143899D02*
X133766D01*
X133143Y109699D02*
X133716D01*
X130907Y140299D02*
X133588D01*
X129768Y135799D02*
X133513D01*
X129773Y136249D02*
X133109D01*
X129639Y136699D02*
X132972D01*
X131375Y139849D02*
X132684D01*
X129315Y137149D02*
X132466D01*
X124156Y109699D02*
X132457D01*
X131582Y139399D02*
X132098D01*
X130754Y137599D02*
X132013D01*
X131637Y138949D02*
X131849D01*
X128400Y120499D02*
X131824D01*
X131315Y138049D02*
X131813D01*
X131557Y138499D02*
X131764D01*
X124606Y109249D02*
X131676D01*
X125303Y130849D02*
X131560D01*
X129096Y120049D02*
X131150D01*
X129546Y119599D02*
X130878D01*
X125550Y128149D02*
X130816D01*
X130446Y118699D02*
X130811D01*
X129996Y119149D02*
X130776D01*
X125528Y130399D02*
X130695D01*
X125550Y128599D02*
X130448D01*
X125550Y129949D02*
X130392D01*
X125550Y129049D02*
X130289D01*
X125550Y129499D02*
X130272D01*
X108697Y137599D02*
X129446D01*
X127366Y116899D02*
X129417D01*
X105997Y140299D02*
X129293D01*
X126916Y117349D02*
X128967D01*
X108247Y138049D02*
X128885D01*
X106447Y139849D02*
X128825D01*
X107797Y138499D02*
X128643D01*
X106897Y139399D02*
X128618D01*
X107347Y138949D02*
X128563D01*
X126466Y117799D02*
X128517D01*
X104030Y134899D02*
X127220D01*
X109147Y137149D02*
X127185D01*
X125550Y120949D02*
X126802D01*
X126016Y114649D02*
X126787D01*
X125566Y115099D02*
X126337D01*
X126016Y118249D02*
X126327D01*
X125550Y120499D02*
X126100D01*
X125566Y118699D02*
X125925D01*
X125116Y115549D02*
X125887D01*
X125550Y120049D02*
X125822D01*
X125550Y119149D02*
X125748D01*
X125550Y119599D02*
X125717D01*
X124896Y112399D02*
X125438D01*
X124666Y115999D02*
X125437D01*
X124216Y116449D02*
X124987D01*
X124446Y112849D02*
X124987D01*
X123766Y116899D02*
X124537D01*
X123996Y113299D02*
X124537D01*
X123706Y110149D02*
X124326D01*
X123316Y117349D02*
X124087D01*
X123546Y113749D02*
X124087D01*
X117637Y106999D02*
X124050D01*
X123256Y110599D02*
X123867D01*
X122866Y117799D02*
X123685D01*
X123096Y114199D02*
X123637D01*
X117250Y107449D02*
X123577D01*
X122450Y118249D02*
X123551D01*
X121486Y129499D02*
X123550D01*
X121936Y129049D02*
X123550D01*
X122328Y128599D02*
X123550D01*
X122450Y128149D02*
X123550D01*
X122450Y127699D02*
X123550D01*
X122450Y127249D02*
X123550D01*
X122450Y126799D02*
X123550D01*
X122450Y126349D02*
X123550D01*
X122450Y125899D02*
X123550D01*
X122450Y125449D02*
X123550D01*
X122450Y124999D02*
X123550D01*
X122450Y124549D02*
X123550D01*
X122450Y124099D02*
X123550D01*
X122450Y123649D02*
X123550D01*
X122450Y123199D02*
X123550D01*
X122450Y122749D02*
X123550D01*
X122450Y122299D02*
X123550D01*
X122450Y121849D02*
X123550D01*
X122450Y121399D02*
X123550D01*
X122450Y120949D02*
X123550D01*
X122450Y120499D02*
X123550D01*
X122450Y120049D02*
X123550D01*
X122450Y119599D02*
X123550D01*
X122450Y119149D02*
X123550D01*
X122450Y118699D02*
X123550D01*
X122806Y111049D02*
X123417D01*
X121036Y129949D02*
X123377D01*
X122646Y114649D02*
X123187D01*
X103022Y107899D02*
X123127D01*
X122356Y111499D02*
X122967D01*
X122196Y115099D02*
X122737D01*
X103022Y108349D02*
X122677D01*
X121906Y111949D02*
X122517D01*
X121746Y115549D02*
X122287D01*
X120320Y133099D02*
X122280D01*
X120602Y130399D02*
X122249D01*
X103022Y108799D02*
X122227D01*
X121456Y112399D02*
X122067D01*
X121296Y115999D02*
X121837D01*
X103022Y109249D02*
X121777D01*
X120840Y132649D02*
X121760D01*
X120853Y130849D02*
X121747D01*
X121006Y112849D02*
X121617D01*
X121067Y132199D02*
X121533D01*
X121073Y131299D02*
X121527D01*
X121137Y131749D02*
X121463D01*
X120846Y116449D02*
X121387D01*
X103022Y109699D02*
X121327D01*
X120556Y113299D02*
X121167D01*
X120396Y116899D02*
X120937D01*
X103022Y110149D02*
X120877D01*
X120106Y113749D02*
X120717D01*
X120230Y117349D02*
X120558D01*
X120156Y127249D02*
X120450D01*
X120230Y126799D02*
X120450D01*
X120230Y126349D02*
X120450D01*
X120230Y125899D02*
X120450D01*
X120230Y125449D02*
X120450D01*
X120230Y124999D02*
X120450D01*
X120230Y124549D02*
X120450D01*
X120230Y124099D02*
X120450D01*
X120230Y123649D02*
X120450D01*
X120230Y123199D02*
X120450D01*
X120230Y122749D02*
X120450D01*
X120230Y122299D02*
X120450D01*
X120230Y121849D02*
X120450D01*
X120230Y121399D02*
X120450D01*
X120230Y120949D02*
X120450D01*
X120230Y120499D02*
X120450D01*
X120230Y120049D02*
X120450D01*
X120230Y119599D02*
X120450D01*
X120230Y119149D02*
X120450D01*
X120230Y118699D02*
X120450D01*
X120230Y118249D02*
X120450D01*
X120230Y117799D02*
X120450D01*
X119816Y127699D02*
X120446D01*
X103022Y110599D02*
X120427D01*
X119656Y114199D02*
X120267D01*
X119366Y128149D02*
X120007D01*
X103026Y111049D02*
X119977D01*
X119206Y114649D02*
X119817D01*
X118916Y128599D02*
X119557D01*
X103464Y111499D02*
X119527D01*
X118756Y115099D02*
X119367D01*
X118466Y129049D02*
X119107D01*
X103882Y111949D02*
X119077D01*
X118306Y115549D02*
X118917D01*
X116920Y133099D02*
X118880D01*
X118016Y129499D02*
X118718D01*
X104036Y112399D02*
X118627D01*
X117566Y129949D02*
X118600D01*
X117200Y130399D02*
X118600D01*
X117856Y115999D02*
X118471D01*
X117440Y132649D02*
X118360D01*
X117453Y130849D02*
X118347D01*
X117500Y116449D02*
X118250D01*
X114583Y126349D02*
X118230D01*
X113870Y125899D02*
X118230D01*
X114565Y125449D02*
X118230D01*
X114889Y124999D02*
X118230D01*
X115023Y124549D02*
X118230D01*
X115018Y124099D02*
X118230D01*
X114873Y123649D02*
X118230D01*
X114530Y123199D02*
X118230D01*
X113882Y122749D02*
X118230D01*
X114615Y122299D02*
X118230D01*
X114912Y121849D02*
X118230D01*
X115029Y121399D02*
X118230D01*
X115010Y120949D02*
X118230D01*
X114847Y120499D02*
X118230D01*
X114472Y120049D02*
X118230D01*
X105451Y119599D02*
X118230D01*
X117307Y119149D02*
X118230D01*
X117775Y118699D02*
X118230D01*
X117982Y118249D02*
X118230D01*
X118037Y117799D02*
X118230D01*
X117957Y117349D02*
X118230D01*
X117715Y116899D02*
X118230D01*
X104040Y112849D02*
X118177D01*
X117667Y132199D02*
X118133D01*
X117673Y131299D02*
X118127D01*
X117737Y131749D02*
X118063D01*
X114897Y126799D02*
X117887D01*
X104040Y113299D02*
X117727D01*
X115025Y127249D02*
X117437D01*
X104040Y113749D02*
X117277D01*
X115016Y127699D02*
X116987D01*
X104040Y114199D02*
X116827D01*
X114864Y128149D02*
X116537D01*
X104040Y114649D02*
X116377D01*
X114511Y128599D02*
X116087D01*
X104040Y115099D02*
X115927D01*
X113906Y104749D02*
X115927D01*
X105450Y119149D02*
X115693D01*
X113536Y129049D02*
X115637D01*
X104040Y115549D02*
X115580D01*
X104523Y116449D02*
X115500D01*
X104073Y115999D02*
X115500D01*
X104030Y133099D02*
X115480D01*
X111947Y107449D02*
X115350D01*
X104973Y116899D02*
X115285D01*
X113451Y129499D02*
X115284D01*
X105450Y118699D02*
X115225D01*
X112616Y130399D02*
X115200D01*
X113202Y129949D02*
X115200D01*
X113456Y105199D02*
X115169D01*
X105347Y117349D02*
X115043D01*
X105450Y118249D02*
X115018D01*
X105450Y117799D02*
X114963D01*
X112342Y106999D02*
X114963D01*
X104266Y132649D02*
X114960D01*
X106066Y130849D02*
X114947D01*
X113006Y105649D02*
X114881D01*
X112514Y106549D02*
X114794D01*
X112558Y106099D02*
X114769D01*
X104716Y132199D02*
X114733D01*
X105616Y131299D02*
X114727D01*
X105166Y131749D02*
X114663D01*
X101050Y102499D02*
X113330D01*
X101050Y102949D02*
X112877D01*
X105883Y120049D02*
X112528D01*
X101050Y103399D02*
X112427D01*
X101050Y103849D02*
X111977D01*
X101050Y104299D02*
X111527D01*
X106516Y130399D02*
X111384D01*
X101050Y104749D02*
X110599D01*
X103022Y107449D02*
X110073D01*
X101050Y105199D02*
X109870D01*
X103022Y106999D02*
X109678D01*
X101050Y105649D02*
X109587D01*
X103022Y106549D02*
X109506D01*
X101050Y106099D02*
X109478D01*
X104030Y135349D02*
X108119D01*
X104030Y135799D02*
X107669D01*
X103983Y136249D02*
X107219D01*
X103692Y136699D02*
X106769D01*
X103242Y137149D02*
X106319D01*
X103022Y137599D02*
X105869D01*
X103022Y138049D02*
X105419D01*
X103022Y138499D02*
X104969D01*
X103022Y138949D02*
X104519D01*
X103022Y139399D02*
X104069D01*
X103022Y139849D02*
X103619D01*
X103030Y140299D02*
X103169D01*
X167623Y138049D02*
X167844D01*
X167173Y137599D02*
X167844D01*
X153243Y137149D02*
X167624D01*
X152793Y136699D02*
X167174D01*
X152343Y136249D02*
X166724D01*
G54D101*
X170866Y138976D03*
Y115354D03*
Y109449D03*
X100000Y150787D03*
Y144882D03*
Y138976D03*
Y133071D03*
Y127165D03*
Y121260D03*
Y115354D03*
Y109449D03*
Y103543D03*
X170866D03*
Y121260D03*
Y127165D03*
Y133071D03*
Y144882D03*
Y150787D03*
G54D102*
X111010Y106230D03*
X127250Y119478D03*
X132800Y108200D03*
X116500Y117840D03*
X140200Y114440D03*
X140000Y108000D03*
X116300Y106240D03*
X136050Y108499D03*
X105676Y103150D03*
X105200Y105640D03*
X134550Y107040D03*
X105200Y114890D03*
X117640Y119660D03*
X122097Y107041D03*
X133200Y101640D03*
X138710Y104900D03*
X114400Y105240D03*
X119200Y101640D03*
X112150Y118240D03*
X126200Y101640D03*
X128520Y116840D03*
X108700Y103040D03*
X127800Y109380D03*
X112200Y101640D03*
X140200D03*
X105200Y110390D03*
X107500Y118210D03*
X123000Y118840D03*
X132310Y119040D03*
X146100Y108200D03*
X143100Y107000D03*
X154000Y111900D03*
X153270Y108150D03*
X148580Y116029D03*
X156100Y111600D03*
X152850Y104800D03*
X160120Y112550D03*
X163622Y114100D03*
X165707Y109689D03*
X165700Y104800D03*
X145130Y106110D03*
X164870Y115850D03*
X157530Y114590D03*
X158700Y104800D03*
X165700Y101640D03*
X165130Y118750D03*
X152850Y101640D03*
X143600Y103040D03*
X149290Y102930D03*
X155118Y115500D03*
X153020Y117400D03*
X150340Y106700D03*
X158700Y101640D03*
X119600Y131740D03*
X138250Y139690D03*
X139760Y138190D03*
X135000Y139690D03*
X112000Y122790D03*
X133300Y138440D03*
X113500Y124340D03*
X112000Y128990D03*
Y125890D03*
X113500Y127440D03*
Y121240D03*
X128250Y136040D03*
X123000Y131740D03*
X116200D03*
X106915Y148292D03*
X110514Y152493D03*
X122715Y152518D03*
X101700Y154549D03*
X134279Y124213D03*
X117000Y143240D03*
X105200Y132740D03*
X127500Y138740D03*
X137035Y128543D03*
X122010Y143240D03*
X128400Y148140D03*
X118300D03*
X135886Y146655D03*
X105200Y152299D03*
X116677Y152456D03*
X137910Y149500D03*
X127500Y142040D03*
X121310Y130530D03*
X128628Y152518D03*
X117900Y130530D03*
X133500Y148140D03*
X137035Y121457D03*
X112100Y143240D03*
X127100Y134170D03*
X113500Y131240D03*
X137035Y131299D03*
X133790Y141460D03*
X113700Y154549D03*
X134279Y128543D03*
X137035Y124213D03*
X119700Y154549D03*
X136630Y141000D03*
X112660Y148140D03*
X139980Y145400D03*
X105200Y142490D03*
X130800Y150449D03*
X134591Y152543D03*
X107700Y154549D03*
X137700D03*
X124000Y148140D03*
X131700Y154549D03*
X105200Y136840D03*
X110700Y131240D03*
X125700Y154549D03*
X107840Y131210D03*
X135299Y143791D03*
X130100Y138990D03*
X131800Y129330D03*
X147680Y154656D03*
X151255Y154681D03*
X154806Y151205D03*
X146630Y123299D03*
X146600Y125393D03*
X140730Y148340D03*
X152180Y140990D03*
X154550Y143250D03*
X165200Y142200D03*
X143980Y144060D03*
X143700Y154549D03*
X165573Y132221D03*
X165730Y146520D03*
X154750Y154120D03*
X151343Y123052D03*
X161000Y136700D03*
X165720Y150099D03*
X157656Y129991D03*
X169100Y154549D03*
X165520Y154030D03*
X141365Y128543D03*
X144121D03*
X144770Y149360D03*
X146650Y151370D03*
X149380Y152150D03*
X149500Y143424D03*
X149375Y146174D03*
X152110Y152140D03*
X141365Y121457D03*
X142420Y146040D03*
X149375Y140924D03*
X144121Y124213D03*
X152100Y143190D03*
X141365Y124213D03*
X149413Y138398D03*
X156400Y136700D03*
X165700Y121840D03*
X152980Y120649D03*
X165700Y124540D03*
Y127240D03*
X165500Y136700D03*
X165723Y129921D03*
X140642Y152481D03*
X162984Y132591D03*
X153693Y129978D03*
X141550Y143880D03*
X144000Y141490D03*
X153600Y136700D03*
X142740Y148430D03*
X154640Y140800D03*
X157760Y132260D03*
G74*
X0Y0D02*
M02*
