*
*
G04 PADS 9.5 Build Number: 522968 generated Gerber (RS-274-X) file*
G04 PC Version=2.1*
*
%IN "PCB_ESP32-C3-WROOM-02U_"*%
*
%MOIN*%
*
%FSLAX35Y35*%
*
*
*
*
G04 PC Standard Apertures*
*
*
G04 Thermal Relief Aperture macro.*
%AMTER*
1,1,$1,0,0*
1,0,$1-$2,0,0*
21,0,$3,$4,0,0,45*
21,0,$3,$4,0,0,135*
%
*
*
G04 Annular Aperture macro.*
%AMANN*
1,1,$1,0,0*
1,0,$2,0,0*
%
*
*
G04 Odd Aperture macro.*
%AMODD*
1,1,$1,0,0*
1,0,$1-0.005,0,0*
%
*
*
G04 PC Custom Aperture Macros*
*
*
*
*
*
*
G04 PC Aperture Table*
*
%ADD010C,0.001*%
%ADD027C,0.00394*%
%ADD028C,0.015*%
%ADD037C,0.005*%
%ADD102C,0.01575*%
%ADD114R,0.06693X0.03543*%
*
*
*
*
G04 PC Circuitry*
G04 Layer Name PCB_ESP32-C3-WROOM-02U_ - circuitry*
%LPD*%
*
*
G04 PC Custom Flashes*
G04 Layer Name PCB_ESP32-C3-WROOM-02U_ - flashes*
%LPD*%
*
*
G04 PC Circuitry*
G04 Layer Name PCB_ESP32-C3-WROOM-02U_ - circuitry*
%LPD*%
*
G54D10*
G54D27*
G01X100000Y156299D02*
X170866D01*
Y100000*
X100000*
Y156299*
G54D28*
X135299Y143791D02*
X138709Y143790D01*
X142961Y139539*
Y135213*
X144633Y133540*
X151338*
X152619Y132260*
X157760*
X130100Y138990D02*
Y136914D01*
X131800Y135214*
Y129330*
Y119540*
X131810*
X132310Y119040*
G54D37*
X154807Y108150D02*
G75*
G03X154807I-1537J0D01*
G01X144637Y107000D02*
G03X144637I-1537J0D01*
G01X147637Y108200D02*
G03X147637I-1537J0D01*
G01X150117Y116029D02*
G03X150117I-1537J0D01*
G01X141537Y108000D02*
G03X141537I-1537J0D01*
G01X141737Y114440D02*
G03X141737I-1537J0D01*
G01X124537Y131740D02*
G03X124537I-1537J0D01*
G01X121137D02*
G03X121137I-1537J0D01*
G01X117837Y106240D02*
G03X117837I-1537J0D01*
G01X118037Y117840D02*
G03X118037I-1537J0D01*
G01X112547Y106230D02*
G03X112547I-1537J0D01*
G01X117737Y131740D02*
G03X117737I-1537J0D01*
G01X128787Y119478D02*
G03X128787I-1537J0D01*
G01X137587Y108499D02*
G03X137587I-1537J0D01*
G01X134337Y108200D02*
G03X134337I-1537J0D01*
G01X169816Y153884D02*
Y155174D01*
G03X169741Y155249I-75J0*
G01X101125*
G03X101050Y155174I0J-75*
G01Y153884*
G03X101125Y153809I75J0*
G01X104350*
X104600Y153559D02*
G03X104350Y153809I-250J0D01*
G01X104600Y153559D02*
Y147838D01*
Y147835*
Y147834*
Y147832*
Y141932*
Y141929*
X104600*
Y141926*
Y136027*
Y136024*
Y136023*
Y136021*
Y130121*
Y130118*
X104600*
Y130115*
Y124216*
Y124213*
Y124212*
Y124210*
Y118310*
Y118307*
X104600*
Y118304*
Y112405*
Y112402*
Y112401*
Y112399*
Y106499*
X104350Y106249D02*
G03X104600Y106499I0J250D01*
G01X104350Y106249D02*
X101125D01*
G03X101050Y106174I0J-75*
G01Y101125*
G03X101125Y101050I75J0*
G01X166191*
G03X166266Y101125I0J75*
G01Y106493*
X166266*
Y106496*
X166266*
Y106499*
X166266*
Y112399*
X166266*
Y112401*
Y112402*
Y112405*
Y112404*
Y118304*
X166266*
Y118307*
X166266*
Y118310*
X166266*
Y124210*
X166266*
Y124212*
Y124213*
Y124216*
Y124215*
Y130115*
X166266*
Y130118*
X166266*
Y130121*
X166266*
Y136021*
X166266*
Y136023*
Y136024*
Y136027*
Y136026*
Y141926*
X166266*
Y141929*
X166266*
Y141932*
X166266*
Y147832*
X166266*
Y147834*
Y147835*
Y147838*
Y147837*
Y153559*
X166516Y153809D02*
G03X166266Y153559I0J-250D01*
G01X166516Y153809D02*
X169741D01*
G03X169816Y153884I0J75*
G01X154807Y108150D02*
G03X154807I-1537J0D01*
G01X154935Y110597D02*
G03X155263Y112889I1165J1003D01*
G01X154935Y110597D02*
G03X154837Y110611I-57J-49D01*
G01X155165Y112903D02*
G03X154837Y110611I-1165J-1003D01*
G01X155165Y112903D02*
G03X155263Y112889I57J49D01*
G01X144637Y107000D02*
G03X144637I-1537J0D01*
G01X147637Y108200D02*
G03X147637I-1537J0D01*
G01X150117Y116029D02*
G03X150117I-1537J0D01*
G01X145447Y124281D02*
G03X147785Y124314I1183J-982D01*
G01X145447Y124281D02*
G03X145445Y124378I-58J48D01*
G01X147783Y124412D02*
G03X145445Y124378I-1183J981D01*
G01X147783Y124412D02*
G03X147785Y124314I58J-48D01*
G01X141537Y108000D02*
G03X141537I-1537J0D01*
G01X141737Y114440D02*
G03X141737I-1537J0D01*
G01X157431Y130758D02*
G03Y133762I329J1502D01*
G01Y130758D02*
G03X157415Y130760I-16J-73D01*
G01X152619*
X151559Y131199D02*
G03X152619Y130760I1060J1061D01*
G01X151559Y131199D02*
X150739Y132018D01*
G03X150686Y132040I-53J-53*
G01X144633*
X143572Y132479D02*
G03X144633Y132040I1061J1061D01*
G01X143572Y132479D02*
X141900Y134152D01*
X141461Y135213D02*
G03X141900Y134152I1500J-0D01*
G01X141461Y135213D02*
Y138886D01*
G03X141439Y138939I-75J0*
G01X138109Y142268*
G03X138056Y142290I-53J-53*
G01X135644Y142291*
G03X135628Y142289I-0J-75*
G01X135629Y145293D02*
G03X135628Y142289I-330J-1502D01*
G01X135629Y145293D02*
G03X135645Y145291I16J73D01*
G01X138710Y145290*
X139770Y144851D02*
G03X138710Y145290I-1061J-1061D01*
G01X139770Y144851D02*
X144021Y140599D01*
X144461Y139539D02*
G03X144021Y140599I-1500J-0D01*
G01X144461Y139539D02*
Y135865D01*
G03X144483Y135812I75J-0*
G01X145232Y135062*
G03X145285Y135040I53J53*
G01X151338*
X152398Y134601D02*
G03X151338Y135040I-1060J-1061D01*
G01X152398Y134601D02*
X153218Y133782D01*
G03X153271Y133760I53J53*
G01X157415*
G03X157431Y133762I-0J75*
G01X163942Y150886D02*
Y143602D01*
X163692Y143352D02*
G03X163942Y143602I-0J250D01*
G01X163692Y143352D02*
X156408D01*
X156158Y143602D02*
G03X156408Y143352I250J0D01*
G01X156158Y143602D02*
Y150886D01*
X156408Y151136D02*
G03X156158Y150886I0J-250D01*
G01X156408Y151136D02*
X163692D01*
X163942Y150886D02*
G03X163692Y151136I-250J-0D01*
G01X124537Y131740D02*
G03X124537I-1537J0D01*
G01X121137D02*
G03X121137I-1537J0D01*
G01X117837Y106240D02*
G03X117837I-1537J0D01*
G01X118037Y117840D02*
G03X118037I-1537J0D01*
G01X112547Y106230D02*
G03X112547I-1537J0D01*
G01X113924Y125962D02*
G03X113606Y128974I-424J1478D01*
G01X113924Y125962D02*
G03Y125818I20J-72D01*
G01Y122862D02*
G03Y125818I-424J1478D01*
G01Y122862D02*
G03Y122718I20J-72D01*
G01X111964Y121184D02*
G03X113924Y122718I1536J56D01*
G01X111964Y121184D02*
G03X111894Y121256I-75J-2D01*
G01X111576Y124268D02*
G03X111894Y121256I424J-1478D01*
G01X111576Y124268D02*
G03Y124412I-20J72D01*
G01Y127368D02*
G03Y124412I424J-1478D01*
G01Y127368D02*
G03Y127512I-20J72D01*
G01X113536Y129046D02*
G03X111576Y127512I-1536J-56D01*
G01X113536Y129046D02*
G03X113606Y128974I75J3D01*
G01X117737Y131740D02*
G03X117737I-1537J0D01*
G01X128787Y119478D02*
G03X128787I-1537J0D01*
G01X137587Y108499D02*
G03X137587I-1537J0D01*
G01X138226Y138086D02*
G03X139854Y139725I1534J104D01*
G01X138226Y138086D02*
G03X138156Y138156I-75J-5D01*
G01X139784Y139794D02*
G03X138156Y138156I-1534J-104D01*
G01X139784Y139794D02*
G03X139854Y139725I75J6D01*
G01X134337Y108200D02*
G03X134337I-1537J0D01*
G01X131015Y118211D02*
G03X133325Y120194I1295J829D01*
G01X131015Y118211D02*
G03X131005Y118224I-63J-40D01*
G01X130850Y118379*
G03X130844Y118384I-53J-53*
G01X130300Y119540D02*
G03X130844Y118384I1500J0D01*
G01X130300Y119540D02*
Y128985D01*
G03X130298Y129001I-75J-0*
G01Y129659D02*
G03Y129001I1502J-329D01*
G01Y129659D02*
G03X130300Y129675I-73J16D01*
G01Y134562*
G03X130278Y134615I-75J-0*
G01X129664Y135229*
G03X129548Y135216I-53J-53*
G01X128512Y137555D02*
G03X129548Y135216I-262J-1515D01*
G01X128512Y137555D02*
G03X128600Y137629I13J74D01*
G01Y138645*
G03X128598Y138661I-75J-0*
G01X131602D02*
G03X128598I-1502J329D01*
G01X131602D02*
G03X131600Y138645I73J-16D01*
G01Y137567*
G03X131622Y137514I75J-0*
G01X132861Y136275*
X133300Y135214D02*
G03X132861Y136275I-1500J0D01*
G01X133300Y135214D02*
Y129675D01*
G03X133302Y129659I75J0*
G01Y129001D02*
G03Y129659I-1502J329D01*
G01Y129001D02*
G03X133300Y128985I73J-16D01*
G01Y120251*
G03X133325Y120194I75J-0*
G01X134878Y138158D02*
G03X133501Y140031I122J1532D01*
G01X134878Y138158D02*
G03X134799Y138099I-6J-75D01*
G01X133422Y139973D02*
G03X134799Y138099I-122J-1533D01*
G01X133422Y139973D02*
G03X133501Y140031I6J75D01*
G01X101050Y155149D02*
X169816D01*
X101050Y154699D02*
X169816D01*
X101050Y154249D02*
X169816D01*
X104422Y153799D02*
X166444D01*
X104600Y153349D02*
X166266D01*
X104600Y152899D02*
X166266D01*
X104600Y152449D02*
X166266D01*
X104600Y151999D02*
X166266D01*
X104600Y151549D02*
X166266D01*
X163823Y151099D02*
X166266D01*
X163942Y150649D02*
X166266D01*
X163942Y150199D02*
X166266D01*
X163942Y149749D02*
X166266D01*
X163942Y149299D02*
X166266D01*
X163942Y148849D02*
X166266D01*
X163942Y148399D02*
X166266D01*
X163942Y147949D02*
X166266D01*
X163942Y147499D02*
X166266D01*
X163942Y147049D02*
X166266D01*
X163942Y146599D02*
X166266D01*
X163942Y146149D02*
X166266D01*
X163942Y145699D02*
X166266D01*
X163942Y145249D02*
X166266D01*
X163942Y144799D02*
X166266D01*
X163942Y144349D02*
X166266D01*
X163942Y143899D02*
X166266D01*
X163889Y143449D02*
X166266D01*
X141622Y142999D02*
X166266D01*
X142072Y142549D02*
X166266D01*
X142522Y142099D02*
X166266D01*
X142972Y141649D02*
X166266D01*
X143422Y141199D02*
X166266D01*
X143872Y140749D02*
X166266D01*
X144254Y140299D02*
X166266D01*
X144428Y139849D02*
X166266D01*
X144461Y139399D02*
X166266D01*
X144461Y138949D02*
X166266D01*
X144461Y138499D02*
X166266D01*
X144461Y138049D02*
X166266D01*
X144461Y137599D02*
X166266D01*
X144461Y137149D02*
X166266D01*
X144461Y136699D02*
X166266D01*
X144461Y136249D02*
X166266D01*
X144496Y135799D02*
X166266D01*
X144946Y135349D02*
X166266D01*
X151974Y134899D02*
X166266D01*
X152551Y134449D02*
X166266D01*
X153001Y133999D02*
X166266D01*
X158598Y133549D02*
X166266D01*
X159049Y133099D02*
X166266D01*
X159247Y132649D02*
X166266D01*
X159296Y132199D02*
X166266D01*
X159210Y131749D02*
X166266D01*
X158960Y131299D02*
X166266D01*
X158370Y130849D02*
X166266D01*
X133300Y130399D02*
X166266D01*
X133300Y129949D02*
X166266D01*
X133328Y129499D02*
X166266D01*
X133311Y129049D02*
X166266D01*
X133300Y128599D02*
X166266D01*
X133300Y128149D02*
X166266D01*
X133300Y127699D02*
X166266D01*
X133300Y127249D02*
X166266D01*
X147223Y126799D02*
X166266D01*
X147804Y126349D02*
X166266D01*
X148052Y125899D02*
X166266D01*
X148136Y125449D02*
X166266D01*
X148086Y124999D02*
X166266D01*
X147885Y124549D02*
X166266D01*
X147943Y124099D02*
X166266D01*
X148127Y123649D02*
X166266D01*
X148164Y123199D02*
X166266D01*
X148065Y122749D02*
X166266D01*
X147797Y122299D02*
X166266D01*
X147140Y121849D02*
X166266D01*
X133300Y121399D02*
X166266D01*
X133300Y120949D02*
X166266D01*
X133300Y120499D02*
X166266D01*
X133470Y120049D02*
X166266D01*
X133742Y119599D02*
X166266D01*
X133844Y119149D02*
X166266D01*
X133809Y118699D02*
X166266D01*
X133628Y118249D02*
X166266D01*
X133217Y117799D02*
X166266D01*
X149369Y117349D02*
X166266D01*
X149848Y116899D02*
X166266D01*
X150059Y116449D02*
X166266D01*
X150117Y115999D02*
X166266D01*
X150040Y115549D02*
X166266D01*
X149804Y115099D02*
X166266D01*
X149257Y114649D02*
X166266D01*
X141718Y114199D02*
X166266D01*
X141573Y113749D02*
X166266D01*
X154638Y113299D02*
X166266D01*
X156997Y112849D02*
X166266D01*
X157414Y112399D02*
X166266D01*
X157597Y111949D02*
X166266D01*
X157634Y111499D02*
X166266D01*
X157535Y111049D02*
X166266D01*
X157267Y110599D02*
X166266D01*
X156607Y110149D02*
X166266D01*
X146443Y109699D02*
X166266D01*
X154345Y109249D02*
X166266D01*
X154664Y108799D02*
X166266D01*
X154795Y108349D02*
X166266D01*
X154787Y107899D02*
X166266D01*
X154638Y107449D02*
X166266D01*
X154289Y106999D02*
X166266D01*
X144570Y106549D02*
X166266D01*
X144346Y106099D02*
X166266D01*
X143833Y105649D02*
X166266D01*
X117431Y105199D02*
X166266D01*
X116673Y104749D02*
X166266D01*
X101050Y104299D02*
X166266D01*
X101050Y103849D02*
X166266D01*
X101050Y103399D02*
X166266D01*
X101050Y102949D02*
X166266D01*
X101050Y102499D02*
X166266D01*
X101050Y102049D02*
X166266D01*
X101050Y101599D02*
X166266D01*
X101050Y101149D02*
X166266D01*
X104600Y151099D02*
X156277D01*
X141172Y143449D02*
X156211D01*
X104600Y150649D02*
X156158D01*
X104600Y150199D02*
X156158D01*
X104600Y149749D02*
X156158D01*
X104600Y149299D02*
X156158D01*
X104600Y148849D02*
X156158D01*
X104600Y148399D02*
X156158D01*
X104600Y147949D02*
X156158D01*
X104600Y147499D02*
X156158D01*
X104600Y147049D02*
X156158D01*
X104600Y146599D02*
X156158D01*
X104600Y146149D02*
X156158D01*
X104600Y145699D02*
X156158D01*
X139059Y145249D02*
X156158D01*
X139822Y144799D02*
X156158D01*
X140272Y144349D02*
X156158D01*
X140722Y143899D02*
X156158D01*
X104600Y110149D02*
X155593D01*
X154819Y110599D02*
X154933D01*
X141230Y113299D02*
X153362D01*
X104600Y110599D02*
X153181D01*
X104600Y112849D02*
X152790D01*
X104600Y111049D02*
X152720D01*
X104600Y112399D02*
X152546D01*
X104600Y111499D02*
X152516D01*
X104600Y111949D02*
X152463D01*
X147059Y106999D02*
X152251D01*
X147224Y109249D02*
X152195D01*
X133300Y130849D02*
X152111D01*
X147441Y107449D02*
X151902D01*
X147516Y108799D02*
X151876D01*
X147608Y107899D02*
X151753D01*
X147630Y108349D02*
X151745D01*
X133300Y131299D02*
X151459D01*
X133300Y131749D02*
X151009D01*
X141723Y114649D02*
X147903D01*
X117957Y117349D02*
X147791D01*
X141589Y115099D02*
X147356D01*
X117715Y116899D02*
X147312D01*
X141265Y115549D02*
X147120D01*
X117154Y116449D02*
X147101D01*
X104600Y115999D02*
X147043D01*
X133300Y121849D02*
X146120D01*
X133300Y126799D02*
X145977D01*
X137012Y109699D02*
X145757D01*
X133300Y122299D02*
X145463D01*
X133300Y126349D02*
X145396D01*
X133300Y124099D02*
X145317D01*
X133300Y124549D02*
X145315D01*
X133300Y122749D02*
X145195D01*
X133300Y125899D02*
X145148D01*
X144637Y106999D02*
X145141D01*
X133300Y123649D02*
X145133D01*
X133300Y124999D02*
X145114D01*
X133300Y123199D02*
X145096D01*
X133300Y125449D02*
X145064D01*
X140897Y109249D02*
X144976D01*
X144570Y107449D02*
X144759D01*
X141314Y108799D02*
X144684D01*
X144347Y107899D02*
X144592D01*
X143838Y108349D02*
X144570D01*
X133300Y132199D02*
X143962D01*
X133300Y132649D02*
X143403D01*
X133300Y133099D02*
X142953D01*
X133300Y133549D02*
X142503D01*
X117719Y105649D02*
X142367D01*
X141497Y108349D02*
X142362D01*
X133300Y133999D02*
X142053D01*
X117831Y106099D02*
X141854D01*
X141534Y107899D02*
X141853D01*
X133300Y134449D02*
X141670D01*
X140507Y106549D02*
X141630D01*
X141435Y107449D02*
X141630D01*
X141167Y106999D02*
X141563D01*
X133300Y134899D02*
X141494D01*
X141266Y138499D02*
X141461D01*
X141291Y138049D02*
X141461D01*
X141179Y137599D02*
X141461D01*
X140891Y137149D02*
X141461D01*
X140133Y136699D02*
X141461D01*
X132886Y136249D02*
X141461D01*
X133181Y135799D02*
X141461D01*
X133294Y135349D02*
X141461D01*
X141097Y138949D02*
X141429D01*
X140710Y139399D02*
X140979D01*
X139779Y139849D02*
X140529D01*
X139662Y140299D02*
X140079D01*
X139365Y140749D02*
X139629D01*
X117806Y106549D02*
X139493D01*
X132437Y136699D02*
X139387D01*
X138547Y141199D02*
X139179D01*
X104600Y113299D02*
X139170D01*
X104600Y115549D02*
X139135D01*
X137392Y109249D02*
X139103D01*
X136385Y106999D02*
X138833D01*
X104600Y113749D02*
X138827D01*
X104600Y115099D02*
X138811D01*
X104600Y141649D02*
X138729D01*
X137558Y108799D02*
X138686D01*
X104600Y114199D02*
X138682D01*
X104600Y114649D02*
X138677D01*
X134134Y137149D02*
X138629D01*
X137173Y107449D02*
X138565D01*
X137580Y108349D02*
X138503D01*
X137465Y107899D02*
X138466D01*
X134587Y137599D02*
X138341D01*
X104600Y142099D02*
X138279D01*
X134787Y138049D02*
X138229D01*
X135297Y141199D02*
X137953D01*
X135972Y138499D02*
X137278D01*
X136115Y140749D02*
X137135D01*
X136347Y138949D02*
X136903D01*
X136412Y140299D02*
X136838D01*
X136510Y139399D02*
X136740D01*
X136529Y139849D02*
X136721D01*
X133759Y106999D02*
X135715D01*
X133143Y109699D02*
X135088D01*
X134141Y107449D02*
X134927D01*
X104600Y145249D02*
X134810D01*
X133924Y109249D02*
X134708D01*
X104600Y141199D02*
X134703D01*
X134308Y107899D02*
X134635D01*
X134216Y108799D02*
X134542D01*
X134330Y108349D02*
X134520D01*
X104600Y142549D02*
X134394D01*
X104600Y144799D02*
X134138D01*
X104600Y142999D02*
X133982D01*
X104600Y140749D02*
X133885D01*
X104600Y144349D02*
X133866D01*
X104600Y143449D02*
X133800D01*
X104600Y143899D02*
X133766D01*
X130907Y140299D02*
X133588D01*
X131375Y139849D02*
X132684D01*
X131987Y137149D02*
X132466D01*
X104600Y109699D02*
X132457D01*
X131582Y139399D02*
X132098D01*
X131600Y137599D02*
X132013D01*
X131637Y138949D02*
X131849D01*
X117637Y106999D02*
X131841D01*
X131600Y138049D02*
X131813D01*
X131600Y138499D02*
X131764D01*
X104600Y109249D02*
X131676D01*
X117250Y107449D02*
X131459D01*
X118037Y117799D02*
X131403D01*
X104600Y108799D02*
X131384D01*
X104600Y107899D02*
X131292D01*
X104600Y108349D02*
X131270D01*
X128173Y118249D02*
X130980D01*
X128575Y118699D02*
X130558D01*
X128752Y119149D02*
X130352D01*
X104600Y134449D02*
X130300D01*
X104600Y133999D02*
X130300D01*
X104600Y133549D02*
X130300D01*
X123720Y133099D02*
X130300D01*
X124240Y132649D02*
X130300D01*
X124467Y132199D02*
X130300D01*
X124537Y131749D02*
X130300D01*
X124473Y131299D02*
X130300D01*
X124253Y130849D02*
X130300D01*
X123751Y130399D02*
X130300D01*
X113202Y129949D02*
X130300D01*
X114511Y128599D02*
X130300D01*
X114864Y128149D02*
X130300D01*
X115016Y127699D02*
X130300D01*
X115025Y127249D02*
X130300D01*
X114897Y126799D02*
X130300D01*
X114583Y126349D02*
X130300D01*
X113870Y125899D02*
X130300D01*
X114565Y125449D02*
X130300D01*
X114889Y124999D02*
X130300D01*
X115023Y124549D02*
X130300D01*
X115018Y124099D02*
X130300D01*
X114873Y123649D02*
X130300D01*
X114530Y123199D02*
X130300D01*
X113882Y122749D02*
X130300D01*
X114615Y122299D02*
X130300D01*
X114912Y121849D02*
X130300D01*
X115029Y121399D02*
X130300D01*
X127698Y120949D02*
X130300D01*
X128400Y120499D02*
X130300D01*
X128678Y120049D02*
X130300D01*
X128783Y119599D02*
X130300D01*
X113536Y129049D02*
X130289D01*
X113451Y129499D02*
X130272D01*
X129280Y134899D02*
X129994D01*
X104600Y140299D02*
X129293D01*
X104600Y139849D02*
X128825D01*
X104600Y139399D02*
X128618D01*
X104600Y138499D02*
X128600D01*
X104600Y138049D02*
X128600D01*
X104600Y137599D02*
X128594D01*
X104600Y138949D02*
X128563D01*
X104600Y134899D02*
X127220D01*
X104600Y137149D02*
X127185D01*
X104600Y135349D02*
X126877D01*
X104600Y136699D02*
X126861D01*
X115010Y120949D02*
X126802D01*
X104600Y135799D02*
X126732D01*
X104600Y136249D02*
X126727D01*
X117982Y118249D02*
X126327D01*
X114847Y120499D02*
X126100D01*
X117775Y118699D02*
X125925D01*
X114472Y120049D02*
X125822D01*
X117307Y119149D02*
X125748D01*
X104600Y119599D02*
X125717D01*
X120320Y133099D02*
X122280D01*
X120351Y130399D02*
X122249D01*
X120840Y132649D02*
X121760D01*
X120853Y130849D02*
X121747D01*
X121067Y132199D02*
X121533D01*
X121073Y131299D02*
X121527D01*
X121137Y131749D02*
X121463D01*
X116920Y133099D02*
X118880D01*
X116951Y130399D02*
X118849D01*
X117440Y132649D02*
X118360D01*
X117453Y130849D02*
X118347D01*
X117667Y132199D02*
X118133D01*
X117673Y131299D02*
X118127D01*
X117737Y131749D02*
X118063D01*
X111421Y104749D02*
X115927D01*
X104600Y116449D02*
X115846D01*
X104600Y119149D02*
X115693D01*
X104600Y133099D02*
X115480D01*
X112616Y130399D02*
X115449D01*
X111947Y107449D02*
X115350D01*
X104600Y116899D02*
X115285D01*
X104600Y118699D02*
X115225D01*
X112150Y105199D02*
X115169D01*
X104600Y117349D02*
X115043D01*
X104600Y118249D02*
X115018D01*
X104600Y117799D02*
X114963D01*
X112342Y106999D02*
X114963D01*
X104600Y132649D02*
X114960D01*
X104600Y130849D02*
X114947D01*
X112433Y105649D02*
X114881D01*
X112514Y106549D02*
X114794D01*
X112542Y106099D02*
X114769D01*
X104600Y132199D02*
X114733D01*
X104600Y131299D02*
X114727D01*
X104600Y131749D02*
X114663D01*
X104600Y120049D02*
X112528D01*
X104600Y120499D02*
X112153D01*
X104600Y120949D02*
X111990D01*
X104600Y130399D02*
X111384D01*
X104600Y121399D02*
X111346D01*
X104600Y127249D02*
X111280D01*
X104600Y124549D02*
X111249D01*
X104600Y124099D02*
X111193D01*
X104600Y127699D02*
X111166D01*
X104600Y129949D02*
X110798D01*
X104600Y121849D02*
X110785D01*
X104600Y126799D02*
X110760D01*
X104600Y124999D02*
X110747D01*
X104600Y123649D02*
X110725D01*
X104600Y128149D02*
X110713D01*
X101050Y104749D02*
X110599D01*
X104600Y129499D02*
X110549D01*
X104600Y122299D02*
X110543D01*
X104600Y126349D02*
X110533D01*
X104600Y125449D02*
X110527D01*
X104600Y123199D02*
X110518D01*
X104600Y128599D02*
X110513D01*
X104600Y129049D02*
X110464D01*
X104600Y122749D02*
X110463D01*
X104600Y125899D02*
X110463D01*
X104600Y107449D02*
X110073D01*
X101050Y105199D02*
X109870D01*
X104600Y106999D02*
X109678D01*
X101050Y105649D02*
X109587D01*
X104600Y106549D02*
X109506D01*
X101050Y106099D02*
X109478D01*
G54D102*
X111010Y106230D03*
X127250Y119478D03*
X132800Y108200D03*
X116500Y117840D03*
X140200Y114440D03*
X140000Y108000D03*
X116300Y106240D03*
X136050Y108499D03*
X105676Y103150D03*
X105200Y105640D03*
X134550Y107040D03*
X105200Y114890D03*
X117640Y119660D03*
X122097Y107041D03*
X133200Y101640D03*
X138710Y104900D03*
X114400Y105240D03*
X119200Y101640D03*
X112150Y118240D03*
X126200Y101640D03*
X128520Y116840D03*
X108700Y103040D03*
X127800Y109380D03*
X112200Y101640D03*
X140200D03*
X105200Y110390D03*
X107500Y118210D03*
X123000Y118840D03*
X132310Y119040D03*
X146100Y108200D03*
X143100Y107000D03*
X154000Y111900D03*
X153270Y108150D03*
X148580Y116029D03*
X156100Y111600D03*
X152850Y104800D03*
X160120Y112550D03*
X163622Y114100D03*
X165707Y109689D03*
X165700Y104800D03*
X145130Y106110D03*
X164870Y115850D03*
X157530Y114590D03*
X158700Y104800D03*
X165700Y101640D03*
X165130Y118750D03*
X152850Y101640D03*
X143600Y103040D03*
X149290Y102930D03*
X155118Y115500D03*
X153020Y117400D03*
X150340Y106700D03*
X158700Y101640D03*
X119600Y131740D03*
X138250Y139690D03*
X139760Y138190D03*
X135000Y139690D03*
X112000Y122790D03*
X133300Y138440D03*
X113500Y124340D03*
X112000Y128990D03*
Y125890D03*
X113500Y127440D03*
Y121240D03*
X128250Y136040D03*
X123000Y131740D03*
X116200D03*
X106915Y148292D03*
X110514Y152493D03*
X122715Y152518D03*
X101700Y154549D03*
X134279Y124213D03*
X117000Y143240D03*
X105200Y132740D03*
X127500Y138740D03*
X137035Y128543D03*
X122010Y143240D03*
X128400Y148140D03*
X118300D03*
X135886Y146655D03*
X105200Y152299D03*
X116677Y152456D03*
X137910Y149500D03*
X127500Y142040D03*
X121310Y130530D03*
X128628Y152518D03*
X117900Y130530D03*
X133500Y148140D03*
X137035Y121457D03*
X112100Y143240D03*
X127100Y134170D03*
X113500Y131240D03*
X137035Y131299D03*
X133790Y141460D03*
X113700Y154549D03*
X134279Y128543D03*
X137035Y124213D03*
X119700Y154549D03*
X136630Y141000D03*
X112660Y148140D03*
X139980Y145400D03*
X105200Y142490D03*
X130800Y150449D03*
X134591Y152543D03*
X107700Y154549D03*
X137700D03*
X124000Y148140D03*
X131700Y154549D03*
X105200Y136840D03*
X110700Y131240D03*
X125700Y154549D03*
X107840Y131210D03*
X135299Y143791D03*
X130100Y138990D03*
X131800Y129330D03*
X147680Y154656D03*
X151255Y154681D03*
X154806Y151205D03*
X146630Y123299D03*
X146600Y125393D03*
X140730Y148340D03*
X152180Y140990D03*
X154550Y143250D03*
X165200Y142200D03*
X143980Y144060D03*
X143700Y154549D03*
X165573Y132221D03*
X165730Y146520D03*
X154750Y154120D03*
X151343Y123052D03*
X161000Y136700D03*
X165720Y150099D03*
X157656Y129991D03*
X169100Y154549D03*
X165520Y154030D03*
X141365Y128543D03*
X144121D03*
X144770Y149360D03*
X146650Y151370D03*
X149380Y152150D03*
X149500Y143424D03*
X149375Y146174D03*
X152110Y152140D03*
X141365Y121457D03*
X142420Y146040D03*
X149375Y140924D03*
X144121Y124213D03*
X152100Y143190D03*
X141365Y124213D03*
X149413Y138398D03*
X156400Y136700D03*
X165700Y121840D03*
X152980Y120649D03*
X165700Y124540D03*
Y127240D03*
X165500Y136700D03*
X165723Y129921D03*
X140642Y152481D03*
X162984Y132591D03*
X153693Y129978D03*
X141550Y143880D03*
X144000Y141490D03*
X153600Y136700D03*
X142740Y148430D03*
X154640Y140800D03*
X157760Y132260D03*
G54D114*
X170866Y138976D03*
Y115354D03*
Y109449D03*
X100000Y150787D03*
Y144882D03*
Y138976D03*
Y133071D03*
Y127165D03*
Y121260D03*
Y115354D03*
Y109449D03*
Y103543D03*
X170866D03*
Y121260D03*
Y127165D03*
Y133071D03*
Y144882D03*
Y150787D03*
G74*
X0Y0D02*
M02*
