%
T1C.00984F0S0
X01052Y010564
X01052Y011489
X01052Y011039
X010568Y010315
X01075Y011821
X01087Y010304
X011101Y010623
X0112Y012279
X0112Y012589
X011215Y011824
X01122Y010164
X01135Y012434
X01135Y012124
X01144Y010524
X01163Y010624
X01165Y011784
X011764Y011966
X01192Y010164
X01221Y010704
X0123Y011884
X01262Y010164
X012725Y011948
X01278Y010938
X012852Y011684
X013231Y011904
X01328Y01082
X01332Y010164
X013428Y012421
X013455Y010704
X013605Y01085
X013703Y012146
X013703Y012421
X013871Y01049
X014Y0108
X01402Y011444
X01402Y010164
X014137Y012146
X014137Y012421
X01431Y0107
X01436Y010304
X014412Y012421
X014513Y010611
X01461Y01082
X01466Y012539
X014663Y01233
X014858Y011603
X014929Y010293
X015034Y01067
X015134Y012305
X015285Y01048
X015285Y010164
X015298Y012065
X015302Y01174
X015327Y010815
X0154Y01119
X015512Y01155
X01561Y01116
X015753Y011459
X01587Y01048
X01587Y010164
X016012Y011255
X016362Y01141
X016487Y011585
X016513Y011875
X01657Y010164
X01657Y012184
X01657Y01048
X01657Y012454
X016571Y010969
X016573Y014652
X016572Y012992
X016572Y01501
X01657Y012724
X016557Y013222
X01655Y01367
X01652Y01422
X016298Y013259
X0161Y01367
X015776Y013226
X015766Y012999
X01564Y01367
X015481Y015121
X015464Y01408
X015455Y014325
X015369Y012998
X01536Y01367
X015218Y014099
X01521Y014319
X01495Y014342
X014941Y01384
X014938Y014617
X014938Y014092
X014665Y015137
X014477Y014936
X014412Y012854
X0144Y014149
X014398Y014406
X014274Y014843
X014242Y014604
X014155Y014388
X014137Y012854
X014073Y014834
X013998Y01454
X013976Y013819
X013825Y013969
X013791Y01495
X013703Y012854
X013703Y01313
X013663Y0141
X013589Y014666
X01353Y014379
X0135Y013969
X013428Y012854
X013379Y014146
X01335Y014814
X01333Y013844
X01318Y012933
X01308Y015045
X01301Y013899
X01284Y014814
X012825Y013604
X01275Y013874
X01275Y014204
X01271Y013417
X0124Y014814
X0123Y013174
X012201Y014324
X012131Y013053
X01196Y013174
X01183Y014814
X01179Y013053
X0117Y014324
X01162Y013174
X01135Y012744
X01135Y013124
X011266Y014814
X01121Y014324
X0112Y012899
X01107Y013124
X010784Y013121
X010692Y014829
X01052Y013684
X01052Y013274
X01052Y014249
X01017Y015455
X01052Y01523
X01077Y015455
X011051Y015249
X01137Y015455
X011668Y015246
X01197Y015455
X012271Y015252
X01257Y015455
X012863Y015252
X01317Y015455
X013459Y015254
X01377Y015455
X014064Y015248
X01437Y015455
X014768Y015466
X014938Y015215
X015126Y015468
X015211Y015214
X015475Y015412
X016552Y015403
X01691Y015455
T2C.02165F197S55
X01Y012126
X01Y011535
X01Y010945
X01Y010354
X017087Y011535
X017087Y010945
X017087Y010354
X017087Y012126
X017087Y013898
X017087Y012717
X017087Y013307
X017087Y014488
X017087Y015079
X01Y012717
X01Y015079
X01Y014488
X01Y013898
X01Y013307
M30
