*
*
G04 PADS 9.5 Build Number: 522968 generated Gerber (RS-274-X) file*
G04 PC Version=2.1*
*
%IN "PCB_ESP32-C3-WROOM-02U_"*%
*
%MOIN*%
*
%FSLAX35Y35*%
*
*
*
*
G04 PC Standard Apertures*
*
*
G04 Thermal Relief Aperture macro.*
%AMTER*
1,1,$1,0,0*
1,0,$1-$2,0,0*
21,0,$3,$4,0,0,45*
21,0,$3,$4,0,0,135*
%
*
*
G04 Annular Aperture macro.*
%AMANN*
1,1,$1,0,0*
1,0,$2,0,0*
%
*
*
G04 Odd Aperture macro.*
%AMODD*
1,1,$1,0,0*
1,0,$1-0.005,0,0*
%
*
*
G04 PC Custom Aperture Macros*
*
*
*
*
*
*
G04 PC Aperture Table*
*
%ADD010C,0.001*%
%ADD027C,0.00394*%
%ADD038C,0.004*%
%ADD116C,0.002*%
%ADD117C,0.02362*%
%ADD195C,0.00402*%
%ADD209C,0.00591*%
*
*
*
*
G04 PC Circuitry*
G04 Layer Name PCB_ESP32-C3-WROOM-02U_ - circuitry*
%LPD*%
*
*
G04 PC Custom Flashes*
G04 Layer Name PCB_ESP32-C3-WROOM-02U_ - flashes*
%LPD*%
*
*
G04 PC Circuitry*
G04 Layer Name PCB_ESP32-C3-WROOM-02U_ - circuitry*
%LPD*%
*
G54D10*
G01X100000Y156299D02*
X100003D01*
X170866D02*
X170869D01*
X100000Y100000D02*
X100003D01*
X100000Y156299D02*
X100003D01*
G54D27*
X100000D02*
X170866D01*
Y100000*
X100000*
Y156299*
G54D38*
X127392Y131803D02*
X106802D01*
Y117803*
X127392*
Y123303*
Y126303D02*
G75*
G03Y123303I0J-1500D01*
G01Y126303D02*
Y131803D01*
X128350Y137661D02*
G03X128350I-800J0D01*
G01X164741Y128977D02*
Y115863D01*
X153248*
Y128977*
X164741*
X129100Y146787D02*
Y148987D01*
X129499Y149387*
X131687*
X132100Y148974*
Y146787*
X129100Y144787D02*
Y142587D01*
X129500Y142187*
X131700*
X132100Y142587*
Y144787*
X148176Y136962D02*
G03X148176I-315J0D01*
G01X149043Y118504D02*
Y116535D01*
X147074*
X129357Y118504D02*
Y116535D01*
X131326*
Y136220D02*
X129357D01*
Y134252*
X149043D02*
Y135236D01*
X148058Y136220*
X147074*
G54D116*
X132500Y144849D02*
Y143640D01*
X132700Y143440*
X134500*
X134700Y143640*
Y144849*
X132500Y146031D02*
Y147240D01*
X132700Y147440*
X134500*
X134700Y147240*
Y146031*
X155199Y132655D02*
Y131446D01*
X155399Y131246*
X157199*
X157399Y131446*
Y132655*
X155199Y133837D02*
Y135046D01*
X155399Y135246*
X157199*
X157399Y135046*
Y133837*
X152758Y132655D02*
Y131446D01*
X152958Y131246*
X154758*
X154958Y131446*
Y132655*
X152758Y133837D02*
Y135046D01*
X152958Y135246*
X154758*
X154958Y135046*
Y133837*
X145066Y147590D02*
X143857D01*
X143657Y147390*
Y145590*
X143857Y145390*
X145066*
X146247Y147590D02*
X147457D01*
X147657Y147390*
Y145590*
X147457Y145390*
X146247*
X145066Y140990D02*
X143857D01*
X143657Y140790*
Y138990*
X143857Y138790*
X145066*
X146248Y140990D02*
X147457D01*
X147657Y140790*
Y138990*
X147457Y138790*
X146248*
X161211Y113056D02*
X162420D01*
X162620Y113256*
Y115056*
X162420Y115256*
X161211*
X160029Y113056D02*
X158820D01*
X158620Y113256*
Y115056*
X158820Y115256*
X160029*
X161279Y131705D02*
X160070D01*
X159870Y131505*
Y129705*
X160070Y129505*
X161279*
X162461Y131705D02*
X163670D01*
X163870Y131505*
Y129705*
X163670Y129505*
X162461*
X139899Y141931D02*
X139044Y141076D01*
Y140793*
X140317Y139520*
X140600*
X141455Y140375*
X140734Y142766D02*
X141589Y143621D01*
X141872*
X143145Y142349*
Y142066*
X142290Y141211*
X130491Y112798D02*
X131700D01*
X131900Y112998*
Y114798*
X131700Y114998*
X130491*
X129309Y112798D02*
X128100D01*
X127900Y112998*
Y114798*
X128100Y114998*
X129309*
X130491Y110140D02*
X131700D01*
X131900Y110340*
Y112140*
X131700Y112340*
X130491*
X129309Y110140D02*
X128100D01*
X127900Y110340*
Y112140*
X128100Y112340*
X129309*
X130609Y141790D02*
X129400D01*
X129200Y141590*
Y139790*
X129400Y139590*
X130609*
X131791Y141790D02*
X133000D01*
X133200Y141590*
Y139790*
X133000Y139590*
X131791*
X145539Y141222D02*
Y145159D01*
X147743*
Y141222*
X145539*
X138494Y140864D02*
X135710Y143648D01*
X137269Y145207*
X140053Y142423*
X138494Y140864*
X152905Y128827D02*
Y130205D01*
X150701*
Y128827*
X152905Y127645D02*
Y126267D01*
X150701*
Y127645*
X151202Y112091D02*
Y113469D01*
X148998*
Y112091*
X151202Y110909D02*
Y109531D01*
X148998*
Y110909*
X143012Y112091D02*
Y113468D01*
X140808*
Y112091*
X143012Y110909D02*
Y109531D01*
X140808*
Y110909*
X147962Y112091D02*
Y113468D01*
X145758*
Y112091*
X147962Y110909D02*
Y109531D01*
X145758*
Y110909*
X145512Y112091D02*
Y113468D01*
X143308*
Y112091*
X145512Y110909D02*
Y109531D01*
X143308*
Y110909*
X138062Y112091D02*
Y113468D01*
X135858*
Y112091*
X138062Y110909D02*
Y109531D01*
X135858*
Y110909*
X135562Y112091D02*
Y113468D01*
X133358*
Y112091*
X135562Y110909D02*
Y109531D01*
X133358*
Y110909*
X140559Y112091D02*
Y113468D01*
X138355*
Y112091*
X140559Y110909D02*
Y109531D01*
X138355*
Y110909*
X107541Y149640D02*
X111478D01*
X107541Y146540D02*
Y144375D01*
X111479*
Y146540*
Y147328D02*
Y150084D01*
X107541*
Y147328*
G54D117*
X104823Y144803D02*
Y149921D01*
G54D195*
X163692Y150000D02*
Y144488D01*
X156408*
Y150000*
X163692*
G54D209*
X154977Y130196D02*
X156383D01*
X155680Y129493*
X154977Y130196*
G74*
X0Y0D02*
M02*
