*
*
G04 PADS 9.5 Build Number: 522968 generated Gerber (RS-274-X) file*
G04 PC Version=2.1*
*
%IN "PCB_ESP32-C3-WROOM-02U_"*%
*
%MOIN*%
*
%FSLAX35Y35*%
*
*
*
*
G04 PC Standard Apertures*
*
*
G04 Thermal Relief Aperture macro.*
%AMTER*
1,1,$1,0,0*
1,0,$1-$2,0,0*
21,0,$3,$4,0,0,45*
21,0,$3,$4,0,0,135*
%
*
*
G04 Annular Aperture macro.*
%AMANN*
1,1,$1,0,0*
1,0,$2,0,0*
%
*
*
G04 Odd Aperture macro.*
%AMODD*
1,1,$1,0,0*
1,0,$1-0.005,0,0*
%
*
*
G04 PC Custom Aperture Macros*
*
*
*
*
*
*
G04 PC Aperture Table*
*
%ADD010C,0.001*%
%ADD027C,0.00394*%
%ADD030C,0.01*%
%ADD036C,0.006*%
%ADD037C,0.005*%
%ADD038C,0.004*%
%ADD095C,0.007*%
%ADD096C,0.009*%
%ADD097C,0.0035*%
%ADD098C,0.0055*%
%ADD099C,0.003*%
*
*
*
*
G04 PC Circuitry*
G04 Layer Name PCB_ESP32-C3-WROOM-02U_ - circuitry*
%LPD*%
*
G54D10*
G01X166129Y104687D02*
X165871D01*
Y102215*
X166129*
Y104687*
X166164Y110592D02*
X165110D01*
X164793Y110557*
X164625Y110524*
X164463Y110426*
X164365Y110296*
X164298Y110129*
X164265Y109927*
X164298Y109699*
X164429Y109535*
X164630Y109367*
X164905Y109298*
X164924Y109210*
X164748Y109069*
X164609Y108930*
X164470Y108757*
X164088Y108121*
X164400*
X164707Y108632*
X164708Y108634*
X164851Y108849*
X164853Y108851*
X164959Y108993*
X165030Y109099*
X165036Y109106*
X165108Y109178*
X165120Y109187*
X165263Y109258*
X165286Y109264*
X165857*
X165907Y109214*
Y108121*
X166164*
Y110592*
X165907Y110357D02*
Y109499D01*
X165857Y109449*
X164964*
X164952Y109451*
X164809Y109487*
X164786Y109500*
X164608Y109678*
X164595Y109698*
X164524Y109912*
X164522Y109938*
X164558Y110116*
X164562Y110129*
X164634Y110272*
X164660Y110296*
X164839Y110367*
X164849Y110370*
X165063Y110406*
X165071Y110407*
X165857*
X165907Y110357*
X165271Y103415D02*
X165201Y103972D01*
X165101Y104174*
X164929Y104379*
X164757Y104517*
X164587Y104619*
X164347Y104688*
X164106Y104722*
X163799Y104688*
X163491Y104551*
X163251Y104346*
X163081Y104107*
X162978Y103798*
X162943Y103451*
X162978Y103069*
X163080Y102762*
X163285Y102522*
X163526Y102316*
X163797Y102214*
X164107Y102180*
X164415Y102214*
X164723Y102351*
X164963Y102557*
X165134Y102795*
X165237Y103105*
X165271Y103415*
X165014Y103665D02*
Y103415D01*
Y103407*
X164942Y102979*
X164937Y102962*
X164937D02*
X164758Y102641D01*
X164741Y102623*
X164455Y102444*
X164439Y102438*
X164118Y102367*
X164097Y102366*
X163740Y102438*
X163721Y102446*
X163471Y102625*
X163455Y102643*
X163277Y103000*
X163272Y103014*
X163201Y103443*
X163200Y103457*
X163236Y103743*
X163238Y103751*
X163309Y104001*
X163312Y104009*
X163420Y104223*
X163433Y104240*
X163612Y104383*
X163620Y104389*
X163620D02*
X163835Y104496D01*
X163850Y104501*
X164100Y104536*
X164118*
X164439Y104464*
X164455Y104458*
X164741Y104279*
X164754Y104267*
X164861Y104124*
X164868Y104112*
X164939Y103934*
X164941Y103929*
X165012Y103679*
X165014Y103665*
X166379Y116498D02*
X164407D01*
Y116312*
X165214*
X165264Y116262*
Y114026*
X165521*
Y116262*
X165571Y116312*
X166379*
Y116498*
X166129Y122403D02*
X165871D01*
Y119932*
X166129*
Y122403*
Y128309D02*
X165871D01*
Y125837*
X166129*
Y128309*
Y134214D02*
X165871D01*
Y131743*
X166129*
Y134214*
Y140120D02*
X165871D01*
Y137648*
X166129*
Y140120*
Y146025D02*
X165871D01*
Y143554*
X166129*
Y146025*
Y151931D02*
X165871D01*
Y149459*
X166129*
Y151931*
X162271Y104065D02*
X162047Y104193D01*
X162044Y104195*
X161829Y104338*
X161822Y104344*
X161643Y104523*
X161636Y104532*
X161543Y104687*
X161407*
Y102215*
X161629*
Y104165*
X161709Y104205*
X161991Y103994*
X162271Y103853*
Y104065*
X163835Y108121D02*
X162958Y109436D01*
Y109491*
X163692Y110592*
X163383*
X162937Y109975*
X162868Y109802*
X162866Y109799*
X162830Y109727*
X162745Y109720*
X162566Y109970*
Y109972*
X162152Y110592*
X161843*
X162577Y109491*
Y109436*
X161701Y108121*
X162009*
X162601Y108991*
X162707Y109168*
X162792Y109170*
X162860Y109067*
X162928Y108999*
X162934Y108992*
X163526Y108121*
X163835*
X164192Y114026D02*
X163316Y115342D01*
X163316D02*
Y115397D01*
X164049Y116498*
X163740*
X163294Y115881*
X163225Y115708*
X163223Y115704*
X163188Y115633*
X163102Y115626*
X162924Y115876*
X162923Y115877*
X162509Y116498*
X162201*
X162934Y115397*
Y115342*
X162934D02*
X162058Y114026D01*
X162366*
X162958Y114896*
X163064Y115074*
X163149Y115076*
X163217Y114973*
X163285Y114905*
X163291Y114897*
X163884Y114026*
X164192*
X165271Y121132D02*
X165201Y121689D01*
X165101Y121890*
X164929Y122096*
X164757Y122234*
X164587Y122336*
X164347Y122404*
X164106Y122439*
X163799Y122404*
X163491Y122268*
X163251Y122062*
X163081Y121823*
X162978Y121514*
X162943Y121167*
X162978Y120785*
X163080Y120478*
X163285Y120239*
X163526Y120033*
X163797Y119931*
X164107Y119896*
X164415Y119931*
X164723Y120067*
X164963Y120273*
X165134Y120512*
X165237Y120821*
X165271Y121132*
X165014Y121382D02*
Y121132D01*
Y121124*
X164942Y120695*
X164937Y120679*
X164758Y120358*
X164741Y120339*
X164455Y120161*
X164439Y120155*
X164118Y120083*
X164097*
X163740Y120154*
X163721Y120163*
X163471Y120341*
X163455Y120360*
X163277Y120717*
X163272Y120731*
X163201Y121159*
X163200Y121174*
X163236Y121460*
X163238Y121467*
X163309Y121717*
X163312Y121726*
X163420Y121940*
X163433Y121957*
X163612Y122100*
X163620Y122105*
X163620D02*
X163835Y122212D01*
X163850Y122217*
X164100Y122253*
X164118Y122252*
X164439Y122181*
X164455Y122174*
X164741Y121996*
X164754Y121983*
X164861Y121840*
X164868Y121829*
X164939Y121650*
X164941Y121646*
X165012Y121396*
X165014Y121382*
X165271Y127037D02*
X165201Y127594D01*
X165101Y127796*
X164929Y128002*
X164757Y128139*
X164587Y128241*
X164347Y128310*
X164106Y128344*
X163799Y128310*
X163491Y128173*
X163251Y127968*
X163081Y127729*
X162978Y127420*
X162943Y127073*
X162978Y126691*
X163080Y126384*
X163285Y126144*
X163526Y125938*
X163797Y125836*
X164107Y125802*
X164415Y125836*
X164723Y125973*
X164963Y126179*
X165134Y126417*
X165237Y126727*
X165271Y127037*
X165014Y127287D02*
Y127037D01*
Y127029*
X164942Y126601*
X164937Y126585*
X164758Y126263*
X164741Y126245*
X164455Y126066*
X164439Y126060*
X164118Y125989*
X164097Y125988*
X163740Y126060*
X163721Y126068*
X163471Y126247*
X163455Y126265*
X163277Y126622*
X163272Y126636*
X163201Y127065*
X163200Y127079*
X163236Y127365*
X163238Y127373*
X163309Y127623*
X163312Y127631*
X163420Y127845*
X163433Y127862*
X163612Y128005*
X163620Y128011*
X163620D02*
X163835Y128118D01*
X163850Y128123*
X164100Y128158*
X164118*
X164439Y128086*
X164455Y128080*
X164741Y127901*
X164754Y127889*
X164861Y127746*
X164868Y127735*
X164939Y127556*
X164941Y127551*
X165012Y127301*
X165014Y127287*
X165271Y132943D02*
X165201Y133500D01*
X165101Y133701*
X164929Y133907*
X164757Y134045*
X164587Y134147*
X164347Y134215*
X164106Y134250*
X163799Y134216*
X163491Y134079*
X163251Y133873*
X163081Y133634*
X162978Y133325*
X162943Y132978*
X162978Y132596*
X163080Y132289*
X163285Y132050*
X163526Y131844*
X163797Y131742*
X164107Y131708*
X164415Y131742*
X164723Y131878*
X164963Y132084*
X165134Y132323*
X165237Y132632*
X165271Y132943*
X165014Y133193D02*
Y132943D01*
Y132935*
X164942Y132506*
X164937Y132490*
X164758Y132169*
X164741Y132151*
X164455Y131972*
X164439Y131966*
X164118Y131894*
X164097*
X163740Y131965*
X163721Y131974*
X163471Y132152*
X163455Y132171*
X163277Y132528*
X163272Y132542*
X163201Y132970*
X163200Y132985*
X163236Y133271*
X163238Y133278*
X163309Y133528*
X163312Y133537*
X163420Y133751*
X163433Y133768*
X163612Y133911*
X163620Y133916*
X163620D02*
X163835Y134023D01*
X163850Y134028*
X164100Y134064*
X164118Y134063*
X164439Y133992*
X164455Y133985*
X164741Y133807*
X164754Y133794*
X164861Y133651*
X164868Y133640*
X164939Y133461*
X164941Y133457*
X165012Y133207*
X165014Y133193*
X165271Y138848D02*
X165201Y139405D01*
X165101Y139607*
X164929Y139813*
X164757Y139950*
X164587Y140052*
X164347Y140121*
X164106Y140155*
X163799Y140121*
X163491Y139984*
X163251Y139779*
X163081Y139540*
X162978Y139231*
X162943Y138884*
X162978Y138502*
X163080Y138195*
X163285Y137955*
X163526Y137749*
X163797Y137647*
X164107Y137613*
X164415Y137647*
X164723Y137784*
X164963Y137990*
X165134Y138229*
X165237Y138538*
X165271Y138848*
X165014Y139098D02*
Y138848D01*
Y138840*
X164942Y138412*
X164937Y138396*
X164758Y138074*
X164741Y138056*
X164455Y137877*
X164439Y137871*
X164118Y137800*
X164097Y137799*
X163740Y137871*
X163721Y137879*
X163471Y138058*
X163455Y138076*
X163277Y138433*
X163272Y138447*
X163201Y138876*
X163200Y138890*
X163236Y139176*
X163238Y139184*
X163309Y139434*
X163312Y139442*
X163420Y139657*
X163420D02*
X163433Y139673D01*
X163612Y139816*
X163620Y139822*
X163620D02*
X163835Y139929D01*
X163850Y139934*
X164100Y139969*
X164118*
X164439Y139897*
X164455Y139891*
X164741Y139712*
X164754Y139700*
X164861Y139557*
X164868Y139546*
X164939Y139367*
X164941Y139362*
X165012Y139112*
X165014Y139098*
X165271Y144754D02*
X165201Y145311D01*
X165101Y145512*
X164929Y145718*
X164757Y145856*
X164587Y145958*
X164347Y146026*
X164106Y146061*
X163799Y146027*
X163491Y145890*
X163251Y145684*
X163081Y145445*
X162978Y145136*
X162943Y144789*
X162978Y144407*
X163080Y144100*
X163285Y143861*
X163526Y143655*
X163797Y143553*
X164107Y143519*
X164415Y143553*
X164723Y143690*
X164963Y143895*
X165134Y144134*
X165237Y144443*
X165271Y144754*
X165014Y145004D02*
Y144754D01*
Y144746*
X164942Y144317*
X164937Y144301*
X164758Y143980*
X164741Y143962*
X164455Y143783*
X164439Y143777*
X164118Y143705*
X164097*
X163740Y143776*
X163721Y143785*
X163471Y143963*
X163455Y143982*
X163277Y144339*
X163272Y144353*
X163201Y144781*
X163200Y144796*
X163236Y145082*
X163238Y145089*
X163309Y145339*
X163312Y145348*
X163420Y145562*
X163433Y145579*
X163612Y145722*
X163620Y145727*
X163620D02*
X163835Y145834D01*
X163850Y145839*
X164100Y145875*
X164118Y145874*
X164439Y145803*
X164455Y145796*
X164741Y145618*
X164754Y145605*
X164861Y145463*
X164868Y145451*
X164939Y145273*
X164941Y145268*
X165012Y145018*
X165014Y145004*
X165271Y150659D02*
X165201Y151216D01*
X165101Y151418*
X164929Y151624*
X164757Y151761*
X164587Y151863*
X164347Y151932*
X164106Y151966*
X163799Y151932*
X163491Y151795*
X163251Y151590*
X163081Y151351*
X162978Y151042*
X162943Y150695*
X162978Y150313*
X163080Y150006*
X163285Y149766*
X163526Y149560*
X163797Y149458*
X164107Y149424*
X164415Y149458*
X164723Y149595*
X164963Y149801*
X165134Y150040*
X165237Y150349*
X165271Y150659*
X165014Y150909D02*
Y150659D01*
Y150651*
X164942Y150223*
X164937Y150207*
X164758Y149885*
X164741Y149867*
X164455Y149688*
X164439Y149682*
X164118Y149611*
X164097Y149610*
X163740Y149682*
X163721Y149690*
X163471Y149869*
X163455Y149887*
X163277Y150244*
X163272Y150258*
X163201Y150687*
X163200Y150701*
X163236Y150987*
X163238Y150995*
X163309Y151245*
X163312Y151253*
X163420Y151468*
X163433Y151484*
X163612Y151627*
X163620Y151633*
X163620D02*
X163835Y151740D01*
X163850Y151745*
X164100Y151780*
X164118*
X164439Y151708*
X164455Y151702*
X164741Y151523*
X164754Y151511*
X164861Y151368*
X164868Y151357*
X164939Y151178*
X164941Y151173*
X165012Y150923*
X165014Y150909*
X160486Y103413D02*
X160450Y103836D01*
X160381Y104150*
X160278Y104389*
X160146Y104554*
X159949Y104653*
X159716Y104686*
X159378Y104619*
X159250Y104522*
X159250D02*
X159152Y104391D01*
X159012Y104007*
X158943Y103765*
Y103418*
X158978Y103030*
X159048Y102716*
X159150Y102477*
X159282Y102312*
X159479Y102214*
X159712Y102180*
X160015Y102248*
X160248Y102414*
X160347Y102578*
X160416Y102821*
X160486Y103100*
Y103413*
X160264Y103701D02*
Y103130D01*
Y103121*
X160228Y102907*
Y102906*
X160192Y102727*
X160188Y102714*
X160116Y102572*
X160103Y102555*
X159924Y102412*
X159903Y102402*
X159724Y102366*
X159704*
X159526Y102402*
X159504Y102412*
X159326Y102555*
X159312Y102572*
X159241Y102714*
X159237Y102727*
X159201Y102906*
Y102907*
X159165Y103121*
X159164Y103130*
Y103701*
X159165Y103708*
X159201Y103958*
X159201D02*
Y103961D01*
X159237Y104139*
X159244Y104157*
X159316Y104265*
X159318Y104268*
X159461Y104447*
X159492Y104465*
X159706Y104500*
X159724*
X159903Y104464*
X159924Y104454*
X160103Y104312*
X160116Y104295*
X160188Y104152*
X160192Y104139*
X160228Y103961*
Y103958*
X160264Y103708*
Y103701*
X161236Y110592D02*
X160148D01*
X159977Y110558*
X159771Y110489*
X159604Y110389*
X159436Y110187*
X159333Y109948*
X159264Y109669*
X159229Y109354*
Y109114*
X159298Y108871*
X159367Y108663*
X159468Y108495*
X159672Y108291*
X159977Y108156*
X160359Y108121*
X161236*
Y110592*
X160979Y110357D02*
Y108357D01*
X160929Y108307*
X160179*
X160169Y108308*
X159990Y108343*
X159972Y108351*
X159758Y108494*
X159746Y108505*
X159639Y108648*
X159632Y108659*
X159561Y108838*
X159559Y108843*
X159488Y109093*
X159486Y109107*
Y109357*
Y109361*
X159522Y109754*
X159525Y109769*
X159633Y110019*
X159640Y110031*
X159782Y110209*
X159791Y110218*
X159934Y110325*
X159946Y110332*
X160124Y110403*
X160143Y110407*
X160929*
X160979Y110357*
X161593Y116498D02*
X160505D01*
X160334Y116464*
X160128Y116395*
X159962Y116295*
X159793Y116093*
X159690Y115853*
X159621Y115575*
X159586Y115259*
Y115019*
X159655Y114777*
X159724Y114569*
X159825Y114400*
X160029Y114197*
X160334Y114061*
X160717Y114026*
X161593*
Y116498*
X161336Y116262D02*
Y114262D01*
X161286Y114212*
X160536*
X160526Y114213*
X160347Y114249*
X160329Y114256*
X160115Y114399*
X160103Y114411*
X159996Y114554*
X159989Y114565*
X159918Y114744*
X159916Y114748*
X159845Y114998*
X159843Y115012*
Y115262*
Y115267*
X159879Y115659*
X159883Y115675*
X159990Y115925*
X159997Y115936*
X160140Y116115*
X160149Y116124*
X160291Y116231*
X160303Y116237*
X160481Y116309*
X160500Y116312*
X161286*
X161336Y116262*
X162271Y121781D02*
X162047Y121910D01*
X162044Y121912*
X161829Y122055*
X161822Y122061*
X161643Y122239*
X161636Y122249*
X161543Y122403*
X161407*
Y119932*
X161629*
Y121882*
X161709Y121922*
X161991Y121710*
X162271Y121570*
Y121781*
Y127687D02*
X162047Y127815D01*
X162044Y127817*
X161829Y127960*
X161822Y127966*
X161643Y128145*
X161636Y128155*
X161543Y128309*
X161407*
Y125837*
X161629*
Y127787*
X161709Y127827*
X161991Y127616*
X162271Y127475*
Y127687*
X162473Y132328D02*
X162249Y132353D01*
X162190Y132177*
X162183Y132163*
X162076Y132020*
X162058Y132005*
X161915Y131934*
X161903Y131930*
X161724Y131894*
X161706*
X161492Y131929*
X161470Y131939*
X161327Y132046*
X161314Y132060*
X161207Y132239*
X161201Y132255*
X161165Y132433*
X161164Y132443*
X161165Y132451*
X161201Y132665*
X161210Y132687*
X161317Y132830*
X161327Y132840*
X161470Y132947*
X161492Y132957*
X161706Y132992*
X161723*
X161871Y132968*
X161849Y133143*
X161643*
X161613Y133153*
X161470Y133260*
X161465Y133265*
X161358Y133372*
X161358D02*
X161344Y133397D01*
X161308Y133576*
X161309Y133598*
X161344Y133741*
X161348Y133751*
X161420Y133894*
X161437Y133913*
X161544Y133985*
X161562Y133992*
X161740Y134028*
X161762Y134027*
X161905Y133991*
X161915Y133988*
X162058Y133916*
X162080Y133894*
X162152Y133751*
X162154Y133747*
X162211Y133604*
X162431Y133628*
X162348Y133849*
X162214Y134050*
X162018Y134180*
X161752Y134214*
X161586Y134180*
X161586D02*
X161418Y134113D01*
X161152Y133914*
X161087Y133587*
X161151Y133329*
X161423Y133126*
X161409Y133038*
X161206Y132971*
X161075Y132840*
X160977Y132676*
X160944Y132446*
X161011Y132177*
X161179Y131909*
X161411Y131776*
X161752Y131708*
X162020Y131741*
X162251Y131874*
X162418Y132107*
X162473Y132328*
X162548Y137648D02*
X162523Y137799D01*
X162456Y137966*
X162178Y138314*
X161931Y138525*
X161610Y138811*
X161605Y138816*
X161391Y139066*
X161386Y139073*
X161279Y139251*
X161272Y139267*
X161237Y139446*
Y139465*
X161272Y139644*
X161286Y139669*
X161393Y139777*
X161399Y139781*
X161541Y139888*
X161562Y139897*
X161740Y139933*
X161758*
X161973Y139898*
X161994Y139888*
X162137Y139781*
X162147Y139771*
X162254Y139628*
X162263Y139608*
X162290Y139475*
X162509Y139499*
X162454Y139720*
X162287Y139953*
X162056Y140086*
X161753Y140119*
X161447Y140051*
X161211Y139917*
X161048Y139721*
X161015Y139459*
X161083Y139185*
X161151Y139016*
X161253Y138879*
X161253D02*
X161429Y138669D01*
X161711Y138422*
X161924Y138245*
X162066Y138138*
X162075Y138130*
X162218Y137951*
X162179Y137870*
X160979*
Y137648*
X162548*
X162271Y145403D02*
X162047Y145532D01*
X162044Y145534*
X161829Y145677*
X161822Y145683*
X161643Y145861*
X161636Y145871*
X161543Y146025*
X161407*
Y143554*
X161629*
Y145504*
X161709Y145544*
X161991Y145332*
X162271Y145192*
Y145403*
X162486Y150657D02*
X162450Y151080D01*
X162381Y151394*
X162278Y151634*
X162146Y151798*
X161949Y151897*
X161716Y151930*
X161378Y151863*
X161250Y151767*
X161152Y151635*
X161012Y151251*
X160943Y151010*
Y150662*
X160978Y150274*
X161048Y149961*
X161150Y149721*
X161282Y149556*
X161479Y149458*
X161712Y149425*
X162015Y149492*
X162248Y149658*
X162347Y149822*
X162416Y150065*
X162486Y150344*
Y150657*
X162264Y150945D02*
Y150374D01*
Y150366*
X162228Y150151*
Y150150*
X162192Y149971*
X162188Y149959*
X162116Y149816*
X162103Y149799*
X161924Y149656*
X161903Y149646*
X161724Y149610*
X161704*
X161526Y149646*
X161504Y149656*
X161326Y149799*
X161312Y149816*
X161241Y149959*
X161237Y149971*
X161201Y150150*
Y150151*
X161165Y150366*
X161164Y150374*
Y150945*
X161165Y150952*
X161201Y151202*
X161201D02*
Y151205D01*
X161237Y151384*
X161244Y151401*
X161316Y151509*
X161318Y151512*
X161461Y151691*
X161492Y151709*
X161706Y151744*
X161724*
X161903Y151708*
X161924Y151698*
X162103Y151556*
X162116Y151539*
X162188Y151396*
X162192Y151384*
X162228Y151205*
Y151202*
X162264Y150952*
Y150945*
X160485Y120633D02*
X160451Y120834D01*
X160385Y121033*
X160259Y121160*
X160056Y121227*
X160046Y121318*
X160219Y121422*
X160316Y121519*
X160381Y121648*
X160414Y121812*
X160381Y122039*
X160216Y122237*
X160018Y122369*
X159714Y122403*
X159410Y122369*
X159212Y122237*
X159048Y122040*
X159015Y121778*
X159047Y121649*
X159113Y121519*
X159210Y121422*
X159383Y121318*
X159380Y121230*
X159172Y121127*
X159043Y120997*
X158977Y120833*
X158944Y120633*
X159011Y120329*
X159144Y120096*
X159410Y119930*
X159714Y119896*
X160019Y119930*
X160284Y120096*
X160417Y120329*
X160485Y120633*
X160192Y121801D02*
X160156Y121622D01*
X160149Y121604*
X160077Y121497*
X160058Y121480*
X159915Y121409*
X159903Y121404*
X159724Y121369*
X159704*
X159526Y121404*
X159513Y121409*
X159370Y121480*
X159351Y121497*
X159280Y121604*
X159273Y121620*
X159237Y121763*
Y121787*
X159273Y121930*
X159277Y121940*
X159348Y122083*
X159370Y122105*
X159370D02*
X159513Y122177D01*
X159526Y122181*
X159704Y122217*
X159724*
X159903Y122181*
X159915Y122177*
X160058Y122105*
X160077Y122088*
X160149Y121981*
X160156Y121965*
X160191Y121823*
X160192Y121801*
X160264Y120632D02*
Y120625D01*
X160228Y120375*
X160220Y120354*
X160149Y120247*
X160130Y120230*
X159989Y120160*
X159885Y120090*
X159857Y120082*
X159714*
X159706Y120083*
X159492Y120118*
X159470Y120128*
X159327Y120235*
X159317Y120245*
X159210Y120388*
X159201Y120409*
X159165Y120624*
X159164Y120632*
X159165Y120642*
X159201Y120820*
X159207Y120836*
X159314Y121015*
X159327Y121029*
X159470Y121136*
X159492Y121145*
X159706Y121181*
X159723*
X159937Y121145*
X159959Y121136*
X160101Y121029*
X160114Y121015*
X160221Y120836*
X160228Y120820*
X160263Y120642*
X160264Y120632*
X160485Y127501D02*
X160417Y127806D01*
X160282Y128075*
X160051Y128241*
X159748Y128308*
X159515Y128275*
X159315Y128175*
X159183Y128042*
X159047Y127804*
X158978Y127529*
X158943Y127109*
X158978Y126687*
X159047Y126341*
X159183Y126104*
X159351Y125936*
X159551Y125836*
X159786Y125802*
X160054Y125836*
X160250Y125966*
X160382Y126165*
X160438Y126387*
X160213Y126412*
X160155Y126236*
X160149Y126224*
X160077Y126117*
X160063Y126103*
X159956Y126032*
X159941Y126025*
X159798Y125989*
X159772*
X159522Y126061*
X159504Y126070*
X159326Y126213*
X159309Y126240*
X159274Y126377*
X159205Y126515*
X159200Y126533*
X159164Y126926*
Y126930*
Y126966*
X159247Y127004*
X159491Y126795*
X159657Y126728*
X159819Y126696*
X160052Y126762*
X160283Y126895*
X160417Y127161*
X160485Y127501*
X160264Y127466D02*
Y127458D01*
X160228Y127243*
X160221Y127226*
X160114Y127047*
X160101Y127033*
X159959Y126926*
X159937Y126917*
X159723Y126881*
X159706*
X159492Y126917*
X159470Y126926*
X159327Y127033*
X159314Y127047*
X159207Y127226*
X159201Y127245*
X159201D02*
X159165Y127495D01*
X159164Y127502*
X159165Y127510*
X159201Y127724*
X159205Y127738*
X159312Y127953*
X159327Y127970*
X159470Y128077*
X159492Y128087*
X159706Y128122*
X159724*
X159903Y128086*
X159924Y128076*
X160103Y127934*
X160114Y127920*
X160221Y127742*
X160228Y127723*
X160264Y127473*
Y127466*
X160464Y154805D02*
X158707D01*
Y154620*
X160157*
X160207Y154570*
Y153748*
X160157Y153698*
X158814*
Y153513*
X160157*
X160207Y153463*
Y152570*
X160157Y152520*
X158636*
Y152334*
X160464*
Y154805*
X158171Y153127D02*
X157912D01*
X157885Y152988*
X157882Y152980*
X157811Y152801*
X157800Y152784*
X157692Y152677*
X157687Y152673*
X157544Y152565*
X157533Y152559*
X157354Y152488*
X157336Y152484*
X157157*
X157146Y152485*
X156825Y152557*
X156813Y152561*
X156670Y152632*
X156658Y152642*
X156658D02*
X156586Y152713D01*
X156577Y152726*
X156505Y152869*
X156500Y152891*
Y152998*
X156504Y153017*
X156575Y153195*
X156580Y153205*
X156651Y153312*
X156670Y153329*
X156670D02*
X156813Y153400D01*
X156824Y153404*
X157531Y153581*
X157876Y153788*
X157973Y153885*
X158038Y154015*
X158070Y154177*
X158038Y154341*
X157972Y154506*
X157840Y154637*
X157672Y154738*
X157467Y154807*
X157228Y154841*
X156954Y154806*
X156748Y154738*
X156544Y154636*
X156414Y154506*
X156348Y154342*
X156323Y154191*
X156579*
X156608Y154364*
X156622Y154391*
X156765Y154534*
X156781Y154545*
X156960Y154616*
X156970Y154619*
X157185Y154655*
X157200*
X157450Y154619*
X157461Y154616*
X157640Y154545*
X157661Y154528*
X157769Y154385*
X157777Y154368*
X157813Y154225*
Y154200*
X157777Y154058*
X157764Y154034*
X157698Y153969*
X157666Y153904*
X157666D02*
X157637Y153879D01*
X157530Y153844*
X157526Y153843*
X157387Y153808*
X157211Y153738*
X157204Y153735*
X156885Y153664*
X156676Y153595*
X156472Y153493*
X156343Y153363*
X156277Y153199*
X156244Y152999*
X156277Y152834*
X156344Y152667*
X156475Y152502*
X156676Y152402*
X156883Y152333*
X157122Y152299*
X157434Y152333*
X157708Y152402*
X157909Y152536*
X158042Y152703*
X158144Y152940*
X158171Y153127*
X155679Y154805D02*
X154556D01*
X154421Y154772*
X154113Y154669*
X154016Y154573*
X153915Y154438*
X153850Y154274*
Y154109*
X153884Y153838*
X154053Y153602*
X154150Y153505*
X154314Y153439*
X154484Y153405*
X155371*
X155421Y153355*
Y152334*
X155679*
Y154805*
X155421Y154570D02*
Y153641D01*
X155371Y153591*
X154729*
X154722Y153592*
X154722D02*
X154472Y153627D01*
X154472D02*
X154460Y153630D01*
X154281Y153702*
X154257Y153723*
X154150Y153901*
X154144Y153917*
X154108Y154096*
X154107Y154105*
Y154248*
X154112Y154271*
X154184Y154414*
X154193Y154426*
X154300Y154534*
X154320Y154546*
X154534Y154617*
X154550Y154620*
X155371*
X155421Y154570*
X153380Y152919D02*
X153156Y152944D01*
X153097Y152768*
X153090Y152754*
X152983Y152611*
X152965Y152596*
X152822Y152525*
X152810Y152521*
X152631Y152485*
X152613*
X152399Y152520*
X152377Y152530*
X152234Y152637*
X152221Y152651*
X152114Y152830*
X152108Y152846*
X152072Y153024*
X152071Y153034*
X152072Y153042*
X152108Y153257*
X152117Y153278*
X152224Y153421*
X152234Y153431*
X152377Y153538*
X152399Y153548*
X152613Y153583*
X152630*
X152778Y153559*
X152756Y153734*
X152550*
X152520Y153744*
X152377Y153851*
X152372Y153856*
X152265Y153963*
X152251Y153988*
X152215Y154167*
X152216Y154189*
X152251Y154332*
X152255Y154342*
X152327Y154485*
X152344Y154504*
X152451Y154576*
X152469Y154583*
X152647Y154619*
X152669Y154618*
X152812Y154583*
X152822Y154579*
X152965Y154507*
X152988Y154485*
X153059Y154342*
X153061Y154338*
X153118Y154195*
X153338Y154219*
X153255Y154440*
X153121Y154641*
X152925Y154772*
X152659Y154805*
X152493Y154772*
X152325Y154704*
X152060Y154505*
X151994Y154178*
X152058Y153920*
X152330Y153717*
X152316Y153629*
X152113Y153562*
X151983Y153432*
X151884Y153267*
X151851Y153037*
X151918Y152768*
X152086Y152500*
X152318Y152367*
X152659Y152299*
X152927Y152332*
X153159Y152465*
X153325Y152698*
X153380Y152919*
X151455Y152334D02*
X151430Y152485D01*
X151363Y152651*
X151085Y152999*
X150838Y153211*
X150517Y153497*
X150512Y153501*
X150298Y153751*
X150293Y153758*
X150186Y153937*
X150180Y153953*
X150144Y154131*
Y154151*
X150180Y154330*
X150193Y154355*
X150300Y154462*
X150306Y154467*
X150449Y154574*
X150469Y154583*
X150647Y154619*
X150665*
X150880Y154583*
X150901Y154574*
X151044Y154467*
X151054Y154457*
X151161Y154314*
X151170Y154294*
X151197Y154160*
X151416Y154185*
X151361Y154406*
X151194Y154639*
X150963Y154771*
X150660Y154805*
X150354Y154737*
X150118Y154602*
X149955Y154406*
X149922Y154144*
X149991Y153871*
X150058Y153702*
X150161Y153565*
X150336Y153355*
X150618Y153108*
X150831Y152930*
X150973Y152824*
X150982Y152815*
X151125Y152637*
X151086Y152555*
X149886*
Y152334*
X151455*
X149464Y153270D02*
X148600D01*
Y153084*
X149464*
Y153270*
X148214Y153570D02*
X148179Y153952D01*
X148076Y154261*
X147906Y154500*
X147667Y154705*
X147395Y154806*
X147086Y154841*
X146781Y154807*
X146510Y154637*
X146306Y154434*
X146192Y154178*
X146449Y154127*
X146540Y154339*
X146550Y154355*
X146693Y154498*
X146703Y154505*
X146881Y154613*
X146899Y154619*
X147113Y154655*
X147128*
X147128D02*
X147378Y154619D01*
X147378D02*
X147394Y154614D01*
X147608Y154507*
X147625Y154494*
X147768Y154315*
X147773Y154306*
X147880Y154092*
X147885Y154077*
X147921Y153827*
X147956Y153614*
X147957Y153605*
Y153600*
X147921Y153278*
X147920Y153272*
X147849Y152986*
X147843Y152973*
X147736Y152794*
X147732Y152788*
X147589Y152610*
X147566Y152594*
X147352Y152522*
X147344Y152520*
X147130Y152485*
X147114*
X147114D02*
X146864Y152520D01*
X146844Y152528*
X146629Y152671*
X146618Y152681*
X146475Y152860*
X146467Y152874*
X146375Y153119*
X146117Y153068*
X146237Y152738*
X146439Y152502*
X146744Y152333*
X147086Y152299*
X147429Y152333*
X147703Y152470*
X147939Y152639*
X148075Y152910*
X148179Y153223*
X148214Y153570*
X145630Y152919D02*
X145406Y152944D01*
X145347Y152768*
X145340Y152754*
X145233Y152611*
X145215Y152596*
X145072Y152525*
X145060Y152521*
X144881Y152485*
X144863*
X144649Y152520*
X144627Y152530*
X144484Y152637*
X144471Y152651*
X144364Y152830*
X144358Y152846*
X144322Y153024*
X144321Y153034*
X144322Y153042*
X144358Y153257*
X144367Y153278*
X144474Y153421*
X144484Y153431*
X144627Y153538*
X144649Y153548*
X144863Y153583*
X144880*
X145028Y153559*
X145006Y153734*
X144800*
X144770Y153744*
X144627Y153851*
X144622Y153856*
X144515Y153963*
X144501Y153988*
X144465Y154167*
X144466Y154189*
X144501Y154332*
X144505Y154342*
X144577Y154485*
X144594Y154504*
X144701Y154576*
X144719Y154583*
X144897Y154619*
X144919Y154618*
X145062Y154583*
X145072Y154579*
X145215Y154507*
X145238Y154485*
X145309Y154342*
X145311Y154338*
X145368Y154195*
X145588Y154219*
X145505Y154440*
X145371Y154641*
X145175Y154772*
X144909Y154805*
X144743Y154772*
X144575Y154704*
X144310Y154505*
X144244Y154178*
X144308Y153920*
X144580Y153717*
X144566Y153629*
X144363Y153562*
X144233Y153432*
X144134Y153267*
X144101Y153037*
X144168Y152768*
X144336Y152500*
X144568Y152367*
X144909Y152299*
X145177Y152332*
X145409Y152465*
X145575Y152698*
X145630Y152919*
X143714Y153270D02*
X142850D01*
Y153084*
X143714*
Y153270*
X142592Y154805D02*
X142340D01*
X141956Y153165*
X141955Y153164*
X141813Y152628*
X141715Y152631*
X141680Y152809*
X141646Y152945*
X141612Y153012*
X141607Y153034*
Y153098*
X141084Y154805*
X140766*
X140384Y153555*
X140098Y152626*
X140001Y152633*
X139965Y152846*
X139894Y153166*
X139510Y154805*
X139258*
X139910Y152334*
X140192*
X140788Y154263*
Y154264*
X140857Y154471*
Y154534*
X140954Y154553*
X141025Y154374*
X141027Y154368*
X141063Y154226*
X141623Y152334*
X141940*
X142592Y154805*
X138821D02*
X137767D01*
X137451Y154770*
X137283Y154737*
X137120Y154639*
X137023Y154509*
X136956Y154342*
X136922Y154141*
X136955Y153912*
X137086Y153748*
X137288Y153580*
X137562Y153511*
X137581Y153424*
X137405Y153282*
X137266Y153143*
X137127Y152970*
X136745Y152334*
X137057*
X137364Y152845*
X137366Y152847*
X137508Y153062*
X137510Y153064*
X137616Y153206*
X137687Y153312*
X137693Y153319*
X137765Y153391*
X137778Y153400*
X137920Y153472*
X137943Y153477*
X138514*
X138564Y153427*
Y152334*
X138821*
Y154805*
X138564Y154570D02*
Y153713D01*
X138514Y153663*
X137621*
X137609Y153664*
X137466Y153700*
X137443Y153713*
X137265Y153892*
X137253Y153911*
X137181Y154125*
X137180Y154151*
X137215Y154330*
X137220Y154342*
X137291Y154485*
X137317Y154509*
X137496Y154580*
X137506Y154583*
X137720Y154619*
X137729Y154620*
X138514*
X138564Y154570*
X136357Y153534D02*
X136287Y154091D01*
X136186Y154292*
X136015Y154498*
X135843Y154636*
X135673Y154738*
X135432Y154806*
X135192Y154841*
X134885Y154807*
X134577Y154670*
X134337Y154464*
X134166Y154225*
X134063Y153916*
X134029Y153569*
X134064Y153187*
X134166Y152881*
X134371Y152641*
X134612Y152435*
X134883Y152333*
X135193Y152299*
X135501Y152333*
X135809Y152470*
X136049Y152675*
X136219Y152914*
X136322Y153223*
X136357Y153534*
X136100Y153784D02*
Y153534D01*
X136099Y153526*
X136028Y153097*
X136022Y153081*
X135844Y152760*
X135827Y152742*
X135827D02*
X135541Y152563D01*
X135525Y152557*
X135204Y152485*
X135183*
X134826Y152556*
X134807Y152565*
X134557Y152743*
X134541Y152762*
X134362Y153119*
X134358Y153133*
X134286Y153561*
Y153576*
X134322Y153862*
X134323Y153869*
X134395Y154119*
X134398Y154128*
X134505Y154342*
X134519Y154359*
X134697Y154502*
X134706Y154507*
X134920Y154614*
X134920D02*
X134936Y154619D01*
X135186Y154655*
X135204Y154654*
X135525Y154583*
X135541Y154576*
X135827Y154398*
X135827D02*
X135840Y154385D01*
X135947Y154243*
X135954Y154231*
X136025Y154053*
X136027Y154048*
X136098Y153798*
X136100Y153784*
X133571Y153534D02*
X133501Y154091D01*
X133401Y154292*
X133229Y154498*
X133057Y154636*
X132887Y154738*
X132647Y154806*
X132406Y154841*
X132099Y154807*
X131791Y154670*
X131551Y154464*
X131381Y154225*
X131278Y153916*
X131243Y153569*
X131278Y153187*
X131380Y152881*
X131585Y152641*
X131826Y152435*
X132097Y152333*
X132407Y152299*
X132715Y152333*
X133023Y152470*
X133263Y152675*
X133434Y152914*
X133537Y153223*
X133571Y153534*
X133314Y153784D02*
Y153534D01*
Y153526*
X133242Y153097*
X133237Y153081*
X133058Y152760*
X133041Y152742*
X132755Y152563*
X132739Y152557*
X132418Y152485*
X132397*
X132040Y152556*
X132021Y152565*
X131771Y152743*
X131755Y152762*
X131577Y153119*
X131572Y153133*
X131501Y153561*
X131500Y153576*
X131536Y153862*
X131538Y153869*
X131609Y154119*
X131612Y154128*
X131720Y154342*
X131733Y154359*
X131912Y154502*
X131920Y154507*
X131920D02*
X132135Y154614D01*
X132150Y154619*
X132400Y154655*
X132418Y154654*
X132739Y154583*
X132755Y154576*
X133041Y154398*
X133054Y154385*
X133161Y154243*
X133168Y154231*
X133239Y154053*
X133241Y154048*
X133312Y153798*
X133314Y153784*
X130714Y154805D02*
X130265D01*
X129705Y153018*
X129633Y152804*
X129630Y152797*
X129559Y152654*
X129559D02*
X129466Y152665D01*
X129430Y152807*
X129359Y153055*
X128799Y154805*
X128350*
Y152334*
X128607*
Y154463*
X128705Y154478*
X129408Y152334*
X129692*
X130359Y154477*
X130457Y154463*
Y152334*
X130714*
Y154805*
X127893Y153270D02*
X127029D01*
Y153084*
X127893*
Y153270*
X126643Y153532D02*
X126608Y153955D01*
X126538Y154269*
X126435Y154508*
X126304Y154673*
X126106Y154771*
X125873Y154805*
X125535Y154737*
X125407Y154641*
X125309Y154510*
X125169Y154126*
X125100Y153884*
Y153536*
X125135Y153149*
X125205Y152835*
X125308Y152596*
X125439Y152431*
X125637Y152332*
X125869Y152299*
X126172Y152366*
X126405Y152533*
X126504Y152697*
X126573Y152940*
X126643Y153219*
Y153532*
X126421Y153820D02*
Y153248D01*
Y153240*
X126385Y153026*
Y153024*
X126349Y152846*
X126345Y152833*
X126273Y152690*
X126260Y152674*
X126081Y152531*
X126060Y152521*
X125881Y152485*
X125862*
X125683Y152521*
X125662Y152531*
X125483Y152674*
X125470Y152690*
X125398Y152833*
X125394Y152846*
X125358Y153024*
Y153026*
X125322Y153240*
X125321Y153248*
Y153820*
X125322Y153827*
X125358Y154077*
Y154080*
X125394Y154258*
X125401Y154276*
X125473Y154383*
X125475Y154387*
X125618Y154565*
X125649Y154583*
X125863Y154619*
X125881*
X126060Y154583*
X126081Y154573*
X126260Y154430*
X126273Y154414*
X126273D02*
X126345Y154271D01*
X126349Y154258*
X126385Y154080*
Y154077*
X126421Y153827*
Y153820*
X124104Y130859D02*
X123567D01*
Y128925*
X123517Y128875*
X121887*
X121837Y128925*
Y130859*
X121299*
Y126211*
X121837*
Y128358*
X121887Y128408*
X123517*
X123567Y128358*
Y126211*
X124104*
Y130859*
X124705Y152334D02*
X124680Y152485D01*
X124613Y152651*
X124335Y152999*
X124088Y153211*
X123767Y153497*
X123762Y153501*
X123548Y153751*
X123543Y153758*
X123436Y153937*
X123430Y153953*
X123394Y154131*
Y154151*
X123430Y154330*
X123443Y154355*
X123550Y154462*
X123556Y154467*
X123699Y154574*
X123719Y154583*
X123897Y154619*
X123915*
X124130Y154583*
X124151Y154574*
X124294Y154467*
X124304Y154457*
X124411Y154314*
X124420Y154294*
X124447Y154160*
X124666Y154185*
X124611Y154406*
X124444Y154639*
X124213Y154771*
X123910Y154805*
X123604Y154737*
X123368Y154602*
X123205Y154406*
X123172Y154144*
X123241Y153871*
X123308Y153702*
X123411Y153565*
X123586Y153355*
X123868Y153108*
X124081Y152930*
X124223Y152824*
X124232Y152815*
X124375Y152637*
X124336Y152555*
X123136*
Y152334*
X124705*
X122536Y154805D02*
X122279D01*
Y153105*
X122276Y153090*
X122205Y152875*
X122202Y152869*
X122130Y152726*
X122121Y152713*
X122014Y152606*
X121997Y152595*
X121819Y152523*
X121800Y152520*
X121621*
X121616*
X121294Y152556*
X121272Y152564*
X121058Y152707*
X121044Y152721*
X120973Y152828*
X120966Y152843*
X120930Y152986*
Y152988*
X120894Y153167*
X120893Y153177*
Y154805*
X120636*
Y153358*
X120671Y153040*
X120705Y152766*
X120837Y152568*
X121004Y152435*
X121276Y152333*
X121586Y152299*
X121897Y152333*
X122133Y152401*
X122333Y152567*
X122432Y152732*
X122501Y153007*
X122536Y153358*
Y154805*
X120490Y130859D02*
X117684D01*
Y130392*
X119902*
X119952Y130342*
Y128783*
X119902Y128733*
X118251*
Y128337*
X119902*
X119952Y128287*
Y126211*
X120490*
Y130859*
X119262Y154805D02*
X118977D01*
X118276Y152981*
X118133Y152554*
X118037Y152558*
X117931Y152983*
X117230Y154805*
X116945*
X117906Y152334*
X118266*
X119262Y154805*
X115464Y154184D02*
X115239Y154312D01*
X115237Y154314*
X115022Y154457*
X115015Y154463*
X114836Y154642*
X114829Y154651*
X114736Y154805*
X114600*
Y152334*
X114821*
Y154284*
X114901Y154324*
X115184Y154112*
X115464Y153972*
Y154184*
X113536Y152555D02*
X113314D01*
Y152334*
X113536*
Y152555*
X111971Y103451D02*
X111937Y103798D01*
X111834Y104106*
X111628Y104381*
X111389Y104585*
X111082Y104688*
X110736Y104722*
X110461Y104688*
X110255Y104619*
X110051Y104517*
X109916Y104382*
X109780Y104213*
X109729Y104059*
X109958Y104008*
X110084Y104259*
X110093Y104272*
X110200Y104379*
X110213Y104389*
X110356Y104460*
X110369Y104464*
X110726Y104536*
X110745*
X111138Y104465*
X111155Y104458*
X111441Y104279*
X111458Y104262*
X111601Y104012*
X111605Y104001*
X111677Y103751*
X111678Y103743*
X111714Y103457*
Y103451*
Y103446*
X111678Y103124*
X111677Y103116*
X111605Y102866*
X111599Y102852*
X111456Y102638*
X111442Y102624*
X111228Y102481*
X111216Y102475*
X111002Y102404*
X110993Y102402*
X110743Y102366*
X110727*
X110299Y102437*
X110281Y102444*
X110103Y102551*
X110099Y102554*
X109956Y102661*
X109936Y102701*
Y103201*
X109986Y103251*
X110686*
Y103437*
X109679*
Y102548*
X109902Y102388*
X110180Y102284*
X110424Y102214*
X110701Y102180*
X111047Y102215*
X111355Y102317*
X111630Y102523*
X111834Y102762*
X111936Y103069*
X111971Y103451*
X112741Y152334D02*
X112716Y152485D01*
X112649Y152651*
X112371Y152999*
X112124Y153211*
X111802Y153497*
X111798Y153501*
X111583Y153751*
X111579Y153758*
X111471Y153937*
X111465Y153953*
X111430Y154131*
Y154151*
X111465Y154330*
X111479Y154355*
X111586Y154462*
X111591Y154467*
X111734Y154574*
X111754Y154583*
X111933Y154619*
X111951*
X112165Y154583*
X112187Y154574*
X112330Y154467*
X112340Y154457*
X112447Y154314*
X112456Y154294*
X112483Y154160*
X112702Y154185*
X112647Y154406*
X112480Y154639*
X112248Y154771*
X111946Y154805*
X111640Y154737*
X111404Y154602*
X111241Y154406*
X111208Y154144*
X111276Y153871*
X111344Y153702*
X111446Y153565*
X111622Y153355*
X111904Y153108*
X112117Y152930*
X112259Y152824*
X112268Y152815*
X112410Y152637*
X112371Y152555*
X111171*
Y152334*
X112741*
X109629Y110592D02*
X109371D01*
Y108121*
X109629*
Y110592*
Y116498D02*
X109371D01*
Y114026*
X109629*
Y116498*
Y122403D02*
X109371D01*
Y119932*
X109629*
Y122403*
Y128309D02*
X109371D01*
Y125837*
X109629*
Y128309*
Y134214D02*
X109371D01*
Y131743*
X109629*
Y134214*
Y140120D02*
X109371D01*
Y137648*
X109629*
Y140120*
X109079Y104687D02*
X108763D01*
X107528Y102781*
X107436Y102808*
Y104687*
X107179*
Y102215*
X107494*
X108729Y104121*
X108821Y104094*
Y102215*
X109079*
Y104687*
X110459Y150044D02*
X110235Y150069D01*
X110176Y149893*
X110169Y149879*
X110061Y149736*
X110044Y149721*
X109901Y149650*
X109888Y149646*
X109710Y149610*
X109692*
X109477Y149645*
X109456Y149655*
X109313Y149762*
X109300Y149776*
X109193Y149955*
X109187Y149971*
X109151Y150149*
X109150Y150159*
X109151Y150167*
X109186Y150382*
X109196Y150403*
X109303Y150546*
X109313Y150556*
X109456Y150663*
X109477Y150673*
X109692Y150708*
X109708*
X109856Y150684*
X109834Y150859*
X109629*
X109599Y150869*
X109456Y150976*
X109450Y150981*
X109343Y151088*
X109330Y151113*
X109294Y151292*
Y151314*
X109330Y151457*
X109334Y151467*
X109405Y151610*
X109422Y151629*
X109529Y151701*
X109547Y151708*
X109726Y151744*
X109748Y151743*
X109891Y151708*
X109901Y151704*
X110044Y151632*
X110066Y151610*
X110138Y151467*
X110139Y151463*
X110197Y151320*
X110416Y151344*
X110334Y151565*
X110200Y151766*
X110004Y151897*
X109738Y151930*
X109571Y151897*
X109403Y151829*
X109138Y151630*
X109073Y151303*
X109137Y151045*
X109409Y150842*
X109394Y150754*
X109191Y150687*
X109061Y150557*
X108962Y150392*
X108929Y150162*
X108997Y149893*
X109164Y149625*
X109396Y149492*
X109738Y149424*
X110005Y149457*
X110237Y149590*
X110404Y149823*
X110459Y150044*
X106507Y104687D02*
X105419D01*
X105249Y104653*
X105042Y104584*
X104876Y104484*
X104707Y104282*
X104605Y104042*
X104535Y103764*
X104500Y103448*
Y103208*
X104569Y102966*
X104639Y102758*
X104740Y102589*
X104943Y102386*
X105248Y102250*
X105631Y102215*
X106507*
Y104687*
X106250Y104451D02*
Y102451D01*
X106200Y102401*
X105450*
X105440Y102402*
X105262Y102438*
X105244Y102445*
X105029Y102588*
X105017Y102600*
X104910Y102742*
X104904Y102754*
X104832Y102932*
X104832D02*
X104830Y102937D01*
X104759Y103187*
X104757Y103201*
Y103451*
Y103456*
X104793Y103848*
X104797Y103864*
X104904Y104114*
X104911Y104125*
X105054Y104304*
X105063Y104312*
X105206Y104420*
X105217Y104426*
X105396Y104497*
X105414Y104501*
X106200*
X106250Y104451*
X108771Y109321D02*
X108701Y109878D01*
X108601Y110079*
X108429Y110285*
X108257Y110423*
X108087Y110525*
X107847Y110593*
X107606Y110628*
X107299Y110593*
X106991Y110457*
X106751Y110251*
X106581Y110012*
X106478Y109703*
X106443Y109356*
X106478Y108974*
X106580Y108667*
X106785Y108428*
X107026Y108222*
X107297Y108120*
X107607Y108085*
X107915Y108120*
X108223Y108256*
X108463Y108462*
X108634Y108701*
X108737Y109010*
X108771Y109321*
X108514Y109571D02*
Y109321D01*
Y109313*
X108442Y108884*
X108437Y108868*
X108258Y108547*
X108241Y108528*
X107955Y108350*
X107939Y108343*
X107618Y108272*
X107597*
X107240Y108343*
X107221Y108352*
X106971Y108530*
X106955Y108549*
X106777Y108906*
X106772Y108920*
X106701Y109348*
X106700Y109363*
X106736Y109648*
X106738Y109656*
X106809Y109906*
X106812Y109915*
X106920Y110129*
X106933Y110146*
X107112Y110288*
X107120Y110294*
X107120D02*
X107335Y110401D01*
X107350Y110406*
X107600Y110442*
X107618Y110441*
X107939Y110370*
X107955Y110363*
X108241Y110185*
X108254Y110172*
X108361Y110029*
X108368Y110018*
X108439Y109839*
X108441Y109835*
X108512Y109585*
X108514Y109571*
X108771Y115226D02*
X108701Y115783D01*
X108601Y115985*
X108429Y116190*
X108257Y116328*
X108087Y116430*
X107847Y116499*
X107606Y116533*
X107299Y116499*
X106991Y116362*
X106751Y116157*
X106581Y115918*
X106478Y115609*
X106443Y115262*
X106478Y114880*
X106580Y114573*
X106785Y114333*
X107026Y114127*
X107297Y114025*
X107607Y113991*
X107915Y114025*
X108223Y114162*
X108463Y114368*
X108634Y114606*
X108737Y114916*
X108771Y115226*
X108514Y115476D02*
Y115226D01*
Y115218*
X108442Y114790*
X108437Y114774*
X108258Y114452*
X108241Y114434*
X107955Y114255*
X107939Y114249*
X107618Y114178*
X107597Y114177*
X107240Y114249*
X107221Y114257*
X106971Y114436*
X106955Y114454*
X106777Y114811*
X106772Y114825*
X106701Y115254*
X106700Y115268*
X106736Y115554*
X106738Y115562*
X106809Y115812*
X106812Y115820*
X106920Y116034*
X106933Y116051*
X107112Y116194*
X107120Y116200*
X107120D02*
X107335Y116307D01*
X107350Y116312*
X107600Y116347*
X107618*
X107939Y116275*
X107955Y116269*
X108241Y116090*
X108254Y116078*
X108361Y115935*
X108368Y115924*
X108439Y115745*
X108441Y115740*
X108512Y115490*
X108514Y115476*
X108771Y121132D02*
X108701Y121689D01*
X108601Y121890*
X108429Y122096*
X108257Y122234*
X108087Y122336*
X107847Y122404*
X107606Y122439*
X107299Y122404*
X106991Y122268*
X106751Y122062*
X106581Y121823*
X106478Y121514*
X106443Y121167*
X106478Y120785*
X106580Y120478*
X106785Y120239*
X107026Y120033*
X107297Y119931*
X107607Y119896*
X107915Y119931*
X108223Y120067*
X108463Y120273*
X108634Y120512*
X108737Y120821*
X108771Y121132*
X108514Y121382D02*
Y121132D01*
Y121124*
X108442Y120695*
X108437Y120679*
X108258Y120358*
X108241Y120339*
X107955Y120161*
X107939Y120155*
X107618Y120083*
X107597*
X107240Y120154*
X107221Y120163*
X106971Y120341*
X106955Y120360*
X106777Y120717*
X106772Y120731*
X106701Y121159*
X106700Y121174*
X106736Y121460*
X106738Y121467*
X106809Y121717*
X106812Y121726*
X106920Y121940*
X106933Y121957*
X107112Y122100*
X107120Y122105*
X107120D02*
X107335Y122212D01*
X107350Y122217*
X107600Y122253*
X107618Y122252*
X107939Y122181*
X107955Y122174*
X108241Y121996*
X108254Y121983*
X108361Y121840*
X108368Y121829*
X108439Y121650*
X108441Y121646*
X108512Y121396*
X108514Y121382*
X108771Y127037D02*
X108701Y127594D01*
X108601Y127796*
X108429Y128002*
X108257Y128139*
X108087Y128241*
X107847Y128310*
X107606Y128344*
X107299Y128310*
X106991Y128173*
X106751Y127968*
X106581Y127729*
X106478Y127420*
X106443Y127073*
X106478Y126691*
X106580Y126384*
X106785Y126144*
X107026Y125938*
X107297Y125836*
X107607Y125802*
X107915Y125836*
X108223Y125973*
X108463Y126179*
X108634Y126417*
X108737Y126727*
X108771Y127037*
X108514Y127287D02*
Y127037D01*
Y127029*
X108442Y126601*
X108437Y126585*
X108258Y126263*
X108241Y126245*
X107955Y126066*
X107939Y126060*
X107618Y125989*
X107597Y125988*
X107240Y126060*
X107221Y126068*
X106971Y126247*
X106955Y126265*
X106777Y126622*
X106772Y126636*
X106701Y127065*
X106700Y127079*
X106736Y127365*
X106738Y127373*
X106809Y127623*
X106812Y127631*
X106920Y127845*
X106933Y127862*
X107112Y128005*
X107120Y128011*
X107120D02*
X107335Y128118D01*
X107350Y128123*
X107600Y128158*
X107618*
X107939Y128086*
X107955Y128080*
X108241Y127901*
X108254Y127889*
X108361Y127746*
X108368Y127735*
X108439Y127556*
X108441Y127551*
X108512Y127301*
X108514Y127287*
X108771Y132943D02*
X108701Y133500D01*
X108601Y133701*
X108429Y133907*
X108257Y134045*
X108087Y134147*
X107847Y134215*
X107606Y134250*
X107299Y134216*
X106991Y134079*
X106751Y133873*
X106581Y133634*
X106478Y133325*
X106443Y132978*
X106478Y132596*
X106580Y132289*
X106785Y132050*
X107026Y131844*
X107297Y131742*
X107607Y131708*
X107915Y131742*
X108223Y131878*
X108463Y132084*
X108634Y132323*
X108737Y132632*
X108771Y132943*
X108514Y133193D02*
Y132943D01*
Y132935*
X108442Y132506*
X108437Y132490*
X108258Y132169*
X108241Y132151*
X107955Y131972*
X107939Y131966*
X107618Y131894*
X107597*
X107240Y131965*
X107221Y131974*
X106971Y132152*
X106955Y132171*
X106777Y132528*
X106772Y132542*
X106701Y132970*
X106700Y132985*
X106736Y133271*
X106738Y133278*
X106809Y133528*
X106812Y133537*
X106920Y133751*
X106933Y133768*
X107112Y133911*
X107120Y133916*
X107120D02*
X107335Y134023D01*
X107350Y134028*
X107600Y134064*
X107618Y134063*
X107939Y133992*
X107955Y133985*
X108241Y133807*
X108254Y133794*
X108361Y133651*
X108368Y133640*
X108439Y133461*
X108441Y133457*
X108512Y133207*
X108514Y133193*
X108771Y138848D02*
X108701Y139405D01*
X108601Y139607*
X108429Y139813*
X108257Y139950*
X108087Y140052*
X107847Y140121*
X107606Y140155*
X107299Y140121*
X106991Y139984*
X106751Y139779*
X106581Y139540*
X106478Y139231*
X106443Y138884*
X106478Y138502*
X106580Y138195*
X106785Y137955*
X107026Y137749*
X107297Y137647*
X107607Y137613*
X107915Y137647*
X108223Y137784*
X108463Y137990*
X108634Y138229*
X108737Y138538*
X108771Y138848*
X108514Y139098D02*
Y138848D01*
Y138840*
X108442Y138412*
X108437Y138396*
X108258Y138074*
X108241Y138056*
X107955Y137877*
X107939Y137871*
X107618Y137800*
X107597Y137799*
X107240Y137871*
X107221Y137879*
X106971Y138058*
X106955Y138076*
X106777Y138433*
X106772Y138447*
X106701Y138876*
X106700Y138890*
X106736Y139176*
X106738Y139184*
X106809Y139434*
X106812Y139442*
X106920Y139657*
X106920D02*
X106933Y139673D01*
X107112Y139816*
X107120Y139822*
X107120D02*
X107335Y139929D01*
X107350Y139934*
X107600Y139969*
X107618*
X107939Y139897*
X107955Y139891*
X108241Y139712*
X108254Y139700*
X108361Y139557*
X108368Y139546*
X108439Y139367*
X108441Y139362*
X108512Y139112*
X108514Y139098*
X108864Y146025D02*
X107107D01*
Y145840*
X108557*
X108607Y145790*
Y144968*
X108557Y144918*
X107214*
Y144733*
X108557*
X108607Y144683*
Y143790*
X108557Y143740*
X107036*
Y143554*
X108864*
Y146025*
X106471D02*
X106156D01*
X104921Y144120*
X104829Y144147*
Y146025*
X104571*
Y143554*
X104887*
X106122Y145460*
X106214Y145433*
Y143554*
X106471*
Y146025*
X108662Y151930D02*
X108377D01*
X107676Y150106*
X107533Y149679*
X107437Y149683*
X107331Y150108*
X106630Y151930*
X106345*
X107306Y149459*
X107666*
X108662Y151930*
X105985Y109785D02*
X105917Y110090D01*
X105782Y110359*
X105551Y110524*
X105248Y110592*
X105015Y110558*
X104815Y110458*
X104683Y110326*
X104547Y110088*
X104478Y109813*
X104443Y109392*
X104478Y108971*
X104547Y108624*
X104683Y108387*
X104851Y108219*
X105051Y108119*
X105286Y108086*
X105554Y108119*
X105750Y108250*
X105882Y108449*
X105938Y108670*
X105713Y108695*
X105655Y108519*
X105649Y108507*
X105577Y108400*
X105563Y108386*
X105456Y108315*
X105441Y108308*
X105298Y108272*
X105272Y108273*
X105022Y108344*
X105004Y108353*
X104826Y108496*
X104809Y108523*
X104774Y108661*
X104705Y108799*
X104700Y108816*
X104664Y109209*
Y109214*
Y109249*
X104747Y109287*
X104991Y109079*
X105157Y109012*
X105319Y108979*
X105552Y109046*
X105783Y109178*
X105917Y109444*
X105985Y109785*
X105764Y109749D02*
Y109741D01*
X105728Y109527*
X105721Y109509*
X105614Y109331*
X105601Y109317*
X105459Y109209*
X105437Y109200*
X105223Y109164*
X105206*
X104992Y109200*
X104970Y109209*
X104827Y109317*
X104814Y109331*
X104707Y109509*
X104701Y109528*
X104701D02*
X104665Y109778D01*
X104664Y109785*
X104665Y109793*
X104701Y110008*
X104705Y110022*
X104812Y110236*
X104827Y110254*
X104970Y110361*
X104992Y110370*
X105206Y110406*
X105224*
X105403Y110370*
X105424Y110360*
X105603Y110217*
X105614Y110204*
X105721Y110025*
X105728Y110007*
X105764Y109757*
Y109749*
X105985Y114728D02*
X105951Y114929D01*
X105885Y115128*
X105759Y115254*
X105556Y115322*
X105546Y115412*
X105719Y115516*
X105816Y115613*
X105881Y115743*
X105914Y115906*
X105881Y116134*
X105716Y116332*
X105518Y116464*
X105214Y116497*
X105214D02*
X104910Y116464D01*
X104712Y116332*
X104548Y116134*
X104515Y115872*
X104547Y115744*
X104613Y115613*
X104710Y115516*
X104883Y115412*
X104880Y115325*
X104672Y115221*
X104543Y115091*
X104477Y114927*
X104444Y114728*
X104511Y114423*
X104644Y114191*
X104910Y114025*
X105214Y113991*
X105519Y114025*
X105784Y114191*
X105917Y114423*
X105985Y114728*
X105692Y115895D02*
X105656Y115717D01*
X105649Y115699*
X105577Y115592*
X105577D02*
X105558Y115575D01*
X105415Y115503*
X105403Y115499*
X105224Y115463*
X105204*
X105026Y115499*
X105013Y115503*
X104870Y115575*
X104851Y115592*
X104851D02*
X104780Y115699D01*
X104773Y115714*
X104737Y115857*
Y115881*
X104773Y116024*
X104777Y116034*
X104848Y116177*
X104870Y116200*
X104870D02*
X105013Y116271D01*
X105026Y116275*
X105204Y116311*
X105224*
X105403Y116275*
X105415Y116271*
X105558Y116200*
X105577Y116183*
X105649Y116076*
X105656Y116060*
X105691Y115917*
X105692Y115895*
X105764Y114726D02*
Y114719D01*
X105728Y114469*
X105720Y114449*
X105649Y114342*
X105649D02*
X105630Y114325D01*
X105489Y114254*
X105385Y114185*
X105357Y114176*
X105214*
X105206Y114177*
X104992Y114213*
X104970Y114222*
X104827Y114329*
X104817Y114339*
X104710Y114482*
X104701Y114504*
X104665Y114718*
X104664Y114726*
X104665Y114736*
X104701Y114915*
X104707Y114931*
X104814Y115109*
X104827Y115124*
X104970Y115231*
X104992Y115240*
X105206Y115276*
X105223*
X105437Y115240*
X105459Y115231*
X105601Y115124*
X105614Y115109*
X105721Y114931*
X105728Y114915*
X105763Y114736*
X105764Y114726*
X106021Y122368D02*
X104443D01*
Y122185*
X104682Y121877*
X104687Y121870*
X104901Y121477*
X104902Y121476*
X105116Y121047*
X105118Y121044*
X105296Y120615*
X105299Y120606*
X105370Y120249*
X105371Y120244*
X105402Y119932*
X105623*
X105594Y120194*
X105488Y120582*
X105346Y121006*
X105171Y121393*
X104924Y121745*
X104675Y122065*
X104714Y122146*
X106021*
Y122368*
X106057Y126999D02*
X106022Y127318D01*
X105987Y127599*
X105918Y127838*
X105785Y128038*
X105515Y128241*
X105177Y128308*
X104911Y128275*
X104712Y128143*
X104546Y127943*
X104491Y127724*
X104710Y127699*
X104737Y127833*
X104744Y127851*
X104816Y127958*
X104827Y127970*
X104970Y128077*
X104990Y128086*
X105169Y128122*
X105191*
X105476Y128050*
X105500Y128037*
X105642Y127894*
X105642D02*
X105654Y127877D01*
X105725Y127699*
X105726Y127696*
X105797Y127482*
X105800Y127471*
X105835Y127114*
X105836Y127109*
X105747Y127078*
X105608Y127251*
X105479Y127348*
X105144Y127415*
X104878Y127348*
X104645Y127182*
X104511Y126948*
X104444Y126643*
X104477Y126406*
X104546Y126201*
X104645Y126035*
X104810Y125903*
X105012Y125836*
X105218Y125802*
X105383*
X105551Y125869*
X105685Y125936*
X105817Y126068*
X105919Y126237*
X105988Y126445*
X106057Y126687*
Y126999*
X105836Y126645D02*
X105835Y126635D01*
X105799Y126456*
Y126454*
X105763Y126311*
X105756Y126295*
X105684Y126188*
X105673Y126176*
X105530Y126069*
X105528Y126067*
X105421Y125996*
X105393Y125987*
X105214*
X105204Y125988*
X105026Y126024*
X105010Y126030*
X104831Y126137*
X104814Y126155*
X104707Y126333*
X104701Y126352*
X104701D02*
X104665Y126602D01*
Y126616*
X104701Y126866*
X104701D02*
X104707Y126885D01*
X104814Y127063*
X104831Y127080*
X105010Y127187*
X105027Y127194*
X105242Y127230*
X105258*
X105473Y127194*
X105490Y127187*
X105669Y127080*
X105686Y127063*
X105793Y126885*
X105799Y126867*
X105835Y126653*
X105836Y126645*
X105973Y132328D02*
X105749Y132353D01*
X105690Y132177*
X105688Y132171*
X105616Y132028*
X105594Y132005*
X105451Y131934*
X105438Y131930*
X105260Y131894*
X105243Y131893*
X104993Y131929*
X104965Y131943*
X104822Y132086*
X104814Y132096*
X104707Y132274*
X104701Y132293*
X104701D02*
X104665Y132543D01*
Y132557*
X104701Y132807*
X104701D02*
X104707Y132826D01*
X104814Y133004*
X104827Y133019*
X104970Y133126*
X104993Y133135*
X105243Y133171*
X105264Y133170*
X105514Y133098*
X105535Y133085*
X105697Y132924*
X105941Y132951*
X105709Y134179*
X104586*
Y133957*
X105500*
X105549Y133915*
X105657Y133236*
Y133229*
X105579Y133187*
X105375Y133324*
X105145Y133356*
X104878Y133290*
X104643Y133121*
X104477Y132889*
X104443Y132585*
X104477Y132244*
X104612Y132009*
X104747Y131874*
X104878Y131775*
X105045Y131742*
X105251Y131708*
X105520Y131741*
X105751Y131874*
X105918Y132107*
X105973Y132328*
X106129Y138510D02*
X104939Y140084D01*
X104764*
Y138527*
X104714Y138477*
X104443*
Y138256*
X104714*
X104764Y138206*
Y137648*
X104986*
Y138206*
X105036Y138256*
X106129*
Y138510*
X105786Y138477D02*
X105036D01*
X104986Y138527*
Y139527*
X105076Y139557*
X105826Y138557*
X105786Y138477*
X106066Y150044D02*
X105842Y150069D01*
X105783Y149893*
X105776Y149879*
X105669Y149736*
X105651Y149721*
X105508Y149650*
X105496Y149646*
X105317Y149610*
X105299*
X105085Y149645*
X105063Y149655*
X104920Y149762*
X104907Y149776*
X104800Y149955*
X104794Y149971*
X104758Y150149*
X104757Y150159*
X104758Y150167*
X104794Y150382*
X104803Y150403*
X104910Y150546*
X104920Y150556*
X105063Y150663*
X105085Y150673*
X105299Y150708*
X105315*
X105463Y150684*
X105442Y150859*
X105236*
X105206Y150869*
X105063Y150976*
X105058Y150981*
X104950Y151088*
X104937Y151113*
X104901Y151292*
Y151314*
X104937Y151457*
X104941Y151467*
X105012Y151610*
X105029Y151629*
X105137Y151701*
X105154Y151708*
X105333Y151744*
X105355Y151743*
X105498Y151708*
X105508Y151704*
X105651Y151632*
X105673Y151610*
X105745Y151467*
X105746Y151463*
X105804Y151320*
X106023Y151344*
X105941Y151565*
X105807Y151766*
X105611Y151897*
X105345Y151930*
X105179Y151897*
X105010Y151829*
X104745Y151630*
X104680Y151303*
X104744Y151045*
X105016Y150842*
X105002Y150754*
X104798Y150687*
X104668Y150557*
X104569Y150392*
X104569D02*
X104537Y150162D01*
X104604Y149893*
X104771Y149625*
X105003Y149492*
X105345Y149424*
X105612Y149457*
X105844Y149590*
X106011Y149823*
X106066Y150044*
X104500Y103208D02*
Y103448D01*
Y108862D02*
Y109900D01*
Y114475D02*
Y114985D01*
Y122111D02*
Y122368D01*
Y126338D02*
Y126896D01*
Y127723D02*
Y127760D01*
Y132204D02*
Y132921D01*
Y138256D02*
Y138477D01*
X104600Y102873D02*
Y104023D01*
Y108532D02*
Y110181D01*
Y114268D02*
Y115149D01*
Y115638D02*
Y116197D01*
Y121983D02*
Y122368D01*
Y126111D02*
Y127103D01*
Y127712D02*
Y128008D01*
Y132029D02*
Y133061D01*
Y133957D02*
Y134179D01*
Y138256D02*
Y138477D01*
Y143554D02*
Y146025D01*
Y149908D02*
Y150443D01*
X104700Y102655D02*
Y104265D01*
Y108370D02*
Y108819D01*
Y109297D02*
Y109532D01*
Y110004D02*
Y110343D01*
Y114156D02*
Y114508D01*
Y114910D02*
Y115235D01*
Y115526D02*
Y116317D01*
Y121846D02*
Y122033D01*
Y122144D02*
Y122368D01*
Y125991D02*
Y126355D01*
Y126862D02*
Y127221D01*
Y127700D02*
Y128128D01*
Y131921D02*
Y132296D01*
Y132804D02*
Y133162D01*
Y133957D02*
Y134179D01*
Y138256D02*
Y138477D01*
Y143554D02*
Y146025D01*
Y149739D02*
Y150588D01*
Y151222D02*
Y151404D01*
X104800Y102529D02*
Y103044D01*
Y103871D02*
Y104393D01*
Y108270D02*
Y108558D01*
Y109242D02*
Y109355D01*
Y110211D02*
Y110443D01*
Y114093D02*
Y114362D01*
Y115085D02*
Y115285D01*
Y115462D02*
Y115668D01*
Y116081D02*
Y116390D01*
Y121662D02*
Y121905D01*
Y122146D02*
Y122368D01*
Y125911D02*
Y126178D01*
Y127039D02*
Y127292D01*
Y127935D02*
Y128201D01*
Y131834D02*
Y132120D01*
Y132981D02*
Y133234D01*
Y133957D02*
Y134179D01*
Y137648D02*
Y140084D01*
Y143554D02*
Y146025D01*
Y149608D02*
Y149955D01*
Y150399D02*
Y150687D01*
Y151004D02*
Y151671D01*
X104900Y102429D02*
Y102763D01*
Y104104D02*
Y104498D01*
Y108195D02*
Y108437D01*
Y109156D02*
Y109262D01*
Y110308D02*
Y110501D01*
Y114031D02*
Y114275D01*
Y115178D02*
Y115343D01*
Y115395D02*
Y115560D01*
Y116214D02*
Y116457D01*
Y121479D02*
Y121776D01*
Y122146D02*
Y122368D01*
Y125873D02*
Y126096D01*
Y127121D02*
Y127354D01*
Y128025D02*
Y128268D01*
Y131771D02*
Y132008D01*
Y133073D02*
Y133295D01*
Y133957D02*
Y134179D01*
Y137648D02*
Y140084D01*
Y143574D02*
Y144102D01*
Y149551D02*
Y149788D01*
Y150533D02*
Y150721D01*
Y150929D02*
Y151302D01*
Y151746*
X105000Y102361D02*
Y102622D01*
Y104236D02*
Y104558D01*
Y108145D02*
Y108357D01*
Y109075D02*
Y109199D01*
Y110372D02*
Y110551D01*
Y114015D02*
Y114211D01*
Y115241D02*
Y115510D01*
Y116264D02*
Y116474D01*
Y121279D02*
Y121637D01*
Y122146D02*
Y122368D01*
Y125840D02*
Y126036D01*
Y127181D02*
Y127379D01*
Y128088D02*
Y128286D01*
Y131751D02*
Y131928D01*
Y133136D02*
Y133320D01*
Y133957D02*
Y134179D01*
Y138241D02*
Y138492D01*
Y139562D02*
Y140004D01*
Y143728D02*
Y144242D01*
Y149494D02*
Y149702D01*
Y150616D02*
Y150754D01*
Y150854D02*
Y151038D01*
Y151585D02*
Y151821D01*
X105100Y102316D02*
Y102541D01*
Y104340D02*
Y104603D01*
Y108112D02*
Y108322D01*
Y109035D02*
Y109182D01*
Y110388D02*
Y110570D01*
Y114004D02*
Y114195D01*
Y115258D02*
Y115484D01*
Y116290D02*
Y116485D01*
Y121079D02*
Y121494D01*
Y122146D02*
Y122368D01*
Y125821D02*
Y126009D01*
Y127206D02*
Y127404D01*
Y128108D02*
Y128299D01*
Y131733D02*
Y131914D01*
Y133151D02*
Y133345D01*
Y133957D02*
Y134179D01*
Y138256D02*
Y138477D01*
Y139525D02*
Y139872D01*
Y143882D02*
Y144397D01*
Y149473D02*
Y149643D01*
Y150675D02*
Y150948D01*
Y151676D02*
Y151865D01*
X105200Y102272D02*
Y102474D01*
Y104415D02*
Y104636D01*
Y108098D02*
Y108293D01*
Y109003D02*
Y109165D01*
Y110405D02*
Y110585D01*
Y113993D02*
Y114178D01*
Y115275D02*
Y115464D01*
Y116310D02*
Y116496D01*
Y120846D02*
Y121328D01*
Y122146D02*
Y122368D01*
Y125805D02*
Y125989D01*
Y127223D02*
Y127404D01*
Y128119D02*
Y128304D01*
Y131716D02*
Y131900D01*
Y133165D02*
Y133349D01*
Y133957D02*
Y134179D01*
Y138256D02*
Y138477D01*
Y139391D02*
Y139739D01*
Y144037D02*
Y144551D01*
Y149453D02*
Y149626D01*
Y150692D02*
Y150873D01*
Y151717D02*
Y151901D01*
X105300Y102245D02*
Y102430D01*
Y104459D02*
Y104663D01*
Y108087D02*
Y108273D01*
Y108983D02*
Y109177D01*
Y110390D02*
Y110580D01*
Y114000D02*
Y114176D01*
Y115263D02*
Y115478D01*
Y116296D02*
Y116488D01*
Y120601D02*
Y121108D01*
Y122146D02*
Y122368D01*
Y125802D02*
Y125987D01*
Y127223D02*
Y127384D01*
Y128094D02*
Y128284D01*
Y131714D02*
Y131902D01*
Y133159D02*
Y133334D01*
Y133957D02*
Y134179D01*
Y138256D02*
Y138477D01*
Y139258D02*
Y139607D01*
Y144191D02*
Y144705D01*
Y149433D02*
Y149610D01*
Y150708D02*
Y150859D01*
Y151737D02*
Y151921D01*
X105400Y102236D02*
Y102410D01*
Y104499D02*
Y104683D01*
Y108100D02*
Y108298D01*
Y109002D02*
Y109194D01*
Y110370D02*
Y110558D01*
Y114012D02*
Y114195D01*
Y115246D02*
Y115498D01*
Y116276D02*
Y116477D01*
Y119956D02*
Y120845D01*
Y122146D02*
Y122368D01*
Y125808D02*
Y125988D01*
Y127206D02*
Y127364D01*
Y128069D02*
Y128264D01*
Y131726D02*
Y131922D01*
Y133131D02*
Y133307D01*
Y133957D02*
Y134179D01*
Y138256D02*
Y138477D01*
Y139125D02*
Y139475D01*
Y144345D02*
Y144859D01*
Y149431D02*
Y149627D01*
Y150694D02*
Y150859D01*
Y151732D02*
Y151923D01*
X105500Y102227D02*
Y102401D01*
Y104501D02*
Y104687D01*
Y108112D02*
Y108344D01*
Y109031D02*
Y109241D01*
Y110299D02*
Y110536D01*
Y114023D02*
Y114260D01*
Y115200D02*
Y115545D01*
Y116229D02*
Y116466D01*
Y119932D02*
Y120537D01*
Y122146D02*
Y122368D01*
Y125848D02*
Y126049D01*
Y127181D02*
Y127332D01*
Y128037D02*
Y128244D01*
Y131739D02*
Y131958D01*
Y133102D02*
Y133240D01*
Y133957D02*
Y134179D01*
Y138256D02*
Y138477D01*
Y138991D02*
Y139342D01*
Y144500D02*
Y145014D01*
Y149443D02*
Y149647D01*
Y151707D02*
Y151910D01*
X105600Y102218D02*
Y102401D01*
Y104501D02*
Y104687D01*
Y108150D02*
Y108434D01*
Y109073D02*
Y109316D01*
Y110219D02*
Y110489D01*
Y114076D02*
Y114310D01*
Y115125D02*
Y115307D01*
Y115445D02*
Y115626D01*
Y116149D02*
Y116409D01*
Y119932D02*
Y120136D01*
Y122146D02*
Y122368D01*
Y125893D02*
Y126121D01*
Y127121D02*
Y127257D01*
Y127937D02*
Y128177D01*
Y131787D02*
Y132009D01*
Y133021D02*
Y133179D01*
Y133594D02*
Y134179D01*
Y138256D02*
Y138477D01*
Y138858D02*
Y139210D01*
Y144654D02*
Y145168D01*
Y149456D02*
Y149696D01*
Y151658D02*
Y151898D01*
X105700Y102215D02*
Y102401D01*
Y104501D02*
Y104687D01*
Y108217D02*
Y108656D01*
Y109130D02*
Y109474D01*
Y110061D02*
Y110418D01*
Y114138D02*
Y114418D01*
Y114966D02*
Y115274D01*
Y115505D02*
Y116342D01*
Y122146D02*
Y122368D01*
Y125951D02*
Y126212D01*
Y127039D02*
Y127136D01*
Y127761D02*
Y128102D01*
Y131844D02*
Y132206D01*
Y132924D02*
Y134179D01*
Y138256D02*
Y138477D01*
Y138725D02*
Y139077D01*
Y144808D02*
Y145322D01*
Y149507D02*
Y149778D01*
Y151557D02*
Y151837D01*
X105800Y102215D02*
Y102401D01*
Y104501D02*
Y104687D01*
Y108325D02*
Y108686D01*
Y109211D02*
Y110323D01*
Y114218D02*
Y115213D01*
Y115597D02*
Y116231D01*
Y122146D02*
Y122368D01*
Y126051D02*
Y126461D01*
Y126863D02*
Y127061D01*
Y127468D02*
Y128015D01*
Y131942D02*
Y132347D01*
Y132935D02*
Y133695D01*
Y138256D02*
Y138479D01*
Y138591D02*
Y138945D01*
Y144962D02*
Y145477D01*
Y149565D02*
Y149944D01*
Y151329D02*
Y151770D01*
X105900Y102215D02*
Y102401D01*
Y104501D02*
Y104687D01*
Y108520D02*
Y108675D01*
Y109411D02*
Y110123D01*
Y114393D02*
Y115083D01*
Y115838D02*
Y116001D01*
Y122146D02*
Y122368D01*
Y126206D02*
Y127865D01*
Y132082D02*
Y132336D01*
Y132946D02*
Y133167D01*
Y138256D02*
Y138813D01*
Y145117D02*
Y145631D01*
Y149668D02*
Y150063D01*
Y151331D02*
Y151626D01*
X106000Y102215D02*
Y102401D01*
Y104501D02*
Y104687D01*
Y122146D02*
Y122368D01*
Y126487D02*
Y127491D01*
Y138256D02*
Y138680D01*
Y145271D02*
Y145785D01*
Y149808D02*
Y150052D01*
Y151342D02*
Y151407D01*
X106100Y102215D02*
Y102401D01*
Y104501D02*
Y104687D01*
Y138256D02*
Y138548D01*
Y145425D02*
Y145939D01*
X106200Y102215D02*
Y102401D01*
Y104501D02*
Y104687D01*
Y145468D02*
Y146025D01*
X106300Y102215D02*
Y104687D01*
Y143554D02*
Y146025D01*
X106400Y102215D02*
Y104687D01*
Y143554D02*
Y146025D01*
Y151788D02*
Y151930D01*
X106500Y102215D02*
Y104687D01*
Y108908D02*
Y109770D01*
Y114813D02*
Y115675D01*
Y120719D02*
Y121581D01*
Y126624D02*
Y127486D01*
Y132530D02*
Y133392D01*
Y138435D02*
Y139297D01*
Y151531D02*
Y151930D01*
X106600Y108644D02*
Y110039D01*
Y114550D02*
Y115945D01*
Y120455D02*
Y121850D01*
Y126361D02*
Y127756D01*
Y132266D02*
Y133661D01*
Y138172D02*
Y139567D01*
Y151273D02*
Y151930D01*
X106700Y108527D02*
Y109357D01*
Y110179*
Y114433D02*
Y115262D01*
Y116085*
Y120338D02*
Y121168D01*
Y121990*
Y126244D02*
Y127073D01*
Y127896*
Y132150D02*
Y132979D01*
Y133801*
Y138055D02*
Y138884D01*
Y139707*
Y151016D02*
Y151748D01*
X106800Y108415D02*
Y108859D01*
Y109874D02*
Y110293D01*
Y114321D02*
Y114765D01*
Y115780D02*
Y116198D01*
Y120226D02*
Y120670D01*
Y121685D02*
Y122104D01*
Y126132D02*
Y126576D01*
Y127591D02*
Y128009D01*
Y132037D02*
Y132481D01*
Y133496D02*
Y133915D01*
Y137943D02*
Y138387D01*
Y139402D02*
Y139820D01*
Y150759D02*
Y151488D01*
X106900Y108330D02*
Y108659D01*
Y110090D02*
Y110378D01*
Y114235D02*
Y114565D01*
Y115995D02*
Y116284D01*
Y120141D02*
Y120470D01*
Y121901D02*
Y122190D01*
Y126046D02*
Y126376D01*
Y127806D02*
Y128095D01*
Y131952D02*
Y132281D01*
Y133712D02*
Y134001D01*
Y137857D02*
Y138187D01*
Y139617D02*
Y139906D01*
Y150502D02*
Y151228D01*
X107000Y108244D02*
Y108509D01*
Y110199D02*
Y110461D01*
Y114149D02*
Y114415D01*
Y116105D02*
Y116366D01*
Y120055D02*
Y120320D01*
Y122010D02*
Y122272D01*
Y125960D02*
Y126226D01*
Y127916D02*
Y128177D01*
Y131866D02*
Y132131D01*
Y133821D02*
Y134083D01*
Y137771D02*
Y138037D01*
Y139727D02*
Y139988D01*
Y150245D02*
Y150968D01*
X107100Y108194D02*
Y108438D01*
Y110279D02*
Y110505D01*
Y114099D02*
Y114344D01*
Y116185D02*
Y116411D01*
Y120005D02*
Y120249D01*
Y122090D02*
Y122316D01*
Y125910D02*
Y126155D01*
Y127996D02*
Y128222D01*
Y131816D02*
Y132060D01*
Y133901D02*
Y134127D01*
Y137721D02*
Y137966D01*
Y139807D02*
Y140033D01*
Y143554D02*
Y143740D01*
Y149988D02*
Y150708D01*
X107200Y102215D02*
Y104687D01*
Y108156D02*
Y108367D01*
Y110334D02*
Y110549D01*
Y114062D02*
Y114272D01*
Y116239D02*
Y116455D01*
Y119967D02*
Y120178D01*
Y122145D02*
Y122361D01*
Y125873D02*
Y126083D01*
Y128050D02*
Y128266D01*
Y131778D02*
Y131989D01*
Y133956D02*
Y134172D01*
Y137684D02*
Y137894D01*
Y139861D02*
Y140077D01*
Y143554D02*
Y143740D01*
Y145840D02*
Y146025D01*
Y149731D02*
Y150448D01*
X107300Y102215D02*
Y104687D01*
Y108120D02*
Y108331D01*
Y110384D02*
Y110594D01*
Y114025D02*
Y114237D01*
Y116289D02*
Y116499D01*
Y119931D02*
Y120142D01*
Y122195D02*
Y122405D01*
Y125836D02*
Y126048D01*
Y128100D02*
Y128310D01*
Y131742D02*
Y131953D01*
Y134006D02*
Y134216D01*
Y137647D02*
Y137859D01*
Y139911D02*
Y140121D01*
Y143554D02*
Y143740D01*
Y144733D02*
Y144918D01*
Y145840D02*
Y146025D01*
Y149473D02*
Y150188D01*
X107400Y102215D02*
Y104687D01*
Y108108D02*
Y108311D01*
Y110413D02*
Y110605D01*
Y114014D02*
Y114217D01*
Y116319D02*
Y116510D01*
Y119919D02*
Y120122D01*
Y122224D02*
Y122416D01*
Y125825D02*
Y126028D01*
Y128130D02*
Y128321D01*
Y131731D02*
Y131933D01*
Y134035D02*
Y134227D01*
Y137636D02*
Y137839D01*
Y139941D02*
Y140132D01*
Y143554D02*
Y143740D01*
Y144733D02*
Y144918D01*
Y145840D02*
Y146025D01*
Y149459D02*
Y149831D01*
X107500Y102224D02*
Y102760D01*
Y108097D02*
Y108291D01*
Y110427D02*
Y110616D01*
Y114003D02*
Y114197D01*
Y116333D02*
Y116521D01*
Y119908D02*
Y120102D01*
Y122239D02*
Y122427D01*
Y125814D02*
Y126008D01*
Y128144D02*
Y128332D01*
Y131719D02*
Y131913D01*
Y134050D02*
Y134238D01*
Y137625D02*
Y137819D01*
Y139955D02*
Y140143D01*
Y143554D02*
Y143740D01*
Y144733D02*
Y144918D01*
Y145840D02*
Y146025D01*
Y149459D02*
Y149647D01*
X107600Y102379D02*
Y102893D01*
Y108086D02*
Y108271D01*
Y110442D02*
Y110627D01*
Y113992D02*
Y114177D01*
Y116347D02*
Y116532D01*
Y119897D02*
Y120082D01*
Y122253D02*
Y122438D01*
Y125803D02*
Y125988D01*
Y128158D02*
Y128343D01*
Y131708D02*
Y131893D01*
Y134064D02*
Y134249D01*
Y137614D02*
Y137799D01*
Y139969D02*
Y140154D01*
Y143554D02*
Y143740D01*
Y144733D02*
Y144918D01*
Y145840D02*
Y146025D01*
Y149459D02*
Y149879D01*
X107700Y102533D02*
Y103047D01*
Y108096D02*
Y108290D01*
Y110423D02*
Y110614D01*
Y114001D02*
Y114196D01*
Y116328D02*
Y116520D01*
Y119907D02*
Y120101D01*
Y122234D02*
Y122425D01*
Y125812D02*
Y126007D01*
Y128139D02*
Y128331D01*
Y131718D02*
Y131912D01*
Y134045D02*
Y134236D01*
Y137623D02*
Y137818D01*
Y139950D02*
Y140142D01*
Y143554D02*
Y143740D01*
Y144733D02*
Y144918D01*
Y145840D02*
Y146025D01*
Y149543D02*
Y150170D01*
X107800Y102687D02*
Y103201D01*
Y108107D02*
Y108313D01*
Y110401D02*
Y110600D01*
Y114012D02*
Y114218D01*
Y116306D02*
Y116505D01*
Y119918D02*
Y120124D01*
Y122212D02*
Y122411D01*
Y125823D02*
Y126029D01*
Y128117D02*
Y128316D01*
Y131729D02*
Y131935D01*
Y134023D02*
Y134222D01*
Y137634D02*
Y137840D01*
Y139928D02*
Y140128D01*
Y143554D02*
Y143740D01*
Y144733D02*
Y144918D01*
Y145840D02*
Y146025D01*
Y149791D02*
Y150430D01*
X107900Y102841D02*
Y103355D01*
Y108118D02*
Y108335D01*
Y110378D02*
Y110578D01*
Y114024D02*
Y114240D01*
Y116284D02*
Y116484D01*
Y119929D02*
Y120146D01*
Y122189D02*
Y122389D01*
Y125835D02*
Y126051D01*
Y128095D02*
Y128295D01*
Y131740D02*
Y131957D01*
Y134000D02*
Y134200D01*
Y137646D02*
Y137862D01*
Y139906D02*
Y140106D01*
Y143554D02*
Y143740D01*
Y144733D02*
Y144918D01*
Y145840D02*
Y146025D01*
Y150039D02*
Y150690D01*
X108000Y102996D02*
Y103510D01*
Y108157D02*
Y108378D01*
Y110335D02*
Y110549D01*
Y114063D02*
Y114283D01*
Y116241D02*
Y116455D01*
Y119968D02*
Y120189D01*
Y122146D02*
Y122361D01*
Y125874D02*
Y126095D01*
Y128052D02*
Y128266D01*
Y131779D02*
Y132000D01*
Y133957D02*
Y134172D01*
Y137685D02*
Y137906D01*
Y139863D02*
Y140077D01*
Y143554D02*
Y143740D01*
Y144733D02*
Y144918D01*
Y145840D02*
Y146025D01*
Y150288D02*
Y150950D01*
X108100Y103150D02*
Y103664D01*
Y108202D02*
Y108440D01*
Y110273D02*
Y110517D01*
Y114107D02*
Y114346D01*
Y116178D02*
Y116422D01*
Y120013D02*
Y120251D01*
Y122084D02*
Y122328D01*
Y125918D02*
Y126157D01*
Y127989D02*
Y128233D01*
Y131824D02*
Y132063D01*
Y133895D02*
Y134139D01*
Y137729D02*
Y137968D01*
Y139800D02*
Y140044D01*
Y143554D02*
Y143740D01*
Y144733D02*
Y144918D01*
Y145840D02*
Y146025D01*
Y150536D02*
Y151210D01*
X108200Y103304D02*
Y103818D01*
Y108246D02*
Y108503D01*
Y110210D02*
Y110457D01*
Y114152D02*
Y114408D01*
Y116116D02*
Y116362D01*
Y120057D02*
Y120314D01*
Y122021D02*
Y122268D01*
Y125963D02*
Y126220D01*
Y127927D02*
Y128173D01*
Y131868D02*
Y132125D01*
Y133832D02*
Y134079D01*
Y137774D02*
Y138031D01*
Y139738D02*
Y139984D01*
Y143554D02*
Y143740D01*
Y144733D02*
Y144918D01*
Y145840D02*
Y146025D01*
Y150784D02*
Y151470D01*
X108300Y103459D02*
Y103973D01*
Y108322D02*
Y108622D01*
Y110111D02*
Y110388D01*
Y114228D02*
Y114528D01*
Y116017D02*
Y116294D01*
Y120133D02*
Y120433D01*
Y121922D02*
Y122199D01*
Y126039D02*
Y126339D01*
Y127828D02*
Y128105D01*
Y131944D02*
Y132244D01*
Y133733D02*
Y134010D01*
Y137850D02*
Y138150D01*
Y139639D02*
Y139916D01*
Y143554D02*
Y143740D01*
Y144733D02*
Y144918D01*
Y145840D02*
Y146025D01*
Y151032D02*
Y151730D01*
X108400Y103613D02*
Y104127D01*
Y108408D02*
Y108802D01*
Y109938D02*
Y110308D01*
Y114314D02*
Y114708D01*
Y115843D02*
Y116214D01*
Y120219D02*
Y120613D01*
Y121749D02*
Y122119D01*
Y126125D02*
Y126519D01*
Y127654D02*
Y128025D01*
Y132030D02*
Y132424D01*
Y133560D02*
Y133930D01*
Y137936D02*
Y138330D01*
Y139465D02*
Y139836D01*
Y143554D02*
Y143740D01*
Y144733D02*
Y144918D01*
Y145840D02*
Y146025D01*
Y151281D02*
Y151930D01*
X108500Y103767D02*
Y104281D01*
Y108514D02*
Y109231D01*
Y109628D02*
Y110200D01*
Y114420D02*
Y115137D01*
Y115533D02*
Y116105D01*
Y120325D02*
Y121042D01*
Y121439D02*
Y122011D01*
Y126231D02*
Y126948D01*
Y127344D02*
Y127916D01*
Y132136D02*
Y132853D01*
Y133250D02*
Y133822D01*
Y138042D02*
Y138759D01*
Y139155D02*
Y139727D01*
Y143554D02*
Y143740D01*
Y144733D02*
Y144918D01*
Y145840D02*
Y146025D01*
Y151529D02*
Y151930D01*
X108600Y103921D02*
Y104435D01*
Y108654D02*
Y110080D01*
Y114560D02*
Y115985D01*
Y120465D02*
Y121891D01*
Y126371D02*
Y127796D01*
Y132276D02*
Y133702D01*
Y138182D02*
Y139607D01*
Y143554D02*
Y143764D01*
Y144708D02*
Y144943D01*
Y145815D02*
Y146025D01*
Y151777D02*
Y151930D01*
X108700Y104076D02*
Y104590D01*
Y108900D02*
Y109880D01*
Y114806D02*
Y115786D01*
Y120711D02*
Y121692D01*
Y126617D02*
Y127597D01*
Y132522D02*
Y133503D01*
Y138428D02*
Y139408D01*
Y143554D02*
Y146025D01*
X108800Y104135D02*
Y104687D01*
Y143554D02*
Y146025D01*
X108900Y102215D02*
Y104687D01*
X109000Y102215D02*
Y104687D01*
Y149888D02*
Y150455D01*
X109100Y149728D02*
Y150595D01*
Y151194D02*
Y151440D01*
X109200Y149604D02*
Y149943D01*
Y150409D02*
Y150690D01*
Y150998D02*
Y151677D01*
X109300Y149547D02*
Y149776D01*
Y150542D02*
Y150723D01*
Y150923D02*
Y151261D01*
Y151337D02*
Y151752D01*
X109400Y108121D02*
Y110592D01*
Y114026D02*
Y116498D01*
Y119932D02*
Y122403D01*
Y125837D02*
Y128309D01*
Y131743D02*
Y134214D01*
Y137648D02*
Y140120D01*
Y149491D02*
Y149697D01*
Y150621D02*
Y150757D01*
Y150848D02*
Y151031D01*
Y151599D02*
Y151827D01*
X109500Y108121D02*
Y110592D01*
Y114026D02*
Y116498D01*
Y119932D02*
Y122403D01*
Y125837D02*
Y128309D01*
Y131743D02*
Y134214D01*
Y137648D02*
Y140120D01*
Y149471D02*
Y149642D01*
Y150676D02*
Y150943D01*
Y151681D02*
Y151868D01*
X109600Y108121D02*
Y110592D01*
Y114026D02*
Y116498D01*
Y119932D02*
Y122403D01*
Y125837D02*
Y128309D01*
Y131743D02*
Y134214D01*
Y137648D02*
Y140120D01*
Y149451D02*
Y149625D01*
Y150693D02*
Y150868D01*
Y151719D02*
Y151902D01*
X109700Y102533D02*
Y103437D01*
Y149431D02*
Y149609D01*
Y150709D02*
Y150859D01*
Y151739D02*
Y151922D01*
X109800Y102461D02*
Y103437D01*
Y104044D02*
Y104237D01*
Y149432D02*
Y149628D01*
Y150693D02*
Y150859D01*
Y151730D02*
Y151922D01*
X109900Y102390D02*
Y103437D01*
Y104021D02*
Y104362D01*
Y149444D02*
Y149650D01*
Y151704D02*
Y151910D01*
X110000Y102352D02*
Y102628D01*
Y103251D02*
Y103437D01*
Y104091D02*
Y104466D01*
Y149457D02*
Y149700D01*
Y151654D02*
Y151897D01*
X110100Y102314D02*
Y102553D01*
Y103251D02*
Y103437D01*
Y104279D02*
Y104542D01*
Y149511D02*
Y149788D01*
Y151542D02*
Y151832D01*
X110200Y102279D02*
Y102493D01*
Y103251D02*
Y103437D01*
Y104379D02*
Y104592D01*
Y149569D02*
Y149965D01*
Y151320D02*
Y151765D01*
X110300Y102250D02*
Y102437D01*
Y103251D02*
Y103437D01*
Y104432D02*
Y104634D01*
Y149678D02*
Y150062D01*
Y151332D02*
Y151615D01*
X110400Y102221D02*
Y102421D01*
Y103251D02*
Y103437D01*
Y104471D02*
Y104667D01*
Y149818D02*
Y150051D01*
Y151343D02*
Y151388D01*
X110500Y102205D02*
Y102404D01*
Y103251D02*
Y103437D01*
Y104491D02*
Y104693D01*
X110600Y102193D02*
Y102387D01*
Y103251D02*
Y103437D01*
Y104511D02*
Y104705D01*
X110700Y102180D02*
Y102371D01*
Y104531D02*
Y104718D01*
X110800Y102190D02*
Y102374D01*
Y104526D02*
Y104716D01*
X110900Y102200D02*
Y102388D01*
Y104508D02*
Y104706D01*
X111000Y102210D02*
Y102403D01*
Y104490D02*
Y104696D01*
X111100Y102232D02*
Y102436D01*
Y104471D02*
Y104682D01*
X111200Y102266D02*
Y102470D01*
Y104430D02*
Y104648D01*
Y152334D02*
Y152555D01*
X111300Y102299D02*
Y102529D01*
Y104367D02*
Y104615D01*
Y152334D02*
Y152555D01*
Y153811D02*
Y154477D01*
X111400Y102351D02*
Y102596D01*
Y104305D02*
Y104576D01*
Y152334D02*
Y152555D01*
Y153627D02*
Y154597D01*
X111500Y102426D02*
Y102704D01*
Y104188D02*
Y104490D01*
Y152334D02*
Y152555D01*
Y153501D02*
Y153889D01*
Y154376D02*
Y154657D01*
X111600Y102501D02*
Y102854D01*
Y104013D02*
Y104405D01*
Y152334D02*
Y152555D01*
Y153381D02*
Y153732D01*
Y154473D02*
Y154714D01*
X111700Y102605D02*
Y103320D01*
Y103568D02*
Y104284D01*
Y152334D02*
Y152555D01*
Y153286D02*
Y153616D01*
Y154548D02*
Y154750D01*
X111800Y102722D02*
Y104151D01*
Y152334D02*
Y152555D01*
Y153199D02*
Y153499D01*
Y154592D02*
Y154772D01*
X111900Y102959D02*
Y103907D01*
Y152334D02*
Y152555D01*
Y153111D02*
Y153410D01*
Y154612D02*
Y154795D01*
X112000Y152334D02*
Y152555D01*
Y153028D02*
Y153321D01*
Y154611D02*
Y154799D01*
X112100Y152334D02*
Y152555D01*
Y152944D02*
Y153232D01*
Y154594D02*
Y154788D01*
X112200Y152334D02*
Y152555D01*
Y152868D02*
Y153146D01*
Y154564D02*
Y154777D01*
X112300Y152334D02*
Y152555D01*
Y152775D02*
Y153060D01*
Y154489D02*
Y154742D01*
X112400Y152334D02*
Y152564D01*
Y152650D02*
Y152963D01*
Y154377D02*
Y154685D01*
X112500Y152334D02*
Y152838D01*
Y154162D02*
Y154611D01*
X112600Y152334D02*
Y152713D01*
Y154173D02*
Y154471D01*
X112700Y152334D02*
Y152524D01*
Y154184D02*
Y154192D01*
X113400Y152334D02*
Y152555D01*
X113500Y152334D02*
Y152555D01*
X114600Y152334D02*
Y154805D01*
X114700Y152334D02*
Y154805D01*
X114800Y152334D02*
Y154699D01*
X114900Y154325D02*
Y154578D01*
X115000Y154250D02*
Y154478D01*
X115100Y154175D02*
Y154405D01*
X115200Y154104D02*
Y154338D01*
X115300Y154054D02*
Y154277D01*
X115400Y154004D02*
Y154220D01*
X117000Y154663D02*
Y154805D01*
X117100Y154406D02*
Y154805D01*
X117200Y154148D02*
Y154805D01*
X117300Y153891D02*
Y154623D01*
X117400Y153634D02*
Y154363D01*
X117500Y153377D02*
Y154103D01*
X117600Y153120D02*
Y153843D01*
X117700Y130392D02*
Y130859D01*
Y152863D02*
Y153583D01*
X117800Y130392D02*
Y130859D01*
Y152606D02*
Y153323D01*
X117900Y130392D02*
Y130859D01*
Y152348D02*
Y153063D01*
X118000Y130392D02*
Y130859D01*
Y152334D02*
Y152706D01*
X118100Y130392D02*
Y130859D01*
Y152334D02*
Y152522D01*
X118200Y130392D02*
Y130859D01*
Y152334D02*
Y152754D01*
X118300Y128337D02*
Y128733D01*
Y130392D02*
Y130859D01*
Y152418D02*
Y153045D01*
X118400Y128337D02*
Y128733D01*
Y130392D02*
Y130859D01*
Y152666D02*
Y153305D01*
X118500Y128337D02*
Y128733D01*
Y130392D02*
Y130859D01*
Y152914D02*
Y153565D01*
X118600Y128337D02*
Y128733D01*
Y130392D02*
Y130859D01*
Y153163D02*
Y153825D01*
X118700Y128337D02*
Y128733D01*
Y130392D02*
Y130859D01*
Y153411D02*
Y154085D01*
X118800Y128337D02*
Y128733D01*
Y130392D02*
Y130859D01*
Y153659D02*
Y154345D01*
X118900Y128337D02*
Y128733D01*
Y130392D02*
Y130859D01*
Y153907D02*
Y154605D01*
X119000Y128337D02*
Y128733D01*
Y130392D02*
Y130859D01*
Y154156D02*
Y154805D01*
X119100Y128337D02*
Y128733D01*
Y130392D02*
Y130859D01*
Y154404D02*
Y154805D01*
X119200Y128337D02*
Y128733D01*
Y130392D02*
Y130859D01*
Y154652D02*
Y154805D01*
X119300Y128337D02*
Y128733D01*
Y130392D02*
Y130859D01*
X119400Y128337D02*
Y128733D01*
Y130392D02*
Y130859D01*
X119500Y128337D02*
Y128733D01*
Y130392D02*
Y130859D01*
X119600Y128337D02*
Y128733D01*
Y130392D02*
Y130859D01*
X119700Y128337D02*
Y128733D01*
Y130392D02*
Y130859D01*
X119800Y128337D02*
Y128733D01*
Y130392D02*
Y130859D01*
X119900Y128337D02*
Y128733D01*
Y130392D02*
Y130859D01*
X120000Y126211D02*
Y130859D01*
X120100Y126211D02*
Y130859D01*
X120200Y126211D02*
Y130859D01*
X120300Y126211D02*
Y130859D01*
X120400Y126211D02*
Y130859D01*
X120700Y152809D02*
Y154805D01*
X120800Y152624D02*
Y154805D01*
X120900Y152518D02*
Y153136D01*
X121000Y152438D02*
Y152787D01*
X121100Y152399D02*
Y152679D01*
X121200Y152362D02*
Y152612D01*
X121300Y126211D02*
Y130859D01*
Y152330D02*
Y152555D01*
X121400Y126211D02*
Y130859D01*
Y152319D02*
Y152544D01*
X121500Y126211D02*
Y130859D01*
Y152308D02*
Y152533D01*
X121600Y126211D02*
Y130859D01*
Y152300D02*
Y152522D01*
X121700Y126211D02*
Y130859D01*
Y152311D02*
Y152520D01*
X121800Y126211D02*
Y130859D01*
Y152322D02*
Y152520D01*
X121900Y128408D02*
Y128875D01*
Y152334D02*
Y152556D01*
X122000Y128408D02*
Y128875D01*
Y152363D02*
Y152596D01*
X122100Y128408D02*
Y128875D01*
Y152391D02*
Y152692D01*
X122200Y128408D02*
Y128875D01*
Y152456D02*
Y152865D01*
X122300Y128408D02*
Y128875D01*
Y152540D02*
Y154805D01*
X122400Y128408D02*
Y128875D01*
Y152679D02*
Y154805D01*
X122500Y128408D02*
Y128875D01*
Y153004D02*
Y154805D01*
X122600Y128408D02*
Y128875D01*
X122700Y128408D02*
Y128875D01*
X122800Y128408D02*
Y128875D01*
X122900Y128408D02*
Y128875D01*
X123000Y128408D02*
Y128875D01*
X123100Y128408D02*
Y128875D01*
X123200Y128408D02*
Y128875D01*
Y152334D02*
Y152555D01*
Y154033D02*
Y154367D01*
X123300Y128408D02*
Y128875D01*
Y152334D02*
Y152555D01*
Y153722D02*
Y154520D01*
X123400Y128408D02*
Y128875D01*
Y152334D02*
Y152555D01*
Y153579D02*
Y154100D01*
Y154182D02*
Y154620D01*
X123500Y128408D02*
Y128875D01*
Y152334D02*
Y152555D01*
Y153458D02*
Y153830D01*
Y154412D02*
Y154677D01*
X123600Y126211D02*
Y130859D01*
Y152334D02*
Y152555D01*
Y153342D02*
Y153691D01*
Y154500D02*
Y154735D01*
X123700Y126211D02*
Y130859D01*
Y152334D02*
Y152555D01*
Y153255D02*
Y153574D01*
Y154575D02*
Y154758D01*
X123800Y126211D02*
Y130859D01*
Y152334D02*
Y152555D01*
Y153167D02*
Y153467D01*
Y154599D02*
Y154780D01*
X123900Y126211D02*
Y130859D01*
Y152334D02*
Y152555D01*
Y153081D02*
Y153378D01*
Y154619D02*
Y154803D01*
X124000Y126211D02*
Y130859D01*
Y152334D02*
Y152555D01*
Y152998D02*
Y153289D01*
Y154605D02*
Y154795D01*
X124100Y126211D02*
Y130859D01*
Y152334D02*
Y152555D01*
Y152916D02*
Y153201D01*
Y154588D02*
Y154784D01*
X124200Y152334D02*
Y152555D01*
Y152841D02*
Y153115D01*
Y154538D02*
Y154773D01*
X124300Y152334D02*
Y152555D01*
Y152730D02*
Y153029D01*
Y154462D02*
Y154721D01*
X124400Y152334D02*
Y152918D01*
Y154329D02*
Y154664D01*
X124500Y152334D02*
Y152793D01*
Y154166D02*
Y154561D01*
X124600Y152334D02*
Y152668D01*
Y154177D02*
Y154421D01*
X124700Y152334D02*
Y152366D01*
X125100Y153536D02*
Y153884D01*
X125200Y152857D02*
Y154211D01*
X125300Y152613D02*
Y154486D01*
X125400Y152480D02*
Y152829D01*
Y154274D02*
Y154632D01*
X125500Y152401D02*
Y152660D01*
Y154418D02*
Y154711D01*
X125600Y152351D02*
Y152580D01*
Y154543D02*
Y154750D01*
X125700Y152323D02*
Y152517D01*
Y154592D02*
Y154770D01*
X125800Y152309D02*
Y152497D01*
Y154608D02*
Y154790D01*
X125900Y152306D02*
Y152489D01*
Y154615D02*
Y154801D01*
X126000Y152328D02*
Y152509D01*
Y154595D02*
Y154787D01*
X126100Y152350D02*
Y152546D01*
Y154558D02*
Y154772D01*
X126200Y152386D02*
Y152626D01*
Y154478D02*
Y154725D01*
X126300Y152458D02*
Y152744D01*
Y154360D02*
Y154675D01*
X126400Y152529D02*
Y153116D01*
Y153973D02*
Y154552D01*
X126500Y152691D02*
Y154357D01*
X126600Y153047D02*
Y153989D01*
X127100Y153084D02*
Y153270D01*
X127200Y153084D02*
Y153270D01*
X127300Y153084D02*
Y153270D01*
X127400Y153084D02*
Y153270D01*
X127500Y153084D02*
Y153270D01*
X127600Y153084D02*
Y153270D01*
X127700Y153084D02*
Y153270D01*
X127800Y153084D02*
Y153270D01*
X128400Y152334D02*
Y154805D01*
X128500Y152334D02*
Y154805D01*
X128600Y152334D02*
Y154805D01*
X128700Y154488D02*
Y154805D01*
X128800Y154187D02*
Y154803D01*
X128900Y153882D02*
Y154490D01*
X129000Y153577D02*
Y154178D01*
X129100Y153272D02*
Y153865D01*
X129200Y152967D02*
Y153553D01*
X129300Y152662D02*
Y153240D01*
X129400Y152357D02*
Y152913D01*
X129500Y152334D02*
Y152629D01*
X129600Y152334D02*
Y152736D01*
X129700Y152360D02*
Y153004D01*
X129800Y152681D02*
Y153322D01*
X129900Y153003D02*
Y153641D01*
X130000Y153324D02*
Y153960D01*
X130100Y153645D02*
Y154279D01*
X130200Y153966D02*
Y154597D01*
X130300Y154287D02*
Y154805D01*
X130400Y154512D02*
Y154805D01*
X130500Y152334D02*
Y154805D01*
X130600Y152334D02*
Y154805D01*
X130700Y152334D02*
Y154805D01*
X131300Y153121D02*
Y153983D01*
X131400Y152857D02*
Y154252D01*
X131500Y152741D02*
Y153570D01*
Y154392*
X131600Y152628D02*
Y153072D01*
Y154087D02*
Y154506D01*
X131700Y152543D02*
Y152872D01*
Y154303D02*
Y154592D01*
X131800Y152457D02*
Y152723D01*
Y154412D02*
Y154674D01*
X131900Y152407D02*
Y152651D01*
Y154492D02*
Y154718D01*
X132000Y152370D02*
Y152580D01*
Y154547D02*
Y154763D01*
X132100Y152333D02*
Y152544D01*
Y154597D02*
Y154807D01*
X132200Y152322D02*
Y152524D01*
Y154626D02*
Y154818D01*
X132300Y152310D02*
Y152504D01*
Y154641D02*
Y154829D01*
X132400Y152299D02*
Y152485D01*
Y154655D02*
Y154840D01*
X132500Y152309D02*
Y152503D01*
Y154636D02*
Y154827D01*
X132600Y152320D02*
Y152526D01*
Y154614D02*
Y154813D01*
X132700Y152331D02*
Y152548D01*
Y154592D02*
Y154791D01*
X132800Y152370D02*
Y152591D01*
Y154548D02*
Y154763D01*
X132900Y152415D02*
Y152654D01*
Y154486D02*
Y154730D01*
X133000Y152459D02*
Y152716D01*
Y154423D02*
Y154670D01*
X133100Y152536D02*
Y152835D01*
Y154324D02*
Y154601D01*
X133200Y152621D02*
Y153015D01*
Y154151D02*
Y154521D01*
X133300Y152727D02*
Y153444D01*
Y153841D02*
Y154413D01*
X133400Y152867D02*
Y154293D01*
X133500Y153114D02*
Y154094D01*
X134100Y153078D02*
Y154026D01*
X134200Y152841D02*
Y154272D01*
X134300Y152724D02*
Y153480D01*
Y153687D02*
Y154412D01*
X134400Y152616D02*
Y153044D01*
Y154132D02*
Y154518D01*
X134500Y152530D02*
Y152844D01*
Y154332D02*
Y154604D01*
X134600Y152445D02*
Y152712D01*
Y154424D02*
Y154680D01*
X134700Y152402D02*
Y152641D01*
Y154504D02*
Y154725D01*
X134800Y152364D02*
Y152569D01*
Y154554D02*
Y154769D01*
X134900Y152331D02*
Y152542D01*
Y154604D02*
Y154808D01*
X135000Y152320D02*
Y152522D01*
Y154628D02*
Y154819D01*
X135100Y152309D02*
Y152502D01*
Y154643D02*
Y154831D01*
X135200Y152299D02*
Y152485D01*
Y154655D02*
Y154840D01*
X135300Y152310D02*
Y152507D01*
Y154633D02*
Y154825D01*
X135400Y152322D02*
Y152529D01*
Y154611D02*
Y154811D01*
X135500Y152333D02*
Y152551D01*
Y154588D02*
Y154787D01*
X135600Y152377D02*
Y152600D01*
Y154539D02*
Y154759D01*
X135700Y152421D02*
Y152663D01*
Y154477D02*
Y154721D01*
X135800Y152466D02*
Y152725D01*
Y154414D02*
Y154661D01*
X135900Y152548D02*
Y152861D01*
Y154305D02*
Y154590D01*
X136000Y152634D02*
Y153041D01*
Y154115D02*
Y154510D01*
X136100Y152747D02*
Y154396D01*
X136200Y152887D02*
Y154265D01*
X136300Y153156D02*
Y153988D01*
X136800Y152334D02*
Y152425D01*
X136900Y152334D02*
Y152592D01*
X137000Y152334D02*
Y152758D01*
Y153855D02*
Y154453D01*
X137100Y152405D02*
Y152925D01*
Y153736D02*
Y154613D01*
X137200Y152572D02*
Y153061D01*
Y153653D02*
Y154069D01*
Y154253D02*
Y154687D01*
X137300Y152738D02*
Y153178D01*
Y153577D02*
Y153856D01*
Y154498D02*
Y154740D01*
X137400Y152899D02*
Y153278D01*
Y153552D02*
Y153756D01*
Y154542D02*
Y154760D01*
X137500Y153049D02*
Y153359D01*
Y153527D02*
Y153691D01*
Y154582D02*
Y154776D01*
X137600Y153184D02*
Y153666D01*
Y154599D02*
Y154787D01*
X137700Y153326D02*
Y153663D01*
Y154616D02*
Y154798D01*
X137800Y153411D02*
Y153663D01*
Y154620D02*
Y154805D01*
X137900Y153461D02*
Y153663D01*
Y154620D02*
Y154805D01*
X138000Y153477D02*
Y153663D01*
Y154620D02*
Y154805D01*
X138100Y153477D02*
Y153663D01*
Y154620D02*
Y154805D01*
X138200Y153477D02*
Y153663D01*
Y154620D02*
Y154805D01*
X138300Y153477D02*
Y153663D01*
Y154620D02*
Y154805D01*
X138400Y153477D02*
Y153663D01*
Y154620D02*
Y154805D01*
X138500Y153477D02*
Y153663D01*
Y154620D02*
Y154805D01*
X138600Y152334D02*
Y154805D01*
X138700Y152334D02*
Y154805D01*
X138800Y152334D02*
Y154805D01*
X139300Y154645D02*
Y154805D01*
X139400Y154266D02*
Y154805D01*
X139500Y153887D02*
Y154805D01*
X139600Y153509D02*
Y154422D01*
X139700Y153130D02*
Y153995D01*
X139800Y152751D02*
Y153568D01*
X139900Y152372D02*
Y153139D01*
X140000Y152334D02*
Y152637D01*
X140100Y152334D02*
Y152634D01*
X140200Y152361D02*
Y152959D01*
X140300Y152684D02*
Y153284D01*
X140400Y153008D02*
Y153609D01*
X140500Y153331D02*
Y153936D01*
X140600Y153655D02*
Y154264D01*
X140700Y153979D02*
Y154591D01*
X140800Y154299D02*
Y154805D01*
X140900Y154583D02*
Y154805D01*
X141000Y154436D02*
Y154805D01*
X141100Y154099D02*
Y154755D01*
X141200Y153762D02*
Y154428D01*
X141300Y153424D02*
Y154101D01*
X141400Y153087D02*
Y153775D01*
X141500Y152749D02*
Y153448D01*
X141600Y152412D02*
Y153121D01*
X141700Y152334D02*
Y152708D01*
X141800Y152334D02*
Y152606D01*
X141900Y152334D02*
Y152956D01*
X142000Y152561D02*
Y153354D01*
X142100Y152940D02*
Y153781D01*
X142200Y153319D02*
Y154209D01*
X142300Y153698D02*
Y154636D01*
X142400Y154077D02*
Y154805D01*
X142500Y154456D02*
Y154805D01*
X142900Y153084D02*
Y153270D01*
X143000Y153084D02*
Y153270D01*
X143100Y153084D02*
Y153270D01*
X143200Y153084D02*
Y153270D01*
X143300Y153084D02*
Y153270D01*
X143400Y153084D02*
Y153270D01*
X143500Y153084D02*
Y153270D01*
X143600Y153084D02*
Y153270D01*
X143700Y153084D02*
Y153270D01*
X144200Y152717D02*
Y153377D01*
X144300Y152557D02*
Y153499D01*
Y153954D02*
Y154458D01*
X144400Y152463D02*
Y152770D01*
Y153322D02*
Y153574D01*
Y153852D02*
Y154573D01*
X144500Y152406D02*
Y152625D01*
Y153443D02*
Y153607D01*
Y153777D02*
Y153993D01*
Y154326D02*
Y154648D01*
X144600Y152361D02*
Y152550D01*
Y153518D02*
Y153878D01*
Y154508D02*
Y154714D01*
X144700Y152341D02*
Y152512D01*
Y153556D02*
Y153796D01*
Y154575D02*
Y154754D01*
X144800Y152321D02*
Y152495D01*
Y153573D02*
Y153734D01*
Y154599D02*
Y154783D01*
X144900Y152301D02*
Y152489D01*
Y153580D02*
Y153734D01*
Y154619D02*
Y154803D01*
X145000Y152310D02*
Y152509D01*
Y153563D02*
Y153734D01*
Y154598D02*
Y154793D01*
X145100Y152323D02*
Y152539D01*
Y154565D02*
Y154781D01*
X145200Y152346D02*
Y152589D01*
Y154515D02*
Y154755D01*
X145300Y152403D02*
Y152701D01*
Y154360D02*
Y154688D01*
X145400Y152460D02*
Y152926D01*
Y154199D02*
Y154597D01*
X145500Y152593D02*
Y152934D01*
Y154210D02*
Y154447D01*
X145600Y152797D02*
Y152923D01*
X146200Y152839D02*
Y153084D01*
Y154176D02*
Y154195D01*
X146300Y152664D02*
Y153104D01*
Y154156D02*
Y154420D01*
X146400Y152548D02*
Y153054D01*
Y154136D02*
Y154528D01*
X146500Y152468D02*
Y152829D01*
Y154247D02*
Y154628D01*
X146600Y152413D02*
Y152704D01*
Y154405D02*
Y154694D01*
X146700Y152357D02*
Y152624D01*
Y154504D02*
Y154756D01*
X146800Y152327D02*
Y152557D01*
Y154564D02*
Y154809D01*
X146900Y152317D02*
Y152515D01*
Y154619D02*
Y154820D01*
X147000Y152307D02*
Y152501D01*
Y154636D02*
Y154831D01*
X147100Y152300D02*
Y152487D01*
Y154653D02*
Y154839D01*
X147200Y152310D02*
Y152496D01*
Y154645D02*
Y154828D01*
X147300Y152320D02*
Y152513D01*
Y154630D02*
Y154817D01*
X147400Y152330D02*
Y152538D01*
Y154611D02*
Y154805D01*
X147500Y152368D02*
Y152572D01*
Y154561D02*
Y154767D01*
X147600Y152418D02*
Y152624D01*
Y154511D02*
Y154730D01*
X147700Y152468D02*
Y152749D01*
Y154400D02*
Y154676D01*
X147800Y152539D02*
Y152901D01*
Y154253D02*
Y154591D01*
X147900Y152611D02*
Y153192D01*
Y153973D02*
Y154505D01*
X148000Y152760D02*
Y154368D01*
X148100Y152985D02*
Y154190D01*
X148200Y153429D02*
Y153725D01*
X148600Y153084D02*
Y153270D01*
X148700Y153084D02*
Y153270D01*
X148800Y153084D02*
Y153270D01*
X148900Y153084D02*
Y153270D01*
X149000Y153084D02*
Y153270D01*
X149100Y153084D02*
Y153270D01*
X149200Y153084D02*
Y153270D01*
X149300Y153084D02*
Y153270D01*
X149400Y153084D02*
Y153270D01*
X149900Y152334D02*
Y152555D01*
X150000Y152334D02*
Y152555D01*
Y153847D02*
Y154460D01*
X150100Y152334D02*
Y152555D01*
Y153646D02*
Y154580D01*
X150200Y152334D02*
Y152555D01*
Y153518D02*
Y153913D01*
Y154362D02*
Y154649D01*
X150300Y152334D02*
Y152555D01*
Y153398D02*
Y153749D01*
Y154462D02*
Y154706D01*
X150400Y152334D02*
Y152555D01*
Y153299D02*
Y153632D01*
Y154538D02*
Y154747D01*
X150500Y152334D02*
Y152555D01*
Y153211D02*
Y153516D01*
Y154589D02*
Y154769D01*
X150600Y152334D02*
Y152555D01*
Y153124D02*
Y153423D01*
Y154609D02*
Y154792D01*
X150700Y152334D02*
Y152555D01*
Y153040D02*
Y153334D01*
Y154613D02*
Y154800D01*
X150800Y152334D02*
Y152555D01*
Y152956D02*
Y153245D01*
Y154597D02*
Y154789D01*
X150900Y152334D02*
Y152555D01*
Y152879D02*
Y153158D01*
Y154575D02*
Y154778D01*
X151000Y152334D02*
Y152555D01*
Y152793D02*
Y153072D01*
Y154500D02*
Y154750D01*
X151100Y152334D02*
Y152558D01*
Y152668D02*
Y152981D01*
Y154396D02*
Y154693D01*
X151200Y152334D02*
Y152856D01*
Y154160D02*
Y154631D01*
X151300Y152334D02*
Y152731D01*
Y154172D02*
Y154491D01*
X151400Y152334D02*
Y152560D01*
Y154183D02*
Y154249D01*
X151900Y152840D02*
Y153294D01*
X152000Y152637D02*
Y153449D01*
Y154154D02*
Y154208D01*
X152100Y152492D02*
Y152886D01*
Y153210D02*
Y153549D01*
Y153889D02*
Y154536D01*
X152200Y152434D02*
Y152687D01*
Y153389D02*
Y153591D01*
Y153814D02*
Y154611D01*
X152300Y152377D02*
Y152588D01*
Y153480D02*
Y153624D01*
Y153739D02*
Y153928D01*
Y154432D02*
Y154686D01*
X152400Y152351D02*
Y152520D01*
Y153548D02*
Y153834D01*
Y154542D02*
Y154734D01*
X152500Y152331D02*
Y152504D01*
Y153564D02*
Y153759D01*
Y154589D02*
Y154773D01*
X152600Y152311D02*
Y152487D01*
Y153581D02*
Y153734D01*
Y154609D02*
Y154793D01*
X152700Y152304D02*
Y152499D01*
Y153572D02*
Y153734D01*
Y154611D02*
Y154800D01*
X152800Y152317D02*
Y152519D01*
Y154586D02*
Y154787D01*
X152900Y152329D02*
Y152564D01*
Y154540D02*
Y154775D01*
X153000Y152374D02*
Y152634D01*
Y154460D02*
Y154722D01*
X153100Y152431D02*
Y152776D01*
Y154240D02*
Y154655D01*
X153200Y152523D02*
Y152939D01*
Y154204D02*
Y154522D01*
X153300Y152663D02*
Y152928D01*
Y154215D02*
Y154320D01*
X153900Y153816D02*
Y154399D01*
X154000Y153676D02*
Y154551D01*
X154100Y153555D02*
Y154656D01*
X154200Y153485D02*
Y153818D01*
Y154433D02*
Y154698D01*
X154300Y153445D02*
Y153694D01*
Y154533D02*
Y154731D01*
X154400Y153422D02*
Y153654D01*
Y154572D02*
Y154765D01*
X154500Y153405D02*
Y153623D01*
Y154606D02*
Y154791D01*
X154600Y153405D02*
Y153609D01*
Y154620D02*
Y154805D01*
X154700Y153405D02*
Y153595D01*
Y154620D02*
Y154805D01*
X154800Y153405D02*
Y153591D01*
Y154620D02*
Y154805D01*
X154900Y153405D02*
Y153591D01*
Y154620D02*
Y154805D01*
X155000Y153405D02*
Y153591D01*
Y154620D02*
Y154805D01*
X155100Y153405D02*
Y153591D01*
Y154620D02*
Y154805D01*
X155200Y153405D02*
Y153591D01*
Y154620D02*
Y154805D01*
X155300Y153405D02*
Y153591D01*
Y154620D02*
Y154805D01*
X155400Y153396D02*
Y153600D01*
Y154611D02*
Y154805D01*
X155500Y152334D02*
Y154805D01*
X155600Y152334D02*
Y154805D01*
X156300Y152776D02*
Y153257D01*
X156400Y152596D02*
Y153420D01*
Y154191D02*
Y154471D01*
X156500Y152490D02*
Y152891D01*
Y152998D02*
Y153507D01*
Y154191D02*
Y154592D01*
X156600Y152440D02*
Y152699D01*
Y153235D02*
Y153557D01*
Y154317D02*
Y154664D01*
X156700Y152394D02*
Y152617D01*
Y153343D02*
Y153603D01*
Y154469D02*
Y154714D01*
X156800Y152361D02*
Y152567D01*
Y153393D02*
Y153636D01*
Y154552D02*
Y154755D01*
X156900Y152330D02*
Y152540D01*
Y153423D02*
Y153668D01*
Y154592D02*
Y154788D01*
X157000Y152316D02*
Y152518D01*
Y153448D02*
Y153690D01*
Y154624D02*
Y154812D01*
X157100Y152302D02*
Y152495D01*
Y153473D02*
Y153712D01*
Y154641D02*
Y154825D01*
X157200Y152307D02*
Y152484D01*
Y153498D02*
Y153734D01*
Y154655D02*
Y154837D01*
X157300Y152318D02*
Y152484D01*
Y153523D02*
Y153773D01*
Y154641D02*
Y154830D01*
X157400Y152330D02*
Y152506D01*
Y153548D02*
Y153811D01*
Y154626D02*
Y154816D01*
X157500Y152350D02*
Y152546D01*
Y153573D02*
Y153836D01*
Y154601D02*
Y154796D01*
X157600Y152375D02*
Y152607D01*
Y153622D02*
Y153867D01*
Y154561D02*
Y154762D01*
X157700Y152400D02*
Y152685D01*
Y153682D02*
Y153970D01*
Y154477D02*
Y154721D01*
X157800Y152463D02*
Y152785D01*
Y153742D02*
Y154149D01*
Y154276D02*
Y154661D01*
X157900Y152530D02*
Y153065D01*
Y153812D02*
Y154578D01*
X158000Y152650D02*
Y153127D01*
Y153939D02*
Y154435D01*
X158100Y152837D02*
Y153127D01*
X158700Y152334D02*
Y152520D01*
X158800Y152334D02*
Y152520D01*
Y154620D02*
Y154805D01*
X158900Y152334D02*
Y152520D01*
Y153513D02*
Y153698D01*
Y154620D02*
Y154805D01*
X159000Y102932D02*
Y103965D01*
Y120380D02*
Y120890D01*
Y126578D02*
Y127617D01*
Y152334D02*
Y152520D01*
Y153513D02*
Y153698D01*
Y154620D02*
Y154805D01*
X159100Y102595D02*
Y104249D01*
Y120174D02*
Y121054D01*
Y121544D02*
Y122102D01*
Y126249D02*
Y127897D01*
Y152334D02*
Y152520D01*
Y153513D02*
Y153698D01*
Y154620D02*
Y154805D01*
X159200Y102415D02*
Y102911D01*
Y103955D02*
Y104456D01*
Y120061D02*
Y120413D01*
Y120815D02*
Y121140D01*
Y121431D02*
Y122222D01*
Y126087D02*
Y126535D01*
Y127014D02*
Y127248D01*
Y127720D02*
Y128060D01*
Y152334D02*
Y152520D01*
Y153513D02*
Y153698D01*
Y154620D02*
Y154805D01*
X159300Y102303D02*
Y102596D01*
Y104241D02*
Y104560D01*
Y108865D02*
Y109815D01*
Y119999D02*
Y120268D01*
Y120991D02*
Y121190D01*
Y121367D02*
Y121574D01*
Y121987D02*
Y122296D01*
Y125987D02*
Y126274D01*
Y126958D02*
Y127071D01*
Y127928D02*
Y128160D01*
Y152334D02*
Y152520D01*
Y153513D02*
Y153698D01*
Y154620D02*
Y154805D01*
X159400Y102253D02*
Y102496D01*
Y104370D02*
Y104623D01*
Y108609D02*
Y110103D01*
Y119936D02*
Y120180D01*
Y121084D02*
Y121249D01*
Y121301D02*
Y121465D01*
Y122120D02*
Y122362D01*
Y125911D02*
Y126153D01*
Y126873D02*
Y126978D01*
Y128025D02*
Y128217D01*
Y152334D02*
Y152520D01*
Y153513D02*
Y153698D01*
Y154620D02*
Y154805D01*
X159500Y102211D02*
Y102416D01*
Y104466D02*
Y104643D01*
Y108463D02*
Y109050D01*
Y109516D02*
Y110264D01*
Y119920D02*
Y120117D01*
Y121147D02*
Y121415D01*
Y122170D02*
Y122379D01*
Y125861D02*
Y126073D01*
Y126791D02*
Y126915D01*
Y128088D02*
Y128267D01*
Y152334D02*
Y152520D01*
Y153513D02*
Y153698D01*
Y154620D02*
Y154805D01*
X159600Y102196D02*
Y102387D01*
Y104483D02*
Y104663D01*
Y108363D02*
Y108740D01*
Y109943D02*
Y110384D01*
Y114969D02*
Y115388D01*
Y119909D02*
Y120100D01*
Y121164D02*
Y121389D01*
Y122196D02*
Y122390D01*
Y125829D02*
Y126038D01*
Y126751D02*
Y126899D01*
Y128105D02*
Y128287D01*
Y152334D02*
Y152520D01*
Y153513D02*
Y153698D01*
Y154620D02*
Y154805D01*
X159700Y102182D02*
Y102367D01*
Y104499D02*
Y104683D01*
Y108279D02*
Y108566D01*
Y110106D02*
Y110447D01*
Y114642D02*
Y115876D01*
Y119898D02*
Y120084D01*
Y121180D02*
Y121369D01*
Y122216D02*
Y122401D01*
Y125814D02*
Y126010D01*
Y126720D02*
Y126882D01*
Y128121D02*
Y128301D01*
Y152334D02*
Y152520D01*
Y153513D02*
Y153698D01*
Y154620D02*
Y154805D01*
X159800Y102200D02*
Y102382D01*
Y104485D02*
Y104674D01*
Y108234D02*
Y108466D01*
Y110224D02*
Y110499D01*
Y114443D02*
Y116101D01*
Y119906D02*
Y120082D01*
Y121168D02*
Y121384D01*
Y122201D02*
Y122393D01*
Y125804D02*
Y125989D01*
Y126700D02*
Y126894D01*
Y128107D02*
Y128296D01*
Y152334D02*
Y152520D01*
Y153513D02*
Y153698D01*
Y154620D02*
Y154805D01*
X159900Y102222D02*
Y102402D01*
Y104465D02*
Y104660D01*
Y108190D02*
Y108399D01*
Y110299D02*
Y110532D01*
Y114326D02*
Y114805D01*
Y115715D02*
Y116221D01*
Y119917D02*
Y120100D01*
Y121152D02*
Y121404D01*
Y122181D02*
Y122382D01*
Y125816D02*
Y126014D01*
Y126719D02*
Y126911D01*
Y128087D02*
Y128274D01*
Y152334D02*
Y152520D01*
Y153513D02*
Y153698D01*
Y154620D02*
Y154805D01*
X160000Y102244D02*
Y102473D01*
Y104394D02*
Y104627D01*
Y108154D02*
Y108341D01*
Y110353D02*
Y110563D01*
Y114226D02*
Y114548D01*
Y115940D02*
Y116318D01*
Y119928D02*
Y120165D01*
Y121105D02*
Y121451D01*
Y122134D02*
Y122371D01*
Y125829D02*
Y126061D01*
Y126748D02*
Y126957D01*
Y128016D02*
Y128252D01*
Y152334D02*
Y152520D01*
Y153513D02*
Y153698D01*
Y154620D02*
Y154805D01*
X160100Y102308D02*
Y102553D01*
Y104314D02*
Y104577D01*
Y108144D02*
Y108321D01*
Y110393D02*
Y110583D01*
Y114165D02*
Y114414D01*
Y116065D02*
Y116378D01*
Y119981D02*
Y120215D01*
Y121030D02*
Y121213D01*
Y121350D02*
Y121531D01*
Y122054D02*
Y122315D01*
Y125867D02*
Y126151D01*
Y126790D02*
Y127032D01*
Y127936D02*
Y128206D01*
Y152334D02*
Y152520D01*
Y153513D02*
Y153698D01*
Y154620D02*
Y154805D01*
X160200Y102380D02*
Y102768D01*
Y104099D02*
Y104487D01*
Y108135D02*
Y108307D01*
Y110407D02*
Y110592D01*
Y114121D02*
Y114342D01*
Y116162D02*
Y116419D01*
Y120044D02*
Y120324D01*
Y120872D02*
Y121179D01*
Y121410D02*
Y122248D01*
Y125933D02*
Y126372D01*
Y126847D02*
Y127190D01*
Y127777D02*
Y128134D01*
Y152334D02*
Y152544D01*
Y153488D02*
Y153723D01*
Y154595D02*
Y154805D01*
X160300Y102501D02*
Y104338D01*
Y108126D02*
Y108307D01*
Y110407D02*
Y110592D01*
Y114076D02*
Y114276D01*
Y116236D02*
Y116452D01*
Y120124D02*
Y121118D01*
Y121503D02*
Y122137D01*
Y126042D02*
Y126402D01*
Y126928D02*
Y128040D01*
Y152334D02*
Y154805D01*
X160400Y102765D02*
Y104063D01*
Y108121D02*
Y108307D01*
Y110407D02*
Y110592D01*
Y114055D02*
Y114238D01*
Y116276D02*
Y116477D01*
Y120299D02*
Y120988D01*
Y121744D02*
Y121907D01*
Y126236D02*
Y126391D01*
Y127128D02*
Y127840D01*
Y152334D02*
Y154805D01*
X160500Y108121D02*
Y108307D01*
Y110407D02*
Y110592D01*
Y114046D02*
Y114218D01*
Y116312D02*
Y116497D01*
X160600Y108121D02*
Y108307D01*
Y110407D02*
Y110592D01*
Y114037D02*
Y114212D01*
Y116312D02*
Y116498D01*
X160700Y108121D02*
Y108307D01*
Y110407D02*
Y110592D01*
Y114028D02*
Y114212D01*
Y116312D02*
Y116498D01*
X160800Y108121D02*
Y108307D01*
Y110407D02*
Y110592D01*
Y114026D02*
Y114212D01*
Y116312D02*
Y116498D01*
X160900Y108121D02*
Y108307D01*
Y110407D02*
Y110592D01*
Y114026D02*
Y114212D01*
Y116312D02*
Y116498D01*
X161000Y108121D02*
Y110592D01*
Y114026D02*
Y114212D01*
Y116312D02*
Y116498D01*
Y132220D02*
Y132715D01*
Y137648D02*
Y137870D01*
Y150176D02*
Y151210D01*
X161100Y108121D02*
Y110592D01*
Y114026D02*
Y114212D01*
Y116312D02*
Y116498D01*
Y132034D02*
Y132865D01*
Y133535D02*
Y133652D01*
Y137648D02*
Y137870D01*
Y139144D02*
Y139783D01*
Y149839D02*
Y151494D01*
X161200Y108121D02*
Y110592D01*
Y114026D02*
Y114212D01*
Y116312D02*
Y116498D01*
Y131896D02*
Y132259D01*
Y132661D02*
Y132965D01*
Y133293D02*
Y133950D01*
Y137648D02*
Y137870D01*
Y138951D02*
Y139903D01*
Y149659D02*
Y150155D01*
Y151199D02*
Y151700D01*
X161300Y114026D02*
Y114214D01*
Y116310D02*
Y116498D01*
Y131839D02*
Y132084D01*
Y132807D02*
Y133002D01*
Y133218D02*
Y134025D01*
Y137648D02*
Y137870D01*
Y138824D02*
Y139216D01*
Y139683D02*
Y139967D01*
Y149547D02*
Y149841D01*
Y151485D02*
Y151804D01*
X161400Y114026D02*
Y116498D01*
Y131782D02*
Y131991D01*
Y132895D02*
Y133035D01*
Y133143D02*
Y133329D01*
Y133855D02*
Y134100D01*
Y137648D02*
Y137870D01*
Y138704D02*
Y139055D01*
Y139782D02*
Y140025D01*
Y149497D02*
Y149740D01*
Y151614D02*
Y151867D01*
X161500Y102215D02*
Y104687D01*
Y114026D02*
Y116498D01*
Y119932D02*
Y122403D01*
Y125837D02*
Y128309D01*
Y131758D02*
Y131928D01*
Y132958D02*
Y133238D01*
Y133955D02*
Y134146D01*
Y137648D02*
Y137870D01*
Y138607D02*
Y138938D01*
Y139857D02*
Y140063D01*
Y143554D02*
Y146025D01*
Y149455D02*
Y149660D01*
Y151710D02*
Y151887D01*
X161600Y102215D02*
Y104592D01*
Y119932D02*
Y122309D01*
Y125837D02*
Y128214D01*
Y131738D02*
Y131911D01*
Y132975D02*
Y133163D01*
Y134000D02*
Y134183D01*
Y137648D02*
Y137870D01*
Y138519D02*
Y138822D01*
Y139905D02*
Y140085D01*
Y143554D02*
Y145931D01*
Y149441D02*
Y149631D01*
Y151727D02*
Y151907D01*
X161700Y104211D02*
Y104466D01*
Y121927D02*
Y122183D01*
Y127833D02*
Y128088D01*
Y131718D02*
Y131895D01*
Y132991D02*
Y133143D01*
Y134020D02*
Y134203D01*
Y137648D02*
Y137870D01*
Y138432D02*
Y138731D01*
Y139925D02*
Y140108D01*
Y145549D02*
Y145805D01*
Y149426D02*
Y149611D01*
Y151743D02*
Y151927D01*
X161800Y104137D02*
Y104366D01*
Y108121D02*
Y108270D01*
Y121853D02*
Y122083D01*
Y127759D02*
Y127988D01*
Y131714D02*
Y131909D01*
Y132979D02*
Y133143D01*
Y134018D02*
Y134208D01*
Y137648D02*
Y137870D01*
Y138348D02*
Y138642D01*
Y139926D02*
Y140114D01*
Y145475D02*
Y145705D01*
Y149444D02*
Y149626D01*
Y151729D02*
Y151918D01*
X161900Y104062D02*
Y104291D01*
Y108121D02*
Y108420D01*
Y110507D02*
Y110592D01*
Y121778D02*
Y122008D01*
Y127684D02*
Y127913D01*
Y131726D02*
Y131929D01*
Y133993D02*
Y134195D01*
Y137648D02*
Y137870D01*
Y138265D02*
Y138553D01*
Y139910D02*
Y140103D01*
Y145400D02*
Y145630D01*
Y149466D02*
Y149646D01*
Y151709D02*
Y151904D01*
X162000Y103989D02*
Y104224D01*
Y108121D02*
Y108570D01*
Y110357D02*
Y110592D01*
Y121706D02*
Y121941D01*
Y127611D02*
Y127846D01*
Y131739D02*
Y131976D01*
Y133945D02*
Y134183D01*
Y137648D02*
Y137870D01*
Y138188D02*
Y138466D01*
Y139884D02*
Y140092D01*
Y145328D02*
Y145563D01*
Y149488D02*
Y149717D01*
Y151638D02*
Y151871D01*
X162100Y103939D02*
Y104163D01*
Y108254D02*
Y108720D01*
Y110207D02*
Y110592D01*
Y114026D02*
Y114090D01*
Y121656D02*
Y121879D01*
Y127561D02*
Y127785D01*
Y131787D02*
Y132052D01*
Y133855D02*
Y134126D01*
Y137648D02*
Y137870D01*
Y138098D02*
Y138381D01*
Y139809D02*
Y140060D01*
Y145278D02*
Y145501D01*
Y149553D02*
Y149797D01*
Y151558D02*
Y151821D01*
X162200Y103889D02*
Y104106D01*
Y108401D02*
Y108870D01*
Y110057D02*
Y110520D01*
Y114026D02*
Y114240D01*
Y121606D02*
Y121822D01*
Y127511D02*
Y127728D01*
Y131844D02*
Y132206D01*
Y133631D02*
Y134059D01*
Y137648D02*
Y137875D01*
Y137973D02*
Y138286D01*
Y139701D02*
Y140003D01*
Y145228D02*
Y145444D01*
Y149624D02*
Y150012D01*
Y151343D02*
Y151731D01*
X162300Y108548D02*
Y109020D01*
Y109907D02*
Y110370D01*
Y114026D02*
Y114390D01*
Y116349D02*
Y116498D01*
Y131942D02*
Y132347D01*
Y133614D02*
Y133921D01*
Y137648D02*
Y138161D01*
Y139476D02*
Y139935D01*
Y149745D02*
Y151583D01*
X162400Y108696D02*
Y109170D01*
Y109757D02*
Y110220D01*
Y114076D02*
Y114540D01*
Y116199D02*
Y116498D01*
Y132082D02*
Y132336D01*
Y133625D02*
Y133710D01*
Y137648D02*
Y138036D01*
Y139487D02*
Y139795D01*
Y150009D02*
Y151308D01*
X162500Y108843D02*
Y109320D01*
Y109607D02*
Y110070D01*
Y114223D02*
Y114690D01*
Y116049D02*
Y116498D01*
Y137648D02*
Y137857D01*
Y139498D02*
Y139535D01*
X162600Y108990D02*
Y109923D01*
Y114370D02*
Y114840D01*
Y115899D02*
Y116361D01*
X162700Y109156D02*
Y109783D01*
Y114517D02*
Y114990D01*
Y115749D02*
Y116211D01*
X162800Y109157D02*
Y109702D01*
Y114664D02*
Y115140D01*
Y115599D02*
Y116061D01*
X162900Y109027D02*
Y109883D01*
Y114811D02*
Y115290D01*
Y115449D02*
Y115911D01*
X163000Y103002D02*
Y103864D01*
Y108895D02*
Y109374D01*
Y109554D02*
Y110062D01*
Y114966D02*
Y115769D01*
Y120719D02*
Y121581D01*
Y126624D02*
Y127486D01*
Y132530D02*
Y133392D01*
Y138435D02*
Y139297D01*
Y144341D02*
Y145203D01*
Y150246D02*
Y151108D01*
X163100Y102739D02*
Y104134D01*
Y108748D02*
Y109224D01*
Y109704D02*
Y110201D01*
Y115097D02*
Y115629D01*
Y120455D02*
Y121850D01*
Y126361D02*
Y127756D01*
Y132266D02*
Y133661D01*
Y138172D02*
Y139567D01*
Y144077D02*
Y145472D01*
Y149983D02*
Y151378D01*
X163200Y102622D02*
Y103451D01*
Y104274*
Y108601D02*
Y109074D01*
Y109854D02*
Y110339D01*
Y114999D02*
Y115657D01*
Y120338D02*
Y121168D01*
Y121990*
Y126244D02*
Y127073D01*
Y127896*
Y132150D02*
Y132979D01*
Y133801*
Y138055D02*
Y138884D01*
Y139707*
Y143961D02*
Y144790D01*
Y145612*
Y149866D02*
Y150695D01*
Y151518*
X163300Y102510D02*
Y102954D01*
Y103969D02*
Y104387D01*
Y108454D02*
Y108924D01*
Y110004D02*
Y110478D01*
Y114885D02*
Y115889D01*
Y120226D02*
Y120670D01*
Y121685D02*
Y122104D01*
Y126132D02*
Y126576D01*
Y127591D02*
Y128009D01*
Y132037D02*
Y132481D01*
Y133496D02*
Y133915D01*
Y137943D02*
Y138387D01*
Y139402D02*
Y139820D01*
Y143848D02*
Y144292D01*
Y145307D02*
Y145726D01*
Y149754D02*
Y150198D01*
Y151213D02*
Y151631D01*
X163400Y102424D02*
Y102754D01*
Y104184D02*
Y104473D01*
Y108307D02*
Y108774D01*
Y110154D02*
Y110592D01*
Y114738D02*
Y115215D01*
Y115524D02*
Y116027D01*
Y120141D02*
Y120470D01*
Y121901D02*
Y122190D01*
Y126046D02*
Y126376D01*
Y127806D02*
Y128095D01*
Y131952D02*
Y132281D01*
Y133712D02*
Y134001D01*
Y137857D02*
Y138187D01*
Y139617D02*
Y139906D01*
Y143763D02*
Y144092D01*
Y145523D02*
Y145812D01*
Y149668D02*
Y149998D01*
Y151428D02*
Y151717D01*
X163500Y102338D02*
Y102604D01*
Y104294D02*
Y104555D01*
Y108160D02*
Y108624D01*
Y110304D02*
Y110592D01*
Y114591D02*
Y115065D01*
Y115674D02*
Y116166D01*
Y120055D02*
Y120320D01*
Y122010D02*
Y122272D01*
Y125960D02*
Y126226D01*
Y127916D02*
Y128177D01*
Y131866D02*
Y132131D01*
Y133821D02*
Y134083D01*
Y137771D02*
Y138037D01*
Y139727D02*
Y139988D01*
Y143677D02*
Y143942D01*
Y145632D02*
Y145894D01*
Y149582D02*
Y149848D01*
Y151538D02*
Y151799D01*
X163600Y102288D02*
Y102532D01*
Y104374D02*
Y104600D01*
Y108121D02*
Y108474D01*
Y110454D02*
Y110592D01*
Y114443D02*
Y114915D01*
Y115824D02*
Y116304D01*
Y120005D02*
Y120249D01*
Y122090D02*
Y122316D01*
Y125910D02*
Y126155D01*
Y127996D02*
Y128222D01*
Y131816D02*
Y132060D01*
Y133901D02*
Y134127D01*
Y137721D02*
Y137966D01*
Y139807D02*
Y140033D01*
Y143627D02*
Y143871D01*
Y145712D02*
Y145938D01*
Y149532D02*
Y149777D01*
Y151618D02*
Y151844D01*
X163700Y102251D02*
Y102461D01*
Y104428D02*
Y104644D01*
Y108121D02*
Y108324D01*
Y114296D02*
Y114765D01*
Y115974D02*
Y116443D01*
Y119967D02*
Y120178D01*
Y122145D02*
Y122361D01*
Y125873D02*
Y126083D01*
Y128050D02*
Y128266D01*
Y131778D02*
Y131989D01*
Y133956D02*
Y134172D01*
Y137684D02*
Y137894D01*
Y139861D02*
Y140077D01*
Y143589D02*
Y143800D01*
Y145767D02*
Y145983D01*
Y149495D02*
Y149705D01*
Y151672D02*
Y151888D01*
X163800Y102214D02*
Y102426D01*
Y104478D02*
Y104688D01*
Y108121D02*
Y108174D01*
Y114149D02*
Y114615D01*
Y116124D02*
Y116498D01*
Y119931D02*
Y120142D01*
Y122195D02*
Y122405D01*
Y125836D02*
Y126048D01*
Y128100D02*
Y128310D01*
Y131742D02*
Y131953D01*
Y134006D02*
Y134216D01*
Y137647D02*
Y137859D01*
Y139911D02*
Y140121D01*
Y143553D02*
Y143764D01*
Y145817D02*
Y146027D01*
Y149458D02*
Y149670D01*
Y151722D02*
Y151932D01*
X163900Y102203D02*
Y102406D01*
Y104508D02*
Y104699D01*
Y114026D02*
Y114465D01*
Y116274D02*
Y116498D01*
Y119919D02*
Y120122D01*
Y122224D02*
Y122416D01*
Y125825D02*
Y126028D01*
Y128130D02*
Y128321D01*
Y131731D02*
Y131933D01*
Y134035D02*
Y134227D01*
Y137636D02*
Y137839D01*
Y139941D02*
Y140132D01*
Y143542D02*
Y143744D01*
Y145846D02*
Y146038D01*
Y149447D02*
Y149650D01*
Y151752D02*
Y151943D01*
X164000Y102192D02*
Y102386D01*
Y104522D02*
Y104710D01*
Y114026D02*
Y114315D01*
Y116424D02*
Y116498D01*
Y119908D02*
Y120102D01*
Y122239D02*
Y122427D01*
Y125814D02*
Y126008D01*
Y128144D02*
Y128332D01*
Y131719D02*
Y131913D01*
Y134050D02*
Y134238D01*
Y137625D02*
Y137819D01*
Y139955D02*
Y140143D01*
Y143530D02*
Y143724D01*
Y145861D02*
Y146049D01*
Y149436D02*
Y149630D01*
Y151766D02*
Y151954D01*
X164100Y102181D02*
Y102366D01*
Y104536D02*
Y104721D01*
Y108121D02*
Y108140D01*
Y114026D02*
Y114165D01*
Y119897D02*
Y120082D01*
Y122253D02*
Y122438D01*
Y125803D02*
Y125988D01*
Y128158D02*
Y128343D01*
Y131708D02*
Y131893D01*
Y134064D02*
Y134249D01*
Y137614D02*
Y137799D01*
Y139969D02*
Y140154D01*
Y143519D02*
Y143704D01*
Y145875D02*
Y146060D01*
Y149425D02*
Y149610D01*
Y151780D02*
Y151965D01*
X164200Y102190D02*
Y102385D01*
Y104517D02*
Y104709D01*
Y108121D02*
Y108307D01*
Y119907D02*
Y120101D01*
Y122234D02*
Y122425D01*
Y125812D02*
Y126007D01*
Y128139D02*
Y128331D01*
Y131718D02*
Y131912D01*
Y134045D02*
Y134236D01*
Y137623D02*
Y137818D01*
Y139950D02*
Y140142D01*
Y143529D02*
Y143723D01*
Y145856D02*
Y146047D01*
Y149434D02*
Y149629D01*
Y151761D02*
Y151953D01*
X164300Y102201D02*
Y102407D01*
Y104495D02*
Y104694D01*
Y108121D02*
Y108474D01*
Y109696D02*
Y110133D01*
Y119918D02*
Y120124D01*
Y122212D02*
Y122411D01*
Y125823D02*
Y126029D01*
Y128117D02*
Y128316D01*
Y131729D02*
Y131935D01*
Y134023D02*
Y134222D01*
Y137634D02*
Y137840D01*
Y139928D02*
Y140128D01*
Y143540D02*
Y143746D01*
Y145834D02*
Y146033D01*
Y149445D02*
Y149651D01*
Y151739D02*
Y151939D01*
X164400Y102212D02*
Y102429D01*
Y104473D02*
Y104673D01*
Y108121D02*
Y108640D01*
Y109571D02*
Y110342D01*
Y119929D02*
Y120146D01*
Y122189D02*
Y122389D01*
Y125835D02*
Y126051D01*
Y128095D02*
Y128295D01*
Y131740D02*
Y131957D01*
Y134000D02*
Y134200D01*
Y137646D02*
Y137862D01*
Y139906D02*
Y140106D01*
Y143551D02*
Y143768D01*
Y145812D02*
Y146011D01*
Y149457D02*
Y149673D01*
Y151717D02*
Y151917D01*
X164500Y102252D02*
Y102472D01*
Y104430D02*
Y104644D01*
Y108287D02*
Y108794D01*
Y109475D02*
Y110448D01*
Y116312D02*
Y116498D01*
Y119968D02*
Y120189D01*
Y122146D02*
Y122361D01*
Y125874D02*
Y126095D01*
Y128052D02*
Y128266D01*
Y131779D02*
Y132000D01*
Y133957D02*
Y134172D01*
Y137685D02*
Y137906D01*
Y139863D02*
Y140077D01*
Y143590D02*
Y143811D01*
Y145768D02*
Y145983D01*
Y149496D02*
Y149717D01*
Y151674D02*
Y151888D01*
X164600Y102296D02*
Y102535D01*
Y104367D02*
Y104611D01*
Y108454D02*
Y108919D01*
Y109392D02*
Y109688D01*
Y110204D02*
Y110508D01*
Y116312D02*
Y116498D01*
Y120013D02*
Y120251D01*
Y122084D02*
Y122328D01*
Y125918D02*
Y126157D01*
Y127989D02*
Y128233D01*
Y131824D02*
Y132063D01*
Y133895D02*
Y134139D01*
Y137729D02*
Y137968D01*
Y139800D02*
Y140044D01*
Y143635D02*
Y143874D01*
Y145706D02*
Y145950D01*
Y149540D02*
Y149779D01*
Y151611D02*
Y151855D01*
X164700Y102341D02*
Y102597D01*
Y104305D02*
Y104551D01*
Y108620D02*
Y109022D01*
Y109349D02*
Y109586D01*
Y110312D02*
Y110538D01*
Y116312D02*
Y116498D01*
Y120057D02*
Y120314D01*
Y122021D02*
Y122268D01*
Y125963D02*
Y126220D01*
Y127927D02*
Y128173D01*
Y131868D02*
Y132125D01*
Y133832D02*
Y134079D01*
Y137774D02*
Y138031D01*
Y139738D02*
Y139984D01*
Y143679D02*
Y143936D01*
Y145643D02*
Y145890D01*
Y149585D02*
Y149842D01*
Y151549D02*
Y151795D01*
X164800Y102417D02*
Y102717D01*
Y104206D02*
Y104483D01*
Y108772D02*
Y109111D01*
Y109324D02*
Y109490D01*
Y110352D02*
Y110558D01*
Y116312D02*
Y116498D01*
Y120133D02*
Y120433D01*
Y121922D02*
Y122199D01*
Y126039D02*
Y126339D01*
Y127828D02*
Y128105D01*
Y131944D02*
Y132244D01*
Y133733D02*
Y134010D01*
Y137850D02*
Y138150D01*
Y139639D02*
Y139916D01*
Y143756D02*
Y144055D01*
Y145544D02*
Y145821D01*
Y149661D02*
Y149961D01*
Y151450D02*
Y151727D01*
X164900Y102503D02*
Y102897D01*
Y104032D02*
Y104403D01*
Y108914D02*
Y109191D01*
Y109299D02*
Y109464D01*
Y110379D02*
Y110569D01*
Y116312D02*
Y116498D01*
Y120219D02*
Y120613D01*
Y121749D02*
Y122119D01*
Y126125D02*
Y126519D01*
Y127654D02*
Y128025D01*
Y132030D02*
Y132424D01*
Y133560D02*
Y133930D01*
Y137936D02*
Y138330D01*
Y139465D02*
Y139836D01*
Y143841D02*
Y144235D01*
Y145371D02*
Y145741D01*
Y149747D02*
Y150141D01*
Y151276D02*
Y151647D01*
X165000Y102609D02*
Y103325D01*
Y103722D02*
Y104294D01*
Y109054D02*
Y109449D01*
Y110395D02*
Y110580D01*
Y116312D02*
Y116498D01*
Y120325D02*
Y121042D01*
Y121439D02*
Y122011D01*
Y126231D02*
Y126948D01*
Y127344D02*
Y127916D01*
Y132136D02*
Y132853D01*
Y133250D02*
Y133822D01*
Y138042D02*
Y138759D01*
Y139155D02*
Y139727D01*
Y143947D02*
Y144664D01*
Y145061D02*
Y145633D01*
Y149853D02*
Y150570D01*
Y150966D02*
Y151538D01*
X165100Y102749D02*
Y104174D01*
Y109170D02*
Y109449D01*
Y110407D02*
Y110591D01*
Y116312D02*
Y116498D01*
Y120465D02*
Y121891D01*
Y126371D02*
Y127796D01*
Y132276D02*
Y133702D01*
Y138182D02*
Y139607D01*
Y144087D02*
Y145513D01*
Y149993D02*
Y151418D01*
X165200Y102995D02*
Y103975D01*
Y109227D02*
Y109449D01*
Y110407D02*
Y110592D01*
Y116312D02*
Y116498D01*
Y120711D02*
Y121692D01*
Y126617D02*
Y127597D01*
Y132522D02*
Y133503D01*
Y138428D02*
Y139408D01*
Y144333D02*
Y145314D01*
Y150239D02*
Y151219D01*
X165300Y109264D02*
Y109449D01*
Y110407D02*
Y110592D01*
Y114026D02*
Y116498D01*
X165400Y109264D02*
Y109449D01*
Y110407D02*
Y110592D01*
Y114026D02*
Y116498D01*
X165500Y109264D02*
Y109449D01*
Y110407D02*
Y110592D01*
Y114026D02*
Y116498D01*
X165600Y109264D02*
Y109449D01*
Y110407D02*
Y110592D01*
Y116312D02*
Y116498D01*
X165700Y109264D02*
Y109449D01*
Y110407D02*
Y110592D01*
Y116312D02*
Y116498D01*
X165800Y109264D02*
Y109449D01*
Y110407D02*
Y110592D01*
Y116312D02*
Y116498D01*
X165900Y102215D02*
Y104687D01*
Y109239D02*
Y109474D01*
Y110382D02*
Y110592D01*
Y116312D02*
Y116498D01*
Y119932D02*
Y122403D01*
Y125837D02*
Y128309D01*
Y131743D02*
Y134214D01*
Y137648D02*
Y140120D01*
Y143554D02*
Y146025D01*
Y149459D02*
Y151931D01*
X166000Y102215D02*
Y104687D01*
Y108121D02*
Y110592D01*
Y116312D02*
Y116498D01*
Y119932D02*
Y122403D01*
Y125837D02*
Y128309D01*
Y131743D02*
Y134214D01*
Y137648D02*
Y140120D01*
Y143554D02*
Y146025D01*
Y149459D02*
Y151931D01*
X166100Y102215D02*
Y104687D01*
Y108121D02*
Y110592D01*
Y116312D02*
Y116498D01*
Y119932D02*
Y122403D01*
Y125837D02*
Y128309D01*
Y131743D02*
Y134214D01*
Y137648D02*
Y140120D01*
Y143554D02*
Y146025D01*
Y149459D02*
Y151931D01*
X166200Y116312D02*
Y116498D01*
X166300Y116312D02*
Y116498D01*
*
G04 PC Custom Flashes*
G04 Layer Name PCB_ESP32-C3-WROOM-02U_ - flashes*
%LPD*%
*
*
G04 PC Circuitry*
G04 Layer Name PCB_ESP32-C3-WROOM-02U_ - circuitry*
%LPD*%
*
G54D10*
X100000Y156299D02*
X100003D01*
X170866D02*
X170869D01*
X100000Y100000D02*
X100003D01*
X100000Y156299D02*
X100003D01*
G54D27*
X100000D02*
X170866D01*
Y100000*
X100000*
Y156299*
G54D30*
X126758Y142940D02*
G75*
G03X126758I-5430J0D01*
G01X126919Y128749D02*
G03X126919I-5591J0D01*
G54D36*
G01X124270Y119803D02*
Y120423D01*
X127190Y120983D02*
X115400Y108493D01*
X126950Y108143D02*
X115450Y121133D01*
X120390Y109323D02*
G03X120390I-990J0D01*
G54D37*
G01X127190Y104163D02*
X115850D01*
Y101793*
X127190*
Y104163*
X115850Y104042D02*
X127190D01*
X115850Y103592D02*
X127190D01*
X115850Y103142D02*
X127190D01*
X115850Y102692D02*
X127190D01*
X115850Y102242D02*
X127190D01*
X117870Y118773D02*
X118950Y110543D01*
X124830Y118893D02*
X117680D01*
X120700Y109153D02*
X124280D01*
X125170Y119053*
X155869Y146877D02*
Y139003D01*
X140121*
Y146877*
X155869*
G54D38*
X146771Y119326D02*
X143409Y113334D01*
X143931Y112834*
X144944Y112532*
X148432Y112183*
X150027Y111808*
X150406Y110925*
X151278Y111548*
X146771Y119326*
X138036Y104016D02*
X141303Y109818D01*
X141845Y108901*
X142136Y108281*
X142454Y107989*
X143534Y107244*
X138036Y104016*
X152575Y109282D02*
X151980Y109018D01*
X153077Y107068*
X152462Y103737*
X151091Y102340*
X150426Y102292*
X149996Y102834*
X150047Y104359*
X150475Y104986*
X150632Y107272*
X150080Y108076*
X147935Y106795*
X148867Y105772*
X149468Y105002*
X149809Y104530*
X149825Y103195*
X149726Y102813*
X149337Y102346*
X148495Y102365*
X145805Y105512*
X139004Y101627*
X139004D02*
X157212D01*
X157212D02*
X152575Y109282D01*
X150098Y111644D02*
X151222D01*
X149195Y112004D02*
X151014D01*
X150252Y111284D02*
X150908D01*
X146624Y112364D02*
X150805D01*
X144301Y112724D02*
X150596D01*
X143670Y113084D02*
X150388D01*
X143471Y113444D02*
X150179D01*
X143673Y113804D02*
X149970D01*
X143875Y114164D02*
X149762D01*
X144077Y114524D02*
X149553D01*
X144279Y114884D02*
X149345D01*
X144481Y115244D02*
X149136D01*
X144683Y115604D02*
X148927D01*
X144884Y115964D02*
X148719D01*
X145086Y116324D02*
X148510D01*
X145288Y116684D02*
X148302D01*
X145490Y117044D02*
X148093D01*
X145692Y117404D02*
X147884D01*
X145894Y117764D02*
X147676D01*
X146096Y118124D02*
X147467D01*
X146298Y118484D02*
X147258D01*
X146500Y118844D02*
X147050D01*
X146702Y119204D02*
X146841D01*
X139860Y107255D02*
X143518D01*
X140063Y107615D02*
X142996D01*
X139657Y106895D02*
X142938D01*
X140265Y107975D02*
X142474D01*
X139454Y106535D02*
X142325D01*
X140468Y108335D02*
X142111D01*
X140671Y108695D02*
X141942D01*
X140874Y109055D02*
X141754D01*
X139252Y106175D02*
X141712D01*
X141077Y109415D02*
X141541D01*
X141279Y109775D02*
X141329D01*
X139049Y105815D02*
X141099D01*
X138846Y105455D02*
X140486D01*
X138643Y105095D02*
X139873D01*
X138440Y104735D02*
X139260D01*
X138238Y104375D02*
X138646D01*
X139631Y101985D02*
X156995D01*
X151096Y102345D02*
X156777D01*
X151450Y102705D02*
X156559D01*
X151803Y103065D02*
X156341D01*
X152156Y103425D02*
X156123D01*
X152471Y103785D02*
X155905D01*
X152538Y104145D02*
X155687D01*
X152604Y104505D02*
X155469D01*
X152671Y104865D02*
X155251D01*
X152737Y105225D02*
X155033D01*
X152804Y105585D02*
X154815D01*
X152870Y105945D02*
X154596D01*
X152937Y106305D02*
X154378D01*
X153003Y106665D02*
X154160D01*
X153069Y107025D02*
X153942D01*
X152899Y107385D02*
X153724D01*
X152696Y107745D02*
X153506D01*
X152494Y108105D02*
X153288D01*
X152291Y108465D02*
X153070D01*
X152089Y108825D02*
X152852D01*
X152356Y109185D02*
X152634D01*
X148320Y107025D02*
X150615D01*
X148053Y106665D02*
X150590D01*
X148381Y106305D02*
X150565D01*
X148923Y107385D02*
X150554D01*
X148709Y105945D02*
X150541D01*
X149013Y105585D02*
X150516D01*
X149294Y105225D02*
X150491D01*
X149567Y104865D02*
X150392D01*
X140262Y102345D02*
X150384D01*
X149526Y107745D02*
X150307D01*
X149810Y104505D02*
X150147D01*
X149636Y102705D02*
X150098D01*
X149814Y104145D02*
X150040D01*
X149818Y103785D02*
X150028D01*
X149822Y103425D02*
X150016D01*
X149791Y103065D02*
X150004D01*
X140892Y102705D02*
X148205D01*
X141522Y103065D02*
X147897D01*
X142152Y103425D02*
X147589D01*
X142782Y103785D02*
X147281D01*
X143412Y104145D02*
X146973D01*
X144042Y104505D02*
X146665D01*
X144672Y104865D02*
X146358D01*
X145303Y105225D02*
X146050D01*
X125200Y119053D02*
X124530Y119463D01*
X124030Y119713*
X123480Y119863*
X122890Y120003*
X122120Y120113*
X121540Y120163*
X120780Y120143*
X120050Y120093*
X119310Y119973*
X118690Y119833*
X118040Y119623*
X117470Y119353*
X117350Y119273*
X152190Y103990D02*
X151995Y104052D01*
X151563Y104067*
X151093Y103612*
X150959Y103147*
X150979Y102858*
X151064Y102657*
X147707Y103694D02*
X147911Y104139D01*
X148280Y104378*
X148667Y104302*
X149209Y103640*
X149371Y103228*
X149409Y102907*
X149328Y102567*
G54D95*
X124013Y142890D02*
X122910D01*
Y145740D02*
G03Y142890I-0J-1425D01*
G01Y145740D02*
X124013D01*
Y142890*
X119978Y145740D02*
Y143450D01*
Y143475D02*
G03X118274Y143457I-827J-2350D01*
Y140690I805J-1384*
G01X119978*
Y143475*
X124013Y140690D02*
Y142890D01*
G54D96*
X124757Y146446D02*
X116859Y138617D01*
G54D97*
X122340Y120203D02*
X122310Y120503D01*
X122170Y120623*
X121360Y120663*
X120780*
X120510Y120543*
X120400Y120443*
Y120143*
X116990Y119723D02*
X117100Y119933D01*
X117240Y120013*
X117450Y120003*
X117550Y119913*
X117630Y119823*
X117640Y119713*
Y119503*
X117870Y117493D02*
X117210D01*
G03Y116783I155J-355*
G01X117940*
X123960Y108923D02*
Y108243D01*
X123190*
Y108953*
G54D98*
X119650Y109323D02*
G03X119650I-260J0D01*
G54D99*
G01X121950Y116083D02*
G03X122000Y116543I-7J233D01*
G01X121950Y116083D02*
X120364D01*
X120424Y116593D02*
G03X120364Y116083I-45J-253D01*
G01X120424Y116593D02*
X121990D01*
G74*
X0Y0D02*
M02*
